Drafting-Italic.ufo
<glyph name="exclam" format="2">
  <advance width="1200"/>
  <unicode hex="0021"/>
  <outline>
    <contour>
      <point x="391" y="130" type="curve" smooth="yes"/>
      <point x="391" y="218"/>
      <point x="452" y="280"/>
      <point x="540" y="280" type="curve" smooth="yes"/>
      <point x="628" y="280"/>
      <point x="689" y="218"/>
      <point x="689" y="130" type="curve" smooth="yes"/>
      <point x="689" y="42"/>
      <point x="633" y="-20"/>
      <point x="545" y="-20" type="curve" smooth="yes"/>
      <point x="457" y="-20"/>
      <point x="391" y="42"/>
    </contour>
    <contour>
      <point x="550" y="490" type="line"/>
      <point x="640" y="1340" type="line"/>
      <point x="860" y="1340" type="line"/>
      <point x="650" y="490" type="line"/>
    </contour>
  </outline>
</glyph>
<glyph name="quotedbl" format="2">
  <advance width="1200"/>
  <unicode hex="0022"/>
  <outline>
    <contour>
      <point x="804" y="730" type="line"/>
      <point x="881" y="1340" type="line"/>
      <point x="1091" y="1340" type="line"/>
      <point x="924" y="730" type="line"/>
    </contour>
    <contour>
      <point x="344" y="730" type="line"/>
      <point x="421" y="1340" type="line"/>
      <point x="631" y="1340" type="line"/>
      <point x="464" y="730" type="line"/>
    </contour>
  </outline>
</glyph>
<glyph name="numbersign" format="2">
  <advance width="1200"/>
  <unicode hex="0023"/>
  <outline>
    <contour>
      <point x="184" y="935" type="line"/>
      <point x="1276" y="935" type="line"/>
      <point x="1254" y="810" type="line"/>
      <point x="162" y="810" type="line"/>
    </contour>
    <contour>
      <point x="54" y="540" type="line"/>
      <point x="1146" y="540" type="line"/>
      <point x="1124" y="415" type="line"/>
      <point x="32" y="415" type="line"/>
    </contour>
    <contour>
      <point x="1061" y="1310" type="line"/>
      <point x="1186" y="1290" type="line"/>
      <point x="647" y="-10" type="line"/>
      <point x="522" y="10" type="line"/>
    </contour>
    <contour>
      <point x="631" y="1310" type="line"/>
      <point x="756" y="1290" type="line"/>
      <point x="217" y="-10" type="line"/>
      <point x="92" y="10" type="line"/>
    </contour>
  </outline>
</glyph>
<glyph name="dollar" format="2">
  <advance width="1200"/>
  <unicode hex="0024"/>
  <outline>
    <contour>
      <point x="550" y="40" type="line"/>
      <point x="540" y="-260" type="line"/>
      <point x="360" y="-260" type="line"/>
      <point x="450" y="40" type="line"/>
    </contour>
    <contour>
      <point x="680" y="1260" type="line"/>
      <point x="690" y="1560" type="line"/>
      <point x="870" y="1560" type="line"/>
      <point x="780" y="1260" type="line"/>
    </contour>
    <contour>
      <point x="1028" y="976" type="line"/>
      <point x="898" y="1089"/>
      <point x="802" y="1180"/>
      <point x="664" y="1180" type="curve" smooth="yes"/>
      <point x="533" y="1180"/>
      <point x="419" y="1114"/>
      <point x="419" y="981" type="curve" smooth="yes"/>
      <point x="419" y="861"/>
      <point x="505" y="802"/>
      <point x="661" y="742" type="curve" smooth="yes"/>
      <point x="877" y="659"/>
      <point x="1089" y="613"/>
      <point x="1089" y="380" type="curve" smooth="yes"/>
      <point x="1089" y="130"/>
      <point x="832" y="-29"/>
      <point x="580" y="-29" type="curve" smooth="yes"/>
      <point x="353" y="-29"/>
      <point x="162" y="71"/>
      <point x="12" y="221" type="curve"/>
      <point x="120" y="341" type="line"/>
      <point x="240" y="222"/>
      <point x="397" y="111"/>
      <point x="560" y="111" type="curve" smooth="yes"/>
      <point x="802" y="111"/>
      <point x="929" y="232"/>
      <point x="929" y="371" type="curve" smooth="yes"/>
      <point x="929" y="515"/>
      <point x="765" y="538"/>
      <point x="611" y="599" type="curve" smooth="yes"/>
      <point x="431" y="670"/>
      <point x="259" y="758"/>
      <point x="259" y="970" type="curve" smooth="yes"/>
      <point x="259" y="1201"/>
      <point x="448" y="1320"/>
      <point x="674" y="1320" type="curve" smooth="yes"/>
      <point x="860" y="1320"/>
      <point x="1017" y="1229"/>
      <point x="1137" y="1089" type="curve"/>
    </contour>
  </outline>
</glyph>
<glyph name="percent" format="2">
  <advance width="1200"/>
  <unicode hex="0025"/>
  <outline>
    <contour>
      <point x="897" y="280" type="curve" smooth="yes"/>
      <point x="917" y="393"/>
      <point x="902" y="455"/>
      <point x="824" y="455" type="curve" smooth="yes"/>
      <point x="746" y="455"/>
      <point x="699" y="393"/>
      <point x="679" y="280" type="curve" smooth="yes"/>
      <point x="659" y="167"/>
      <point x="675" y="105"/>
      <point x="753" y="105" type="curve" smooth="yes"/>
      <point x="831" y="105"/>
      <point x="877" y="167"/>
    </contour>
    <contour>
      <point x="543" y="280" type="curve" smooth="yes"/>
      <point x="574" y="456"/>
      <point x="679" y="580"/>
      <point x="836" y="580" type="curve" smooth="yes"/>
      <point x="1003" y="580"/>
      <point x="1064" y="456"/>
      <point x="1033" y="280" type="curve" smooth="yes"/>
      <point x="1000" y="94"/>
      <point x="907" y="-20"/>
      <point x="740" y="-20" type="curve" smooth="yes"/>
      <point x="583" y="-20"/>
      <point x="510" y="94"/>
    </contour>
    <contour>
      <point x="500" y="1020" type="curve" smooth="yes"/>
      <point x="520" y="1133"/>
      <point x="516" y="1205"/>
      <point x="428" y="1205" type="curve" smooth="yes"/>
      <point x="350" y="1205"/>
      <point x="302" y="1133"/>
      <point x="282" y="1020" type="curve" smooth="yes"/>
      <point x="262" y="907"/>
      <point x="277" y="845"/>
      <point x="355" y="845" type="curve" smooth="yes"/>
      <point x="433" y="845"/>
      <point x="480" y="907"/>
    </contour>
    <contour>
      <point x="146" y="1020" type="curve" smooth="yes"/>
      <point x="177" y="1196"/>
      <point x="282" y="1320"/>
      <point x="439" y="1320" type="curve" smooth="yes"/>
      <point x="565" y="1320"/>
      <point x="639" y="1246"/>
      <point x="745" y="1246" type="curve" smooth="yes"/>
      <point x="855" y="1246"/>
      <point x="950" y="1302"/>
      <point x="1098" y="1440" type="curve"/>
      <point x="1178" y="1370" type="line"/>
      <point x="118" y="-100" type="line"/>
      <point x="15" y="-50" type="line"/>
      <point x="1026" y="1344" type="line"/>
      <point x="1034" y="1276" type="line"/>
      <point x="939" y="1187"/>
      <point x="823" y="1141"/>
      <point x="730" y="1141" type="curve" smooth="yes"/>
      <point x="656" y="1141"/>
      <point x="588" y="1178"/>
      <point x="571" y="1204" type="curve"/>
      <point x="603" y="1201" type="line"/>
      <point x="629" y="1164"/>
      <point x="646" y="1076"/>
      <point x="631" y="990" type="curve" smooth="yes"/>
      <point x="611" y="874"/>
      <point x="510" y="720"/>
      <point x="343" y="720" type="curve" smooth="yes"/>
      <point x="186" y="720"/>
      <point x="113" y="834"/>
    </contour>
  </outline>
</glyph>
<glyph name="ampersand" format="2">
  <advance width="1200"/>
  <unicode hex="0026"/>
  <outline>
    <contour>
      <point x="579" y="740" type="line"/>
      <point x="1141" y="740" type="line"/>
      <point x="1119" y="610" type="line"/>
      <point x="557" y="610" type="line"/>
    </contour>
    <contour>
      <point x="913" y="650" type="line"/>
      <point x="980" y="234"/>
      <point x="793" y="-20"/>
      <point x="467" y="-20" type="curve"/>
      <point x="469" y="120" type="line"/>
      <point x="677" y="120"/>
      <point x="833" y="307"/>
      <point x="753" y="650" type="curve"/>
    </contour>
    <contour>
      <point x="844" y="1059" type="line"/>
      <point x="787" y="1132"/>
      <point x="732" y="1170"/>
      <point x="644" y="1170" type="curve"/>
      <point x="647" y="1300" type="line"/>
      <point x="813" y="1300"/>
      <point x="907" y="1239"/>
      <point x="971" y="1149" type="curve"/>
    </contour>
    <contour>
      <point x="668" y="740" type="curve"/>
      <point x="576" y="610" type="line"/>
      <point x="358" y="610"/>
      <point x="266" y="498"/>
      <point x="243" y="365" type="curve" smooth="yes"/>
      <point x="221" y="242"/>
      <point x="271" y="120"/>
      <point x="469" y="120" type="curve"/>
      <point x="467" y="-20" type="line"/>
      <point x="180" y="-20"/>
      <point x="33" y="134"/>
      <point x="71" y="350" type="curve" smooth="yes"/>
      <point x="107" y="555"/>
      <point x="281" y="661"/>
      <point x="477" y="685" type="curve"/>
      <point x="355" y="708"/>
      <point x="222" y="829"/>
      <point x="254" y="1010" type="curve" smooth="yes"/>
      <point x="290" y="1216"/>
      <point x="441" y="1300"/>
      <point x="647" y="1300" type="curve"/>
      <point x="644" y="1170" type="line"/>
      <point x="516" y="1170"/>
      <point x="443" y="1103"/>
      <point x="425" y="1000" type="curve" smooth="yes"/>
      <point x="400" y="857"/>
      <point x="480" y="740"/>
    </contour>
  </outline>
</glyph>
<glyph name="parenleft" format="2">
  <advance width="1200"/>
  <unicode hex="0028"/>
  <outline>
    <contour>
      <point x="1032" y="1420" type="curve"/>
      <point x="1082" y="1350" type="line"/>
      <point x="729" y="1190"/>
      <point x="552" y="990"/>
      <point x="492" y="649" type="curve" smooth="yes"/>
      <point x="432" y="308"/>
      <point x="539" y="115"/>
      <point x="835" y="-50" type="curve"/>
      <point x="759" y="-130" type="line"/>
      <point x="451" y="25"/>
      <point x="236" y="228"/>
      <point x="310" y="649" type="curve" smooth="yes"/>
      <point x="384" y="1070"/>
      <point x="671" y="1270"/>
    </contour>
  </outline>
</glyph>
<glyph name="parenright" format="2">
  <advance width="1200"/>
  <unicode hex="0029"/>
  <outline>
    <contour>
      <point x="235" y="-130" type="curve"/>
      <point x="185" y="-60" type="line"/>
      <point x="538" y="100"/>
      <point x="715" y="300"/>
      <point x="775" y="641" type="curve" smooth="yes"/>
      <point x="835" y="982"/>
      <point x="728" y="1175"/>
      <point x="432" y="1340" type="curve"/>
      <point x="508" y="1420" type="line"/>
      <point x="816" y="1265"/>
      <point x="1031" y="1062"/>
      <point x="957" y="641" type="curve" smooth="yes"/>
      <point x="883" y="220"/>
      <point x="596" y="20"/>
    </contour>
  </outline>
</glyph>
<glyph name="asterisk" format="2">
  <advance width="1200"/>
  <unicode hex="002A"/>
  <outline>
    <contour>
      <point x="648" y="876" type="line"/>
      <point x="471" y="598" type="line"/>
      <point x="330" y="715" type="line"/>
      <point x="592" y="923" type="line"/>
    </contour>
    <contour>
      <point x="788" y="1049" type="line"/>
      <point x="1081" y="1199" type="line"/>
      <point x="1109" y="1019" type="line"/>
      <point x="799" y="983" type="line"/>
    </contour>
    <contour>
      <point x="585" y="983" type="line"/>
      <point x="297" y="1029" type="line"/>
      <point x="381" y="1199" type="line"/>
      <point x="622" y="1049" type="line"/>
    </contour>
    <contour>
      <point x="774" y="923" type="line"/>
      <point x="962" y="715" type="line"/>
      <point x="789" y="608" type="line"/>
      <point x="710" y="886" type="line"/>
    </contour>
    <contour>
      <point x="670" y="1080" type="line"/>
      <point x="653" y="1380" type="line"/>
      <point x="863" y="1380" type="line"/>
      <point x="750" y="1080" type="line"/>
    </contour>
  </outline>
</glyph>
<glyph name="plus" format="2">
  <advance width="1200"/>
  <unicode hex="002B"/>
  <outline>
    <contour>
      <point x="641" y="1030" type="line"/>
      <point x="763" y="1030" type="line"/>
      <point x="637" y="320" type="line"/>
      <point x="515" y="320" type="line"/>
    </contour>
    <contour>
      <point x="278" y="730" type="line"/>
      <point x="1020" y="730" type="line"/>
      <point x="1000" y="620" type="line"/>
      <point x="258" y="620" type="line"/>
    </contour>
  </outline>
</glyph>
<glyph name="comma" format="2">
  <advance width="1200"/>
  <unicode hex="002C"/>
  <outline>
    <contour>
      <point x="324" y="-320" type="line"/>
      <point x="471" y="290" type="line"/>
      <point x="681" y="290" type="line"/>
      <point x="444" y="-320" type="line"/>
    </contour>
  </outline>
</glyph>
<glyph name="hyphen" format="2">
  <advance width="1200"/>
  <unicode hex="002D"/>
  <outline>
    <contour>
      <point x="319" y="740" type="line"/>
      <point x="981" y="740" type="line"/>
      <point x="959" y="610" type="line"/>
      <point x="297" y="610" type="line"/>
    </contour>
  </outline>
</glyph>
<glyph name="period" format="2">
  <advance width="1200"/>
  <unicode hex="002E"/>
  <outline>
    <contour>
      <point x="396" y="130" type="curve" smooth="yes"/>
      <point x="396" y="218"/>
      <point x="457" y="280"/>
      <point x="545" y="280" type="curve" smooth="yes"/>
      <point x="633" y="280"/>
      <point x="694" y="218"/>
      <point x="694" y="130" type="curve" smooth="yes"/>
      <point x="694" y="42"/>
      <point x="638" y="-20"/>
      <point x="550" y="-20" type="curve" smooth="yes"/>
      <point x="462" y="-20"/>
      <point x="396" y="42"/>
    </contour>
  </outline>
</glyph>
<glyph name="slash" format="2">
  <advance width="1200"/>
  <unicode hex="002F"/>
  <outline>
    <contour>
      <point x="972" y="1350" type="line"/>
      <point x="1105" y="1300" type="line"/>
      <point x="218" y="-160" type="line"/>
      <point x="85" y="-110" type="line"/>
    </contour>
  </outline>
</glyph>
<glyph name="zero" format="2">
  <advance width="1200"/>
  <unicode hex="0030"/>
  <outline>
    <contour>
      <point x="515" y="-20" type="curve" smooth="yes"/>
      <point x="219" y="-20"/>
      <point x="68" y="154"/>
      <point x="155" y="650" type="curve" smooth="yes"/>
      <point x="237" y="1116"/>
      <point x="475" y="1320"/>
      <point x="752" y="1320" type="curve" smooth="yes"/>
      <point x="1029" y="1320"/>
      <point x="1196" y="1116"/>
      <point x="1114" y="650" type="curve" smooth="yes"/>
      <point x="1027" y="154"/>
      <point x="811" y="-20"/>
    </contour>
    <contour>
      <point x="729" y="1190" type="curve" smooth="yes"/>
      <point x="541" y="1190"/>
      <point x="383" y="1033"/>
      <point x="315" y="650" type="curve" smooth="yes"/>
      <point x="246" y="257"/>
      <point x="330" y="110"/>
      <point x="538" y="110" type="curve" smooth="yes"/>
      <point x="746" y="110"/>
      <point x="885" y="257"/>
      <point x="954" y="650" type="curve" smooth="yes"/>
      <point x="1022" y="1033"/>
      <point x="917" y="1190"/>
    </contour>
  </outline>
</glyph>
<glyph name="one" format="2">
  <advance width="1200"/>
  <unicode hex="0031"/>
  <outline>
    <contour>
      <point x="100" y="0" type="line"/>
      <point x="123" y="130" type="line"/>
      <point x="513" y="130" type="line"/>
      <point x="696" y="1170" type="line"/>
      <point x="316" y="1170" type="line"/>
      <point x="339" y="1300" type="line"/>
      <point x="888" y="1300" type="line"/>
      <point x="682" y="130" type="line"/>
      <point x="1023" y="130" type="line"/>
      <point x="1000" y="0" type="line"/>
    </contour>
  </outline>
</glyph>
<glyph name="two" format="2">
  <advance width="1200"/>
  <unicode hex="0032"/>
  <outline>
    <contour>
      <point x="194" y="929" type="line"/>
      <point x="301" y="1139"/>
      <point x="505" y="1320"/>
      <point x="781" y="1320" type="curve" smooth="yes"/>
      <point x="997" y="1320"/>
      <point x="1113" y="1161"/>
      <point x="1083" y="990" type="curve" smooth="yes"/>
      <point x="1044" y="768"/>
      <point x="795" y="627"/>
      <point x="613" y="511" type="curve" smooth="yes"/>
      <point x="480" y="427"/>
      <point x="270" y="295"/>
      <point x="161" y="130" type="curve"/>
      <point x="942" y="130" type="line"/>
      <point x="919" y="0" type="line"/>
      <point x="29" y="0" type="line"/>
      <point x="-3" y="100" type="line"/>
      <point x="68" y="273"/>
      <point x="349" y="505"/>
      <point x="574" y="642" type="curve" smooth="yes"/>
      <point x="740" y="742"/>
      <point x="906" y="871"/>
      <point x="931" y="1011" type="curve" smooth="yes"/>
      <point x="951" y="1124"/>
      <point x="870" y="1180"/>
      <point x="739" y="1180" type="curve" smooth="yes"/>
      <point x="561" y="1180"/>
      <point x="415" y="1022"/>
      <point x="330" y="879" type="curve"/>
    </contour>
  </outline>
</glyph>
<glyph name="three" format="2">
  <advance width="1200"/>
  <unicode hex="0033"/>
  <outline>
    <contour>
      <point x="620" y="780" type="line" smooth="yes"/>
      <point x="808" y="843"/>
      <point x="921" y="907"/>
      <point x="943" y="1030" type="curve" smooth="yes"/>
      <point x="963" y="1143"/>
      <point x="901" y="1194"/>
      <point x="763" y="1194" type="curve"/>
      <point x="765" y="1320" type="line"/>
      <point x="1011" y="1320"/>
      <point x="1132" y="1186"/>
      <point x="1104" y="1030" type="curve" smooth="yes"/>
      <point x="1081" y="899"/>
      <point x="953" y="813"/>
      <point x="818" y="760" type="curve"/>
      <point x="1020" y="758"/>
      <point x="1103" y="645"/>
      <point x="1074" y="480" type="curve" smooth="yes"/>
      <point x="1017" y="154"/>
      <point x="636" y="-73"/>
      <point x="61" y="-233" type="curve"/>
      <point x="38" y="-105" type="line"/>
      <point x="532" y="45"/>
      <point x="865" y="192"/>
      <point x="917" y="485" type="curve" smooth="yes"/>
      <point x="942" y="628"/>
      <point x="855" y="692"/>
      <point x="677" y="650" type="curve" smooth="yes"/>
      <point x="507" y="610" type="line"/>
      <point x="499" y="740" type="line"/>
    </contour>
    <contour>
      <point x="377" y="984" type="curve"/>
      <point x="258" y="1049" type="line"/>
      <point x="353" y="1189"/>
      <point x="549" y="1320"/>
      <point x="765" y="1320" type="curve"/>
      <point x="763" y="1194" type="line"/>
      <point x="615" y="1194"/>
      <point x="447" y="1087"/>
    </contour>
  </outline>
</glyph>
<glyph name="four" format="2">
  <advance width="1200"/>
  <unicode hex="0034"/>
  <outline>
    <contour>
      <point x="616" y="-220" type="line"/>
      <point x="763" y="610" type="line"/>
      <point x="907" y="610" type="line"/>
      <point x="760" y="-220" type="line"/>
    </contour>
    <contour>
      <point x="134" y="200" type="curve"/>
      <point x="1065" y="200" type="line"/>
      <point x="1042" y="70" type="line"/>
      <point x="2" y="70" type="line"/>
      <point x="-45" y="200" type="line"/>
      <point x="308" y="560"/>
      <point x="580" y="850"/>
      <point x="750" y="1360" type="curve"/>
      <point x="910" y="1360" type="line"/>
      <point x="740" y="850"/>
      <point x="487" y="560"/>
    </contour>
  </outline>
</glyph>
<glyph name="five" format="2">
  <advance width="1200"/>
  <unicode hex="0035"/>
  <outline>
    <contour>
      <point x="793" y="845" type="line"/>
      <point x="1026" y="844"/>
      <point x="1139" y="695"/>
      <point x="1101" y="480" type="curve" smooth="yes"/>
      <point x="1038" y="124"/>
      <point x="579" y="-110"/>
      <point x="53" y="-220" type="curve"/>
      <point x="46" y="-90" type="line"/>
      <point x="490" y="0"/>
      <point x="895" y="252"/>
      <point x="938" y="495" type="curve" smooth="yes"/>
      <point x="961" y="628"/>
      <point x="906" y="705"/>
      <point x="738" y="705" type="curve"/>
    </contour>
    <contour>
      <point x="449" y="1300" type="line"/>
      <point x="1189" y="1300" type="line"/>
      <point x="1165" y="1160" type="line"/>
      <point x="425" y="1160" type="line"/>
    </contour>
    <contour>
      <point x="184" y="564" type="line"/>
      <point x="449" y="1300" type="line"/>
      <point x="583" y="1270" type="line"/>
      <point x="327" y="573" type="line"/>
      <point x="253" y="546" type="line"/>
      <point x="401" y="706"/>
      <point x="579" y="845"/>
      <point x="793" y="845" type="curve"/>
      <point x="738" y="705" type="line"/>
      <point x="580" y="705"/>
      <point x="419" y="606"/>
      <point x="313" y="513" type="curve"/>
    </contour>
  </outline>
</glyph>
<glyph name="six" format="2">
  <advance width="1200"/>
  <unicode hex="0036"/>
  <outline>
    <contour>
      <point x="1081" y="1396" type="line"/>
      <point x="735" y="1214"/>
      <point x="348" y="934"/>
      <point x="279" y="540" type="curve"/>
      <point x="236" y="529" type="line"/>
      <point x="339" y="733"/>
      <point x="519" y="900"/>
      <point x="761" y="900" type="curve" smooth="yes"/>
      <point x="983" y="900"/>
      <point x="1184" y="740"/>
      <point x="1128" y="420" type="curve" smooth="yes"/>
      <point x="1079" y="140"/>
      <point x="846" y="-20"/>
      <point x="564" y="-20" type="curve" smooth="yes"/>
      <point x="262" y="-20"/>
      <point x="73" y="210"/>
      <point x="133" y="550" type="curve" smooth="yes"/>
      <point x="222" y="1052"/>
      <point x="672" y="1340"/>
      <point x="1001" y="1520" type="curve"/>
    </contour>
    <contour>
      <point x="970" y="450" type="curve" smooth="yes"/>
      <point x="1010" y="678"/>
      <point x="870" y="762"/>
      <point x="702" y="762" type="curve" smooth="yes"/>
      <point x="516" y="762"/>
      <point x="323" y="600"/>
      <point x="295" y="440" type="curve" smooth="yes"/>
      <point x="260" y="242"/>
      <point x="361" y="120"/>
      <point x="579" y="120" type="curve" smooth="yes"/>
      <point x="767" y="120"/>
      <point x="935" y="252"/>
    </contour>
  </outline>
</glyph>
<glyph name="seven" format="2">
  <advance width="1200"/>
  <unicode hex="0037"/>
  <outline>
    <contour>
      <point x="1239" y="1300" type="line"/>
      <point x="1280" y="1190" type="line"/>
      <point x="927" y="830"/>
      <point x="501" y="290"/>
      <point x="341" y="-220" type="curve"/>
      <point x="206" y="-190" type="line"/>
      <point x="376" y="320"/>
      <point x="734" y="810"/>
      <point x="1087" y="1170" type="curve"/>
      <point x="415" y="1170" type="line"/>
      <point x="291" y="860" type="line"/>
      <point x="172" y="860" type="line"/>
      <point x="289" y="1300" type="line"/>
    </contour>
  </outline>
</glyph>
<glyph name="eight" format="2">
  <advance width="1200"/>
  <unicode hex="0038"/>
  <outline>
    <contour>
      <point x="639" y="711" type="curve" smooth="yes"/>
      <point x="403" y="711"/>
      <point x="267" y="805"/>
      <point x="273" y="991" type="curve" smooth="yes"/>
      <point x="280.071" y="1210.2"/>
      <point x="510" y="1321"/>
      <point x="727" y="1321" type="curve" smooth="yes"/>
      <point x="944" y="1321"/>
      <point x="1159" y="1217"/>
      <point x="1121" y="1001" type="curve" smooth="yes"/>
      <point x="1083" y="785"/>
      <point x="875" y="711"/>
    </contour>
    <contour>
      <point x="725" y="1196" type="curve" smooth="yes"/>
      <point x="597" y="1196"/>
      <point x="448" y="1124"/>
      <point x="425" y="991" type="curve" smooth="yes"/>
      <point x="405" y="878"/>
      <point x="526" y="796"/>
      <point x="654" y="796" type="curve" smooth="yes"/>
      <point x="792" y="796"/>
      <point x="943" y="868"/>
      <point x="965" y="991" type="curve" smooth="yes"/>
      <point x="988" y="1124"/>
      <point x="863" y="1196"/>
    </contour>
    <contour>
      <point x="530" y="-20" type="curve" smooth="yes"/>
      <point x="254" y="-20"/>
      <point x="36" y="134"/>
      <point x="79" y="380" type="curve" smooth="yes"/>
      <point x="122" y="626"/>
      <point x="390" y="756"/>
      <point x="647" y="756" type="curve" smooth="yes"/>
      <point x="904" y="756"/>
      <point x="1120" y="606"/>
      <point x="1077" y="360" type="curve" smooth="yes"/>
      <point x="1034" y="114"/>
      <point x="806" y="-20"/>
    </contour>
    <contour>
      <point x="631" y="661" type="curve" smooth="yes"/>
      <point x="463" y="661"/>
      <point x="278" y="553"/>
      <point x="247" y="380" type="curve" smooth="yes"/>
      <point x="215" y="197"/>
      <point x="346" y="115"/>
      <point x="534" y="115" type="curve" smooth="yes"/>
      <point x="722" y="115"/>
      <point x="885" y="197"/>
      <point x="917" y="380" type="curve" smooth="yes"/>
      <point x="948" y="553"/>
      <point x="799" y="661"/>
    </contour>
  </outline>
</glyph>
<glyph name="colon" format="2">
  <advance width="1200"/>
  <unicode hex="003A"/>
  <outline>
    <contour>
      <point x="511" y="790" type="curve" smooth="yes"/>
      <point x="511" y="878"/>
      <point x="572" y="940"/>
      <point x="660" y="940" type="curve" smooth="yes"/>
      <point x="748" y="940"/>
      <point x="809" y="878"/>
      <point x="809" y="790" type="curve" smooth="yes"/>
      <point x="809" y="702"/>
      <point x="753" y="640"/>
      <point x="665" y="640" type="curve" smooth="yes"/>
      <point x="577" y="640"/>
      <point x="511" y="702"/>
    </contour>
    <contour>
      <point x="391" y="130" type="curve" smooth="yes"/>
      <point x="391" y="218"/>
      <point x="452" y="280"/>
      <point x="540" y="280" type="curve" smooth="yes"/>
      <point x="628" y="280"/>
      <point x="689" y="218"/>
      <point x="689" y="130" type="curve" smooth="yes"/>
      <point x="689" y="42"/>
      <point x="633" y="-20"/>
      <point x="545" y="-20" type="curve" smooth="yes"/>
      <point x="457" y="-20"/>
      <point x="391" y="42"/>
    </contour>
  </outline>
</glyph>
<glyph name="semicolon" format="2">
  <advance width="1200"/>
  <unicode hex="003B"/>
  <outline>
    <contour>
      <point x="324" y="-320" type="line"/>
      <point x="470" y="290" type="line"/>
      <point x="680" y="290" type="line"/>
      <point x="444" y="-320" type="line"/>
    </contour>
    <contour>
      <point x="511" y="790" type="curve" smooth="yes"/>
      <point x="511" y="878"/>
      <point x="572" y="940"/>
      <point x="660" y="940" type="curve" smooth="yes"/>
      <point x="748" y="940"/>
      <point x="809" y="878"/>
      <point x="809" y="790" type="curve" smooth="yes"/>
      <point x="809" y="702"/>
      <point x="753" y="640"/>
      <point x="665" y="640" type="curve" smooth="yes"/>
      <point x="577" y="640"/>
      <point x="511" y="702"/>
    </contour>
  </outline>
</glyph>
<glyph name="less" format="2">
  <advance width="1200"/>
  <unicode hex="003C"/>
  <outline>
    <contour>
      <point x="285" y="770" type="line"/>
      <point x="1038" y="1060" type="line"/>
      <point x="1055" y="930" type="line"/>
      <point x="369" y="675" type="line"/>
      <point x="965" y="420" type="line"/>
      <point x="912" y="300" type="line"/>
      <point x="261" y="590" type="line"/>
    </contour>
  </outline>
</glyph>
<glyph name="equal" format="2">
  <advance width="1200"/>
  <unicode hex="003D"/>
  <outline>
    <contour>
      <point x="309" y="910" type="line"/>
      <point x="1051" y="910" type="line"/>
      <point x="1029" y="780" type="line"/>
      <point x="287" y="780" type="line"/>
    </contour>
    <contour>
      <point x="250" y="570" type="line"/>
      <point x="992" y="570" type="line"/>
      <point x="969" y="440" type="line"/>
      <point x="227" y="440" type="line"/>
    </contour>
  </outline>
</glyph>
<glyph name="greater" format="2">
  <advance width="1200"/>
  <unicode hex="003E"/>
  <outline>
    <contour>
      <point x="1027" y="760" type="line"/>
      <point x="993" y="570" type="line"/>
      <point x="240" y="280" type="line"/>
      <point x="223" y="420" type="line"/>
      <point x="909" y="675" type="line"/>
      <point x="313" y="930" type="line"/>
      <point x="376" y="1050" type="line"/>
    </contour>
  </outline>
</glyph>
<glyph name="question" format="2">
  <advance width="1200"/>
  <unicode hex="003F"/>
  <outline>
    <contour>
      <point x="348" y="933" type="curve"/>
      <point x="233" y="999" type="line"/>
      <point x="333" y="1149"/>
      <point x="556" y="1320"/>
      <point x="852" y="1320" type="curve"/>
      <point x="802" y="1180" type="line"/>
      <point x="634" y="1180"/>
      <point x="460" y="1076"/>
    </contour>
    <contour>
      <point x="391" y="130" type="curve" smooth="yes"/>
      <point x="391" y="218"/>
      <point x="452" y="280"/>
      <point x="540" y="280" type="curve" smooth="yes"/>
      <point x="628" y="280"/>
      <point x="689" y="218"/>
      <point x="689" y="130" type="curve" smooth="yes"/>
      <point x="689" y="42"/>
      <point x="633" y="-20"/>
      <point x="545" y="-20" type="curve" smooth="yes"/>
      <point x="457" y="-20"/>
      <point x="391" y="42"/>
    </contour>
    <contour>
      <point x="981" y="1060" type="curve" smooth="yes"/>
      <point x="981" y="1143"/>
      <point x="910" y="1180"/>
      <point x="802" y="1180" type="curve"/>
      <point x="852" y="1320" type="line"/>
      <point x="1078" y="1320"/>
      <point x="1181" y="1246"/>
      <point x="1181" y="1080" type="curve" smooth="yes"/>
      <point x="1181" y="886"/>
      <point x="986" y="771"/>
      <point x="824" y="669" type="curve" smooth="yes"/>
      <point x="712" y="598"/>
      <point x="654" y="546"/>
      <point x="621" y="431" type="curve"/>
      <point x="501" y="482" type="line"/>
      <point x="522" y="596"/>
      <point x="604" y="682"/>
      <point x="706" y="750" type="curve" smooth="yes"/>
      <point x="831" y="834"/>
      <point x="981" y="920"/>
    </contour>
  </outline>
</glyph>
<glyph name="at" format="2">
  <advance width="1200"/>
  <unicode hex="0040"/>
  <outline>
    <contour>
      <point x="73" y="550" type="curve" smooth="yes"/>
      <point x="145" y="958"/>
      <point x="445" y="1320"/>
      <point x="853" y="1320" type="curve" smooth="yes"/>
      <point x="1181" y="1320"/>
      <point x="1244" y="1098"/>
      <point x="1193" y="810" type="curve" smooth="yes"/>
      <point x="1147" y="548"/>
      <point x="1025" y="300"/>
      <point x="855" y="300" type="curve" smooth="yes"/>
      <point x="733" y="300"/>
      <point x="694" y="408"/>
      <point x="737" y="540" type="curve"/>
      <point x="754" y="540" type="line"/>
      <point x="747" y="442"/>
      <point x="632" y="320"/>
      <point x="512" y="320" type="curve" smooth="yes"/>
      <point x="406" y="320"/>
      <point x="308" y="406"/>
      <point x="338" y="574" type="curve" smooth="yes"/>
      <point x="387" y="852"/>
      <point x="684" y="1040"/>
      <point x="924" y="1040" type="curve"/>
      <point x="982" y="991" type="line"/>
      <point x="850" y="578" type="line" smooth="yes"/>
      <point x="814" y="466"/>
      <point x="806" y="412"/>
      <point x="865" y="412" type="curve" smooth="yes"/>
      <point x="965" y="412"/>
      <point x="1044" y="648"/>
      <point x="1076" y="830" type="curve" smooth="yes"/>
      <point x="1116" y="1056"/>
      <point x="1069" y="1210"/>
      <point x="863" y="1210" type="curve" smooth="yes"/>
      <point x="517" y="1210"/>
      <point x="264" y="876"/>
      <point x="207" y="550" type="curve" smooth="yes"/>
      <point x="158" y="274"/>
      <point x="232" y="100"/>
      <point x="518" y="100" type="curve" smooth="yes"/>
      <point x="628" y="100"/>
      <point x="763" y="120"/>
      <point x="878" y="194" type="curve"/>
      <point x="930" y="95" type="line"/>
      <point x="817" y="23"/>
      <point x="664" y="-20"/>
      <point x="526" y="-20" type="curve" smooth="yes"/>
      <point x="148" y="-20"/>
      <point x="15" y="222"/>
    </contour>
    <contour>
      <point x="763" y="696" type="curve"/>
      <point x="844" y="948" type="line"/>
      <point x="636" y="927"/>
      <point x="513" y="742"/>
      <point x="484" y="580" type="curve" smooth="yes"/>
      <point x="466" y="478"/>
      <point x="505" y="450"/>
      <point x="555" y="450" type="curve" smooth="yes"/>
      <point x="611" y="450"/>
      <point x="699" y="516"/>
    </contour>
  </outline>
</glyph>
<glyph name="A" format="2">
  <advance width="1200"/>
  <unicode hex="0041"/>
  <anchor x="748" y="1300" name="Anchor-0"/>
  <anchor x="519" y="0" name="Anchor-2"/>
  <anchor x="965" y="-20" name="Anchor-3"/>
  <outline>
    <contour>
      <point x="380" y="1300" type="line"/>
      <point x="679" y="1300" type="line"/>
      <point x="660" y="1190" type="line"/>
      <point x="357" y="1170" type="line"/>
    </contour>
    <contour>
      <point x="160" y="-20" type="line"/>
      <point x="-17" y="-20" type="line"/>
      <point x="679" y="1300" type="line"/>
      <point x="879" y="1300" type="line"/>
      <point x="1049" y="-20" type="line"/>
      <point x="882" y="-20" type="line"/>
      <point x="752" y="1230" type="line"/>
      <point x="792" y="1230" type="line"/>
    </contour>
    <contour>
      <point x="327" y="500" type="line"/>
      <point x="890" y="500" type="line"/>
      <point x="867" y="370" type="line"/>
      <point x="304" y="370" type="line"/>
    </contour>
  </outline>
</glyph>
<glyph name="B" format="2">
  <advance width="1200"/>
  <unicode hex="0042"/>
  <anchor x="506" y="0" name="Anchor-2"/>
  <anchor x="663" y="1300" name="Anchor-0"/>
  <outline>
    <contour>
      <point x="376" y="1170" type="line"/>
      <point x="206" y="1170" type="line"/>
      <point x="229" y="1300" type="line"/>
      <point x="721" y="1300" type="line" smooth="yes"/>
      <point x="1027" y="1300"/>
      <point x="1162" y="1166"/>
      <point x="1126" y="960" type="curve" smooth="yes"/>
      <point x="1084" y="724"/>
      <point x="897" y="670"/>
      <point x="610" y="670" type="curve"/>
      <point x="684" y="690" type="line"/>
      <point x="990" y="690"/>
      <point x="1125" y="586"/>
      <point x="1083" y="350" type="curve" smooth="yes"/>
      <point x="1045" y="134"/>
      <point x="849" y="0"/>
      <point x="562" y="0" type="curve" smooth="yes"/>
      <point x="0" y="0" type="line"/>
      <point x="23" y="130" type="line"/>
      <point x="193" y="130" type="line"/>
    </contour>
    <contour>
      <point x="352" y="130" type="line"/>
      <point x="585" y="130" type="line" smooth="yes"/>
      <point x="793" y="130"/>
      <point x="893" y="242"/>
      <point x="915" y="365" type="curve" smooth="yes"/>
      <point x="938" y="498"/>
      <point x="888" y="610"/>
      <point x="670" y="610" type="curve" smooth="yes"/>
      <point x="437" y="610" type="line"/>
    </contour>
    <contour>
      <point x="622" y="740" type="line" smooth="yes"/>
      <point x="810" y="740"/>
      <point x="927" y="827"/>
      <point x="949" y="950" type="curve" smooth="yes"/>
      <point x="972" y="1083"/>
      <point x="906" y="1170"/>
      <point x="698" y="1170" type="curve" smooth="yes"/>
      <point x="535" y="1170" type="line"/>
      <point x="459" y="740" type="line"/>
    </contour>
  </outline>
</glyph>
<glyph name="C" format="2">
  <advance width="1200"/>
  <unicode hex="0043"/>
  <anchor x="526" y="0" name="Anchor-3"/>
  <anchor x="527" y="0" name="Anchor-2"/>
  <anchor x="795" y="1300" name="Anchor-0"/>
  <outline>
    <contour>
      <point x="915" y="380" type="curve"/>
      <point x="1060" y="350" type="line"/>
      <point x="975" y="154"/>
      <point x="802" y="-20"/>
      <point x="515" y="-20" type="curve" smooth="yes"/>
      <point x="219" y="-20"/>
      <point x="78" y="244"/>
      <point x="155" y="680" type="curve" smooth="yes"/>
      <point x="230" y="1106"/>
      <point x="485" y="1320"/>
      <point x="732" y="1320" type="curve" smooth="yes"/>
      <point x="1009" y="1320"/>
      <point x="1053" y="1106"/>
      <point x="1037" y="900" type="curve"/>
      <point x="986" y="950" type="line"/>
      <point x="1076" y="1300" type="line"/>
      <point x="1206" y="1300" type="line"/>
      <point x="1130" y="870" type="line"/>
      <point x="971" y="870" type="line"/>
      <point x="955" y="1063"/>
      <point x="905" y="1180"/>
      <point x="747" y="1180" type="curve" smooth="yes"/>
      <point x="569" y="1180"/>
      <point x="381" y="1023"/>
      <point x="315" y="650" type="curve" smooth="yes"/>
      <point x="247" y="267"/>
      <point x="374" y="130"/>
      <point x="572" y="130" type="curve" smooth="yes"/>
      <point x="760" y="130"/>
      <point x="853" y="256"/>
    </contour>
  </outline>
</glyph>
<glyph name="D" format="2">
  <advance width="1200"/>
  <unicode hex="0044"/>
  <anchor x="433" y="0" name="Anchor-2"/>
  <anchor x="663" y="1300" name="Anchor-0"/>
  <outline>
    <contour>
      <point x="-40" y="0" type="line"/>
      <point x="-17" y="130" type="line"/>
      <point x="153" y="130" type="line"/>
      <point x="336" y="1170" type="line"/>
      <point x="166" y="1170" type="line"/>
      <point x="189" y="1300" type="line"/>
      <point x="701" y="1300" type="line" smooth="yes"/>
      <point x="1037" y="1300"/>
      <point x="1202" y="1006"/>
      <point x="1136" y="630" type="curve" smooth="yes"/>
      <point x="1071" y="264"/>
      <point x="789" y="0"/>
      <point x="472" y="0" type="curve" smooth="yes"/>
    </contour>
    <contour>
      <point x="312" y="130" type="line"/>
      <point x="455" y="130" type="line" smooth="yes"/>
      <point x="693" y="130"/>
      <point x="909" y="327"/>
      <point x="966" y="650" type="curve" smooth="yes"/>
      <point x="1025" y="983"/>
      <point x="896" y="1170"/>
      <point x="638" y="1170" type="curve" smooth="yes"/>
      <point x="495" y="1170" type="line"/>
    </contour>
  </outline>
</glyph>
<glyph name="E" format="2">
  <advance width="1200"/>
  <unicode hex="0045"/>
  <anchor x="876" y="0" name="Anchor-3"/>
  <anchor x="466" y="0" name="Anchor-2"/>
  <anchor x="723" y="1300" name="Anchor-0"/>
  <outline>
    <contour>
      <point x="831" y="740" type="line"/>
      <point x="808" y="605" type="line"/>
      <point x="447" y="615" type="line"/>
      <point x="362" y="130" type="line"/>
      <point x="851" y="130" type="line"/>
      <point x="940" y="450" type="line"/>
      <point x="1059" y="450" type="line"/>
      <point x="980" y="0" type="line"/>
      <point x="-10" y="0" type="line"/>
      <point x="13" y="130" type="line"/>
      <point x="193" y="130" type="line"/>
      <point x="376" y="1170" type="line"/>
      <point x="196" y="1170" type="line"/>
      <point x="219" y="1300" type="line"/>
      <point x="1169" y="1300" type="line"/>
      <point x="1139" y="900" type="line"/>
      <point x="1020" y="900" type="line"/>
      <point x="997" y="1170" type="line"/>
      <point x="545" y="1170" type="line"/>
      <point x="468" y="730" type="line"/>
    </contour>
  </outline>
</glyph>
<glyph name="F" format="2">
  <advance width="1200"/>
  <unicode hex="0046"/>
  <anchor x="296" y="0" name="Anchor-2"/>
  <anchor x="753" y="1300" name="Anchor-0"/>
  <outline>
    <contour>
      <point x="856" y="710" type="line"/>
      <point x="832" y="575" type="line"/>
      <point x="462" y="585" type="line"/>
      <point x="382" y="130" type="line"/>
      <point x="642" y="130" type="line"/>
      <point x="619" y="0" type="line"/>
      <point x="20" y="0" type="line"/>
      <point x="43" y="130" type="line"/>
      <point x="213" y="130" type="line"/>
      <point x="396" y="1170" type="line"/>
      <point x="226" y="1170" type="line"/>
      <point x="249" y="1300" type="line"/>
      <point x="1199" y="1300" type="line"/>
      <point x="1162" y="860" type="line"/>
      <point x="1043" y="860" type="line"/>
      <point x="1027" y="1170" type="line"/>
      <point x="565" y="1170" type="line"/>
      <point x="482" y="700" type="line"/>
    </contour>
  </outline>
</glyph>
<glyph name="G" format="2">
  <advance width="1200"/>
  <unicode hex="0047"/>
  <anchor x="557" y="0" name="Anchor-2"/>
  <anchor x="835" y="1300" name="Anchor-0"/>
  <outline>
    <contour>
      <point x="906" y="500" type="curve"/>
      <point x="986" y="440" type="line"/>
      <point x="928" y="224"/>
      <point x="782" y="-20"/>
      <point x="495" y="-20" type="curve" smooth="yes"/>
      <point x="199" y="-20"/>
      <point x="58" y="244"/>
      <point x="135" y="680" type="curve" smooth="yes"/>
      <point x="210" y="1106"/>
      <point x="465" y="1320"/>
      <point x="712" y="1320" type="curve" smooth="yes"/>
      <point x="989" y="1320"/>
      <point x="1033" y="1106"/>
      <point x="1017" y="900" type="curve"/>
      <point x="966" y="950" type="line"/>
      <point x="1056" y="1300" type="line"/>
      <point x="1186" y="1300" type="line"/>
      <point x="1110" y="870" type="line"/>
      <point x="951" y="870" type="line"/>
      <point x="935" y="1063"/>
      <point x="885" y="1180"/>
      <point x="727" y="1180" type="curve" smooth="yes"/>
      <point x="549" y="1180"/>
      <point x="371" y="1023"/>
      <point x="305" y="650" type="curve" smooth="yes"/>
      <point x="237" y="267"/>
      <point x="362" y="120"/>
      <point x="540" y="120" type="curve" smooth="yes"/>
      <point x="708" y="120"/>
      <point x="856" y="216"/>
    </contour>
    <contour>
      <point x="646" y="620" type="line"/>
      <point x="1086" y="620" type="line"/>
      <point x="977" y="0" type="line"/>
      <point x="867" y="0" type="line"/>
      <point x="906" y="500" type="line"/>
      <point x="625" y="500" type="line"/>
    </contour>
  </outline>
</glyph>
<glyph name="I" format="2">
  <advance width="1200"/>
  <unicode hex="0049"/>
  <anchor x="522" y="0" name="Anchor-3"/>
  <anchor x="522" y="0" name="Anchor-2"/>
  <anchor x="735" y="1300" name="Anchor-0"/>
  <outline>
    <contour>
      <point x="70" y="0" type="line"/>
      <point x="93" y="130" type="line"/>
      <point x="458" y="130" type="line"/>
      <point x="641" y="1170" type="line"/>
      <point x="286" y="1170" type="line"/>
      <point x="309" y="1300" type="line"/>
      <point x="1189" y="1300" type="line"/>
      <point x="1166" y="1170" type="line"/>
      <point x="811" y="1170" type="line"/>
      <point x="628" y="130" type="line"/>
      <point x="993" y="130" type="line"/>
      <point x="970" y="0" type="line"/>
    </contour>
  </outline>
</glyph>
<glyph name="J" format="2">
  <advance width="1200"/>
  <unicode hex="004A"/>
  <anchor x="418" y="0" name="Anchor-2"/>
  <anchor x="915" y="1300" name="Anchor-0"/>
  <outline>
    <contour>
      <point x="82" y="350" type="curve"/>
      <point x="242" y="350" type="line"/>
      <point x="239" y="217"/>
      <point x="298" y="124"/>
      <point x="436" y="124" type="curve" smooth="yes"/>
      <point x="584" y="124"/>
      <point x="717" y="217"/>
      <point x="755" y="430" type="curve" smooth="yes"/>
      <point x="886" y="1170" type="line"/>
      <point x="667" y="1170" type="line"/>
      <point x="690" y="1300" type="line"/>
      <point x="1259" y="1300" type="line"/>
      <point x="1236" y="1170" type="line"/>
      <point x="1046" y="1170" type="line"/>
      <point x="915" y="430" type="line" smooth="yes"/>
      <point x="870" y="174"/>
      <point x="711" y="-20"/>
      <point x="445" y="-20" type="curve" smooth="yes"/>
      <point x="199" y="-20"/>
      <point x="56" y="144"/>
    </contour>
  </outline>
</glyph>
<glyph name="K" format="2">
  <advance width="1200"/>
  <unicode hex="004B"/>
  <anchor x="581" y="0" name="Anchor-2"/>
  <anchor x="775" y="1300" name="Anchor-0"/>
  <outline>
    <contour>
      <point x="568" y="668" type="line"/>
      <point x="677" y="770" type="line"/>
      <point x="968" y="130" type="line"/>
      <point x="1123" y="130" type="line"/>
      <point x="1100" y="0" type="line"/>
      <point x="631" y="0" type="line"/>
      <point x="654" y="130" type="line"/>
      <point x="803" y="130" type="line"/>
    </contour>
    <contour>
      <point x="810" y="1300" type="line"/>
      <point x="1289" y="1300" type="line"/>
      <point x="1266" y="1170" type="line"/>
      <point x="1098" y="1170" type="line"/>
      <point x="371" y="460" type="line"/>
      <point x="313" y="130" type="line"/>
      <point x="472" y="130" type="line"/>
      <point x="449" y="0" type="line"/>
      <point x="-10" y="0" type="line"/>
      <point x="13" y="130" type="line"/>
      <point x="163" y="130" type="line"/>
      <point x="346" y="1170" type="line"/>
      <point x="196" y="1170" type="line"/>
      <point x="219" y="1300" type="line"/>
      <point x="658" y="1300" type="line"/>
      <point x="635" y="1170" type="line"/>
      <point x="496" y="1170" type="line"/>
      <point x="402" y="649" type="line"/>
      <point x="908" y="1170" type="line"/>
      <point x="787" y="1170" type="line"/>
    </contour>
  </outline>
</glyph>
<glyph name="L" format="2">
  <advance width="1200"/>
  <unicode hex="004C"/>
  <anchor x="536" y="0" name="Anchor-2"/>
  <anchor x="875" y="943" name="Anchor-1"/>
  <anchor x="493" y="1300" name="Anchor-0"/>
  <outline>
    <contour>
      <point x="1008" y="550" type="line"/>
      <point x="1117" y="550" type="line"/>
      <point x="1000" y="0" type="line"/>
      <point x="-10" y="0" type="line"/>
      <point x="13" y="130" type="line"/>
      <point x="203" y="130" type="line"/>
      <point x="388" y="1180" type="line"/>
      <point x="218" y="1180" type="line"/>
      <point x="239" y="1300" type="line"/>
      <point x="768" y="1300" type="line"/>
      <point x="747" y="1180" type="line"/>
      <point x="547" y="1180" type="line"/>
      <point x="362" y="130" type="line"/>
      <point x="868" y="130" type="line"/>
    </contour>
  </outline>
</glyph>
<glyph name="M" format="2">
  <advance width="1200"/>
  <unicode hex="004D"/>
  <anchor x="526" y="0" name="Anchor-2"/>
  <anchor x="755" y="1300" name="Anchor-0"/>
  <outline>
    <contour>
      <point x="284" y="1170" type="line"/>
      <point x="126" y="1170" type="line"/>
      <point x="149" y="1300" type="line"/>
      <point x="532" y="1300" type="line"/>
      <point x="650" y="480" type="line"/>
      <point x="560" y="480" type="line"/>
      <point x="956" y="1300" type="line"/>
      <point x="1349" y="1300" type="line"/>
      <point x="1326" y="1170" type="line"/>
      <point x="1168" y="1170" type="line"/>
      <point x="1001" y="130" type="line"/>
      <point x="1143" y="130" type="line"/>
      <point x="1120" y="0" type="line"/>
      <point x="651" y="0" type="line"/>
      <point x="674" y="130" type="line"/>
      <point x="857" y="130" type="line"/>
      <point x="947" y="724" type="line"/>
      <point x="1066" y="1204" type="line"/>
      <point x="622" y="350" type="line"/>
      <point x="562" y="350" type="line"/>
      <point x="398" y="1204" type="line"/>
      <point x="349" y="724" type="line"/>
      <point x="229" y="130" type="line"/>
      <point x="412" y="130" type="line"/>
      <point x="389" y="0" type="line"/>
      <point x="-80" y="0" type="line"/>
      <point x="-57" y="130" type="line"/>
      <point x="85" y="130" type="line"/>
    </contour>
  </outline>
</glyph>
<glyph name="N" format="2">
  <advance width="1200"/>
  <unicode hex="004E"/>
  <anchor x="546" y="0" name="Anchor-2"/>
  <anchor x="785" y="1300" name="Anchor-0"/>
  <outline>
    <contour>
      <point x="345" y="1160" type="line"/>
      <point x="187" y="1160" type="line"/>
      <point x="211" y="1300" type="line"/>
      <point x="369" y="1300" type="line"/>
    </contour>
    <contour>
      <point x="369" y="1300" type="line"/>
      <point x="617" y="1300" type="line"/>
      <point x="896" y="313" type="line"/>
      <point x="1074" y="1320" type="line"/>
      <point x="1223" y="1320" type="line"/>
      <point x="986" y="-20" type="line"/>
      <point x="858" y="-20" type="line"/>
      <point x="566" y="987" type="line"/>
      <point x="478" y="1197" type="line"/>
      <point x="455" y="997" type="line"/>
      <point x="275" y="-20" type="line"/>
      <point x="136" y="-20" type="line"/>
    </contour>
  </outline>
</glyph>
<glyph name="O" format="2">
  <advance width="1200"/>
  <unicode hex="004F"/>
  <anchor x="519" y="0" name="Anchor-2"/>
  <anchor x="748" y="1300" name="Anchor-0"/>
  <outline>
    <contour>
      <point x="515" y="-20" type="curve" smooth="yes"/>
      <point x="199" y="-20"/>
      <point x="58" y="244"/>
      <point x="135" y="680" type="curve" smooth="yes"/>
      <point x="210" y="1106"/>
      <point x="455" y="1320"/>
      <point x="752" y="1320" type="curve" smooth="yes"/>
      <point x="1049" y="1320"/>
      <point x="1209" y="1046"/>
      <point x="1134" y="620" type="curve" smooth="yes"/>
      <point x="1057" y="184"/>
      <point x="831" y="-20"/>
    </contour>
    <contour>
      <point x="727" y="1180" type="curve" smooth="yes"/>
      <point x="539" y="1180"/>
      <point x="357" y="1003"/>
      <point x="295" y="650" type="curve" smooth="yes"/>
      <point x="231" y="287"/>
      <point x="332" y="120"/>
      <point x="540" y="120" type="curve" smooth="yes"/>
      <point x="748" y="120"/>
      <point x="910" y="287"/>
      <point x="974" y="650" type="curve" smooth="yes"/>
      <point x="1036" y="1003"/>
      <point x="915" y="1180"/>
    </contour>
  </outline>
</glyph>
<glyph name="P" format="2">
  <advance width="1200"/>
  <unicode hex="0050"/>
  <anchor x="282" y="0" name="Anchor-2"/>
  <anchor x="715" y="1300" name="Anchor-0"/>
  <outline>
    <contour>
      <point x="20" y="0" type="line"/>
      <point x="43" y="130" type="line"/>
      <point x="213" y="130" type="line"/>
      <point x="396" y="1170" type="line"/>
      <point x="226" y="1170" type="line"/>
      <point x="249" y="1300" type="line"/>
      <point x="811" y="1300" type="line" smooth="yes"/>
      <point x="1097" y="1300"/>
      <point x="1246" y="1146"/>
      <point x="1201" y="890" type="curve" smooth="yes"/>
      <point x="1158" y="644"/>
      <point x="942" y="530"/>
      <point x="675" y="530" type="curve" smooth="yes"/>
      <point x="442" y="530" type="line"/>
      <point x="372" y="130" type="line"/>
      <point x="612" y="130" type="line"/>
      <point x="589" y="0" type="line"/>
    </contour>
    <contour>
      <point x="465" y="660" type="line"/>
      <point x="698" y="660" type="line" smooth="yes"/>
      <point x="916" y="660"/>
      <point x="1019" y="787"/>
      <point x="1041" y="910" type="curve" smooth="yes"/>
      <point x="1064" y="1043"/>
      <point x="1026" y="1170"/>
      <point x="788" y="1170" type="curve" smooth="yes"/>
      <point x="555" y="1170" type="line"/>
    </contour>
  </outline>
</glyph>
<glyph name="Q" format="2">
  <advance width="1200"/>
  <unicode hex="0051"/>
  <anchor x="748" y="1300" name="Anchor-0"/>
  <outline>
    <contour>
      <point x="211" y="227" type="line"/>
      <point x="257" y="373"/>
      <point x="393" y="472"/>
      <point x="514" y="472" type="curve" smooth="yes"/>
      <point x="883" y="472"/>
      <point x="588" y="-158"/>
      <point x="852" y="-158" type="curve" smooth="yes"/>
      <point x="921" y="-158"/>
      <point x="967" y="-71"/>
      <point x="1010" y="1" type="curve"/>
      <point x="1113" y="-39" type="line"/>
      <point x="1040" y="-171"/>
      <point x="944" y="-278"/>
      <point x="814" y="-278" type="curve" smooth="yes"/>
      <point x="454" y="-278"/>
      <point x="701" y="342"/>
      <point x="480" y="342" type="curve" smooth="yes"/>
      <point x="377" y="342"/>
      <point x="291" y="228"/>
      <point x="273" y="127" type="curve"/>
    </contour>
    <contour>
      <point x="515" y="-20" type="curve" smooth="yes"/>
      <point x="209" y="-20"/>
      <point x="58" y="234"/>
      <point x="135" y="670" type="curve" smooth="yes"/>
      <point x="210" y="1096"/>
      <point x="465" y="1320"/>
      <point x="752" y="1320" type="curve" smooth="yes"/>
      <point x="1039" y="1320"/>
      <point x="1209" y="1056"/>
      <point x="1134" y="630" type="curve" smooth="yes"/>
      <point x="1057" y="194"/>
      <point x="821" y="-20"/>
    </contour>
    <contour>
      <point x="727" y="1180" type="curve" smooth="yes"/>
      <point x="539" y="1180"/>
      <point x="361" y="1023"/>
      <point x="295" y="650" type="curve" smooth="yes"/>
      <point x="227" y="267"/>
      <point x="330" y="110"/>
      <point x="538" y="110" type="curve" smooth="yes"/>
      <point x="746" y="110"/>
      <point x="906" y="267"/>
      <point x="974" y="650" type="curve" smooth="yes"/>
      <point x="1040" y="1023"/>
      <point x="915" y="1180"/>
    </contour>
  </outline>
</glyph>
<glyph name="R" format="2">
  <advance width="1200"/>
  <unicode hex="0052"/>
  <anchor x="506" y="0" name="Anchor-2"/>
  <anchor x="695" y="1300" name="Anchor-0"/>
  <outline>
    <contour>
      <point x="-40" y="0" type="line"/>
      <point x="-17" y="130" type="line"/>
      <point x="143" y="130" type="line"/>
      <point x="326" y="1170" type="line"/>
      <point x="166" y="1170" type="line"/>
      <point x="189" y="1300" type="line"/>
      <point x="701" y="1300" type="line" smooth="yes"/>
      <point x="1007" y="1300"/>
      <point x="1139" y="1151"/>
      <point x="1096" y="905" type="curve" smooth="yes"/>
      <point x="1053" y="659"/>
      <point x="832" y="585"/>
      <point x="545" y="585" type="curve"/>
      <point x="545" y="640" type="line"/>
      <point x="791" y="640"/>
      <point x="896" y="525"/>
      <point x="872" y="290" type="curve" smooth="yes"/>
      <point x="860" y="177"/>
      <point x="824" y="110"/>
      <point x="900" y="110" type="curve" smooth="yes"/>
      <point x="983" y="110"/>
      <point x="998" y="237"/>
      <point x="1028" y="350" type="curve"/>
      <point x="1147" y="320" type="line"/>
      <point x="1113" y="184"/>
      <point x="1060" y="-40"/>
      <point x="884" y="-40" type="curve" smooth="yes"/>
      <point x="708" y="-40"/>
      <point x="694" y="80"/>
      <point x="709" y="275" type="curve" smooth="yes"/>
      <point x="725" y="478"/>
      <point x="675" y="540"/>
      <point x="497" y="540" type="curve" smooth="yes"/>
      <point x="374" y="540" type="line"/>
      <point x="302" y="130" type="line"/>
      <point x="505" y="130" type="line"/>
      <point x="482" y="0" type="line"/>
    </contour>
    <contour>
      <point x="397" y="670" type="line"/>
      <point x="560" y="670" type="line" smooth="yes"/>
      <point x="728" y="670"/>
      <point x="891" y="742"/>
      <point x="922" y="915" type="curve" smooth="yes"/>
      <point x="954" y="1098"/>
      <point x="846" y="1170"/>
      <point x="678" y="1170" type="curve" smooth="yes"/>
      <point x="485" y="1170" type="line"/>
    </contour>
  </outline>
</glyph>
<glyph name="S" format="2">
  <advance width="1200"/>
  <unicode hex="0053"/>
  <anchor x="603" y="2" name="Anchor-3"/>
  <anchor x="605" y="0" name="Anchor-2"/>
  <anchor x="756" y="1300" name="Anchor-0"/>
  <outline>
    <contour>
      <point x="1063" y="1310" type="line"/>
      <point x="1183" y="1310" type="line"/>
      <point x="1112" y="909" type="line"/>
      <point x="962" y="909" type="line"/>
      <point x="949" y="1062"/>
      <point x="810" y="1180"/>
      <point x="672" y="1180" type="curve" smooth="yes"/>
      <point x="551" y="1180"/>
      <point x="420.46" y="1125.87"/>
      <point x="416" y="1001" type="curve" smooth="yes"/>
      <point x="411" y="861"/>
      <point x="562.119" y="795.372"/>
      <point x="712" y="742" type="curve" smooth="yes"/>
      <point x="917" y="669"/>
      <point x="1114" y="563"/>
      <point x="1071" y="320" type="curve" smooth="yes"/>
      <point x="1026.77" y="70.041"/>
      <point x="837" y="-29"/>
      <point x="605" y="-29" type="curve" smooth="yes"/>
      <point x="338" y="-29"/>
      <point x="134" y="181"/>
      <point x="180" y="441" type="curve"/>
      <point x="242" y="311" type="line"/>
      <point x="150" y="-10" type="line"/>
      <point x="25" y="-10" type="line"/>
      <point x="112" y="481" type="line"/>
      <point x="257" y="481" type="line"/>
      <point x="277" y="233"/>
      <point x="427" y="111"/>
      <point x="600" y="111" type="curve" smooth="yes"/>
      <point x="772" y="111"/>
      <point x="884.408" y="191.927"/>
      <point x="909" y="331" type="curve" smooth="yes"/>
      <point x="938" y="495"/>
      <point x="784" y="548"/>
      <point x="637" y="599" type="curve" smooth="yes"/>
      <point x="462.325" y="659.602"/>
      <point x="231" y="768"/>
      <point x="255" y="1020" type="curve" smooth="yes"/>
      <point x="273.393" y="1213.13"/>
      <point x="441" y="1320"/>
      <point x="667" y="1320" type="curve" smooth="yes"/>
      <point x="873" y="1320"/>
      <point x="1060" y="1149"/>
      <point x="1026" y="959" type="curve"/>
      <point x="977" y="1079" type="line"/>
    </contour>
  </outline>
</glyph>
<glyph name="T" format="2">
  <advance width="1200"/>
  <unicode hex="0054"/>
  <anchor x="520" y="2" name="Anchor-3"/>
  <anchor x="748" y="1300" name="Anchor-0"/>
  <anchor x="519" y="0" name="Anchor-2"/>
  <outline>
    <contour>
      <point x="247" y="840" type="line"/>
      <point x="138" y="840" type="line"/>
      <point x="219" y="1300" type="line"/>
      <point x="1279" y="1300" type="line"/>
      <point x="1198" y="840" type="line"/>
      <point x="1089" y="840" type="line"/>
      <point x="1111" y="1170" type="line"/>
      <point x="805" y="1170" type="line"/>
      <point x="622" y="130" type="line"/>
      <point x="812" y="130" type="line"/>
      <point x="789" y="0" type="line"/>
      <point x="240" y="0" type="line"/>
      <point x="263" y="130" type="line"/>
      <point x="453" y="130" type="line"/>
      <point x="636" y="1170" type="line"/>
      <point x="341" y="1170" type="line"/>
    </contour>
  </outline>
</glyph>
<glyph name="U" format="2">
  <advance width="1200"/>
  <unicode hex="0055"/>
  <anchor x="748" y="1300" name="Anchor-0"/>
  <anchor x="519" y="0" name="Anchor-2"/>
  <anchor x="725" y="80" name="Anchor-3"/>
  <outline>
    <contour>
      <point x="196" y="430" type="curve" smooth="yes"/>
      <point x="326" y="1170" type="line"/>
      <point x="166" y="1170" type="line"/>
      <point x="189" y="1300" type="line"/>
      <point x="678" y="1300" type="line"/>
      <point x="655" y="1170" type="line"/>
      <point x="486" y="1170" type="line"/>
      <point x="356" y="430" type="line" smooth="yes"/>
      <point x="318" y="217"/>
      <point x="382" y="120"/>
      <point x="520" y="120" type="curve" smooth="yes"/>
      <point x="658" y="120"/>
      <point x="797" y="217"/>
      <point x="835" y="430" type="curve" smooth="yes"/>
      <point x="966" y="1170" type="line"/>
      <point x="797" y="1170" type="line"/>
      <point x="820" y="1300" type="line"/>
      <point x="1309" y="1300" type="line"/>
      <point x="1286" y="1170" type="line"/>
      <point x="1126" y="1170" type="line"/>
      <point x="995" y="430" type="line" smooth="yes"/>
      <point x="950" y="174"/>
      <point x="781" y="-20"/>
      <point x="515" y="-20" type="curve" smooth="yes"/>
      <point x="249" y="-20"/>
      <point x="151" y="174"/>
    </contour>
  </outline>
</glyph>
<glyph name="V" format="2">
  <advance width="1200"/>
  <unicode hex="0056"/>
  <anchor x="748" y="1300" name="Anchor-0"/>
  <anchor x="519" y="0" name="Anchor-2"/>
  <outline>
    <contour>
      <point x="982" y="1170" type="line"/>
      <point x="827" y="1170" type="line"/>
      <point x="850" y="1300" type="line"/>
      <point x="1319" y="1300" type="line"/>
      <point x="1296" y="1170" type="line"/>
      <point x="1169" y="1170" type="line"/>
      <point x="586" y="-20" type="line"/>
      <point x="446" y="-20" type="line"/>
      <point x="283" y="1170" type="line"/>
      <point x="156" y="1170" type="line"/>
      <point x="179" y="1300" type="line"/>
      <point x="648" y="1300" type="line"/>
      <point x="625" y="1170" type="line"/>
      <point x="460" y="1170" type="line"/>
      <point x="564" y="110" type="line"/>
      <point x="504" y="110" type="line"/>
    </contour>
  </outline>
</glyph>
<glyph name="W" format="2">
  <advance width="1200"/>
  <unicode hex="0057"/>
  <anchor x="748" y="1300" name="Anchor-0"/>
  <anchor x="519" y="0" name="Anchor-2"/>
  <outline>
    <contour>
      <point x="387" y="1170" type="line"/>
      <point x="347" y="426" type="line"/>
      <point x="311" y="136" type="line"/>
      <point x="281" y="136" type="line"/>
      <point x="611" y="1000" type="line"/>
      <point x="781" y="1000" type="line"/>
      <point x="807" y="136" type="line"/>
      <point x="777" y="136" type="line"/>
      <point x="843" y="426" type="line"/>
      <point x="1055" y="1170" type="line"/>
      <point x="857" y="1170" type="line"/>
      <point x="880" y="1300" type="line"/>
      <point x="1339" y="1300" type="line"/>
      <point x="1316" y="1170" type="line"/>
      <point x="1206" y="1170" type="line"/>
      <point x="855" y="0" type="line"/>
      <point x="672" y="0" type="line"/>
      <point x="667" y="980" type="line"/>
      <point x="722" y="980" type="line"/>
      <point x="368" y="0" type="line"/>
      <point x="185" y="0" type="line"/>
      <point x="246" y="1170" type="line"/>
      <point x="136" y="1170" type="line"/>
      <point x="159" y="1300" type="line"/>
      <point x="608" y="1300" type="line"/>
      <point x="585" y="1170" type="line"/>
    </contour>
  </outline>
</glyph>
<glyph name="X" format="2">
  <advance width="1200"/>
  <unicode hex="0058"/>
  <anchor x="748" y="1300" name="Anchor-0"/>
  <anchor x="519" y="0" name="Anchor-2"/>
  <outline>
    <contour>
      <point x="229" y="1300" type="line"/>
      <point x="678" y="1300" type="line"/>
      <point x="655" y="1170" type="line"/>
      <point x="505" y="1170" type="line"/>
      <point x="653" y="802" type="line"/>
      <point x="947" y="1170" type="line"/>
      <point x="797" y="1170" type="line"/>
      <point x="820" y="1300" type="line"/>
      <point x="1269" y="1300" type="line"/>
      <point x="1246" y="1170" type="line"/>
      <point x="1117" y="1170" type="line"/>
      <point x="727" y="694" type="line"/>
      <point x="954" y="130" type="line"/>
      <point x="1103" y="130" type="line"/>
      <point x="1080" y="0" type="line"/>
      <point x="611" y="0" type="line"/>
      <point x="634" y="130" type="line"/>
      <point x="784" y="130" type="line"/>
      <point x="636" y="566" type="line"/>
      <point x="302" y="130" type="line"/>
      <point x="452" y="130" type="line"/>
      <point x="429" y="0" type="line"/>
      <point x="-40" y="0" type="line"/>
      <point x="-17" y="130" type="line"/>
      <point x="132" y="130" type="line"/>
      <point x="556" y="684" type="line"/>
      <point x="335" y="1170" type="line"/>
      <point x="206" y="1170" type="line"/>
    </contour>
  </outline>
</glyph>
<glyph name="Y" format="2">
  <advance width="1200"/>
  <unicode hex="0059"/>
  <anchor x="748" y="1300" name="Anchor-0"/>
  <anchor x="519" y="0" name="Anchor-2"/>
  <outline>
    <contour>
      <point x="240" y="0" type="line"/>
      <point x="263" y="130" type="line"/>
      <point x="453" y="130" type="line"/>
      <point x="515" y="480" type="line"/>
      <point x="280" y="1170" type="line"/>
      <point x="156" y="1170" type="line"/>
      <point x="179" y="1300" type="line"/>
      <point x="657" y="1300" type="line"/>
      <point x="634" y="1170" type="line"/>
      <point x="435" y="1170" type="line"/>
      <point x="630" y="570" type="line"/>
      <point x="591" y="570" type="line"/>
      <point x="1007" y="1170" type="line"/>
      <point x="836" y="1170" type="line"/>
      <point x="859" y="1300" type="line"/>
      <point x="1319" y="1300" type="line"/>
      <point x="1296" y="1170" type="line"/>
      <point x="1172" y="1170" type="line"/>
      <point x="684" y="480" type="line"/>
      <point x="622" y="130" type="line"/>
      <point x="812" y="130" type="line"/>
      <point x="789" y="0" type="line"/>
    </contour>
  </outline>
</glyph>
<glyph name="Z" format="2">
  <advance width="1200"/>
  <unicode hex="005A"/>
  <anchor x="748" y="1300" name="Anchor-0"/>
  <anchor x="519" y="0" name="Anchor-2"/>
  <outline>
    <contour>
      <point x="922" y="460" type="line"/>
      <point x="1031" y="460" type="line"/>
      <point x="950" y="0" type="line"/>
      <point x="80" y="0" type="line"/>
      <point x="58" y="100" type="line"/>
      <point x="907" y="1160" type="line"/>
      <point x="404" y="1160" type="line"/>
      <point x="368" y="900" type="line"/>
      <point x="259" y="900" type="line"/>
      <point x="289" y="1300" type="line"/>
      <point x="1109" y="1300" type="line"/>
      <point x="1132" y="1200" type="line"/>
      <point x="273" y="140" type="line"/>
      <point x="823" y="140" type="line"/>
    </contour>
  </outline>
</glyph>
<glyph name="bracketleft" format="2">
  <advance width="1200"/>
  <unicode hex="005B"/>
  <outline>
    <contour>
      <point x="190" y="-51" type="line"/>
      <point x="437" y="1350" type="line"/>
      <point x="1079" y="1350" type="line"/>
      <point x="1056" y="1220" type="line"/>
      <point x="596" y="1220" type="line"/>
      <point x="395" y="79" type="line"/>
      <point x="855" y="79" type="line"/>
      <point x="832" y="-51" type="line"/>
    </contour>
  </outline>
</glyph>
<glyph name="backslash" format="2">
  <advance width="1200"/>
  <unicode hex="005C"/>
  <outline>
    <contour>
      <point x="539" y="1345" type="line"/>
      <point x="912" y="-115" type="line"/>
      <point x="771" y="-155" type="line"/>
      <point x="398" y="1305" type="line"/>
    </contour>
  </outline>
</glyph>
<glyph name="bracketright" format="2">
  <advance width="1200"/>
  <unicode hex="005D"/>
  <outline>
    <contour>
      <point x="1079" y="1350" type="line"/>
      <point x="832" y="-51" type="line"/>
      <point x="190" y="-51" type="line"/>
      <point x="213" y="79" type="line"/>
      <point x="673" y="79" type="line"/>
      <point x="874" y="1220" type="line"/>
      <point x="414" y="1220" type="line"/>
      <point x="437" y="1350" type="line"/>
    </contour>
  </outline>
</glyph>
<glyph name="asciicircum" format="2">
  <advance width="1200"/>
  <unicode hex="005E"/>
  <outline>
    <contour>
      <point x="313" y="731" type="line"/>
      <point x="203" y="801" type="line"/>
      <point x="671" y="1300" type="line"/>
      <point x="838" y="1300" type="line"/>
      <point x="1119" y="801" type="line"/>
      <point x="1006" y="731" type="line"/>
      <point x="714" y="1200" type="line"/>
      <point x="781" y="1200" type="line"/>
    </contour>
  </outline>
</glyph>
<glyph name="underscore" format="2">
  <advance width="1200"/>
  <unicode hex="005F"/>
  <outline>
    <contour>
      <point x="139" y="0" type="line"/>
      <point x="901" y="0" type="line"/>
      <point x="878" y="-130" type="line"/>
      <point x="116" y="-130" type="line"/>
    </contour>
  </outline>
</glyph>
<glyph name="grave" format="2">
  <advance width="1200"/>
  <unicode hex="0060"/>
  <outline>
    <contour>
      <point x="851" y="1075" type="line"/>
      <point x="759" y="1025" type="line"/>
      <point x="568" y="1291" type="line"/>
      <point x="739" y="1371" type="line"/>
    </contour>
  </outline>
</glyph>
<glyph name="a" format="2">
  <advance width="1200"/>
  <unicode hex="0061"/>
  <anchor x="927" y="0" name="Anchor-3"/>
  <anchor x="446" y="0" name="Anchor-2"/>
  <anchor x="668" y="920" name="Anchor-0"/>
  <outline>
    <contour>
      <point x="1063" y="920" type="line"/>
      <point x="896" y="195" type="line" smooth="yes"/>
      <point x="885.215" y="148.181"/>
      <point x="882.385" y="110"/>
      <point x="925" y="110" type="curve" smooth="yes"/>
      <point x="985" y="110"/>
      <point x="1040" y="156"/>
      <point x="1099" y="210" type="curve"/>
      <point x="1177" y="133" type="line"/>
      <point x="1075" y="33"/>
      <point x="988" y="-35"/>
      <point x="878" y="-35" type="curve" smooth="yes"/>
      <point x="768" y="-35"/>
      <point x="703.267" y="42.5444"/>
      <point x="737" y="190" type="curve" smooth="yes"/>
      <point x="904" y="920" type="line"/>
    </contour>
    <contour>
      <point x="272" y="436" type="curve" smooth="yes"/>
      <point x="229.721" y="226.804"/>
      <point x="309" y="125"/>
      <point x="413" y="125" type="curve" smooth="yes"/>
      <point x="531" y="125"/>
      <point x="650" y="177"/>
      <point x="786" y="400" type="curve"/>
      <point x="800" y="310" type="line"/>
      <point x="670" y="64"/>
      <point x="506" y="-20"/>
      <point x="369" y="-20" type="curve" smooth="yes"/>
      <point x="153" y="-20"/>
      <point x="47.3047" y="163.597"/>
      <point x="105" y="440" type="curve" smooth="yes"/>
      <point x="167.898" y="741.332"/>
      <point x="414" y="939"/>
      <point x="669" y="939" type="curve" smooth="yes"/>
      <point x="767" y="939"/>
      <point x="865" y="896"/>
      <point x="904" y="840" type="curve"/>
      <point x="905" y="739" type="line"/>
      <point x="865" y="786"/>
      <point x="787" y="819"/>
      <point x="690" y="819" type="curve" smooth="yes"/>
      <point x="490" y="819"/>
      <point x="315.68" y="652.127"/>
    </contour>
  </outline>
</glyph>
<glyph name="b" format="2">
  <advance width="1200"/>
  <unicode hex="0062"/>
  <anchor x="526" y="0" name="Anchor-2"/>
  <anchor x="818" y="920" name="Anchor-0"/>
  <outline>
    <contour>
      <point x="664" y="795" type="curve" smooth="yes"/>
      <point x="486" y="795"/>
      <point x="349" y="673"/>
      <point x="311" y="460" type="curve" smooth="yes"/>
      <point x="272" y="237"/>
      <point x="379" y="130"/>
      <point x="547" y="130" type="curve" smooth="yes"/>
      <point x="735" y="130"/>
      <point x="871" y="237"/>
      <point x="910" y="460" type="curve" smooth="yes"/>
      <point x="948" y="673"/>
      <point x="832" y="795"/>
    </contour>
    <contour>
      <point x="580" y="-20" type="curve" smooth="yes"/>
      <point x="314" y="-20"/>
      <point x="199" y="204"/>
      <point x="251" y="500" type="curve" smooth="yes"/>
      <point x="301" y="786"/>
      <point x="503" y="940"/>
      <point x="740" y="940" type="curve" smooth="yes"/>
      <point x="977" y="940"/>
      <point x="1132" y="756"/>
      <point x="1080" y="460" type="curve" smooth="yes"/>
      <point x="1026" y="154"/>
      <point x="816" y="-20"/>
    </contour>
    <contour>
      <point x="307" y="1330" type="line"/>
      <point x="282" y="1190" type="line"/>
      <point x="82" y="1190" type="line"/>
      <point x="107" y="1330" type="line"/>
    </contour>
    <contour>
      <point x="265" y="190" type="line"/>
      <point x="191" y="0" type="line"/>
      <point x="72" y="0" type="line"/>
      <point x="307" y="1330" type="line"/>
      <point x="466" y="1330" type="line"/>
    </contour>
  </outline>
</glyph>
<glyph name="c" format="2">
  <advance width="1200"/>
  <unicode hex="0063"/>
  <anchor x="557" y="4" name="Anchor-3"/>
  <anchor x="556" y="0" name="Anchor-2"/>
  <anchor x="738" y="920" name="Anchor-0"/>
  <outline>
    <contour>
      <point x="711" y="800" type="line"/>
      <point x="518" y="800"/>
      <point x="345" y="671"/>
      <point x="306" y="448" type="curve" smooth="yes"/>
      <point x="267" y="225"/>
      <point x="348" y="125"/>
      <point x="546" y="125" type="curve"/>
      <point x="530" y="-20" type="line"/>
      <point x="199" y="-20"/>
      <point x="84" y="184"/>
      <point x="131" y="450" type="curve" smooth="yes"/>
      <point x="185" y="756"/>
      <point x="434" y="940"/>
      <point x="726" y="940" type="curve"/>
    </contour>
    <contour>
      <point x="711" y="800" type="curve"/>
      <point x="726" y="940" type="line"/>
      <point x="966" y="940"/>
      <point x="1105" y="814"/>
      <point x="1079" y="667" type="curve" smooth="yes"/>
      <point x="1065" y="589"/>
      <point x="1049" y="530"/>
      <point x="1044" y="510" type="curve"/>
      <point x="891" y="510" type="line"/>
      <point x="897" y="531"/>
      <point x="901" y="551"/>
      <point x="906" y="581" type="curve" smooth="yes"/>
      <point x="935" y="746"/>
      <point x="852" y="800"/>
    </contour>
    <contour>
      <point x="980" y="173" type="line"/>
      <point x="887" y="100"/>
      <point x="696" y="-20"/>
      <point x="530" y="-20" type="curve"/>
      <point x="546" y="125" type="line"/>
      <point x="723" y="125"/>
      <point x="848" y="217"/>
      <point x="916" y="260" type="curve"/>
    </contour>
  </outline>
</glyph>
<glyph name="d" format="2">
  <advance width="1200"/>
  <unicode hex="0064"/>
  <anchor x="880" y="0" name="Anchor-3"/>
  <anchor x="576" y="0" name="Anchor-2"/>
  <anchor x="1231" y="920" name="Anchor-1"/>
  <anchor x="578" y="920" name="Anchor-0"/>
  <outline>
    <contour>
      <point x="272" y="436" type="curve" smooth="yes"/>
      <point x="229.721" y="226.804"/>
      <point x="309" y="125"/>
      <point x="413" y="125" type="curve" smooth="yes"/>
      <point x="531" y="125"/>
      <point x="650" y="177"/>
      <point x="786" y="400" type="curve"/>
      <point x="800" y="310" type="line"/>
      <point x="670" y="64"/>
      <point x="506" y="-20"/>
      <point x="369" y="-20" type="curve" smooth="yes"/>
      <point x="173" y="-20"/>
      <point x="47.3047" y="163.597"/>
      <point x="105" y="440" type="curve" smooth="yes"/>
      <point x="167.898" y="741.332"/>
      <point x="414" y="939"/>
      <point x="669" y="939" type="curve" smooth="yes"/>
      <point x="777" y="939"/>
      <point x="865" y="886"/>
      <point x="904" y="840" type="curve"/>
      <point x="905" y="739" type="line"/>
      <point x="865" y="786"/>
      <point x="787" y="819"/>
      <point x="690" y="819" type="curve" smooth="yes"/>
      <point x="490" y="819"/>
      <point x="315.68" y="652.127"/>
    </contour>
    <contour>
      <point x="1115" y="1330" type="line"/>
      <point x="896" y="195" type="line" smooth="yes"/>
      <point x="886.692" y="146.757"/>
      <point x="882.384" y="110"/>
      <point x="925" y="110" type="curve" smooth="yes"/>
      <point x="985" y="110"/>
      <point x="1040" y="155"/>
      <point x="1099" y="211" type="curve"/>
      <point x="1177" y="133" type="line"/>
      <point x="1075" y="33"/>
      <point x="988" y="-35"/>
      <point x="878" y="-35" type="curve" smooth="yes"/>
      <point x="768" y="-35"/>
      <point x="708.456" y="41.4132"/>
      <point x="737" y="190" type="curve" smooth="yes"/>
      <point x="956" y="1330" type="line"/>
    </contour>
    <contour>
      <point x="736" y="1330" type="line"/>
      <point x="956" y="1330" type="line"/>
      <point x="941" y="1190" type="line"/>
      <point x="711" y="1190" type="line"/>
    </contour>
  </outline>
</glyph>
<glyph name="e" format="2">
  <advance width="1200"/>
  <unicode hex="0065"/>
  <anchor x="716" y="22" name="Anchor-3"/>
  <anchor x="565" y="0" name="Anchor-2"/>
  <anchor x="727" y="920" name="Anchor-0"/>
  <outline>
    <contour>
      <point x="980" y="113" type="line"/>
      <point x="888" y="47"/>
      <point x="736" y="-20"/>
      <point x="560" y="-20" type="curve"/>
      <point x="576" y="122" type="line"/>
      <point x="703" y="122"/>
      <point x="836" y="174"/>
      <point x="902" y="232" type="curve"/>
    </contour>
    <contour>
      <point x="560" y="-20" type="line"/>
      <point x="258.552" y="-20"/>
      <point x="85" y="152"/>
      <point x="134" y="440" type="curve" smooth="yes"/>
      <point x="185.151" y="740.642"/>
      <point x="448" y="940"/>
      <point x="735" y="940" type="curve" smooth="yes"/>
      <point x="937.42" y="940"/>
      <point x="1092.23" y="844.423"/>
      <point x="1055" y="652" type="curve" smooth="yes"/>
      <point x="1010.02" y="419.506"/>
      <point x="571.205" y="361.492"/>
      <point x="265" y="352" type="curve"/>
      <point x="284" y="462" type="line"/>
      <point x="569.614" y="484.841"/>
      <point x="871.092" y="543.194"/>
      <point x="895" y="662" type="curve" smooth="yes"/>
      <point x="913.401" y="753.439"/>
      <point x="838.201" y="805"/>
      <point x="721" y="805" type="curve" smooth="yes"/>
      <point x="513" y="805"/>
      <point x="328" y="653"/>
      <point x="294" y="460" type="curve" smooth="yes"/>
      <point x="255.723" y="230.339"/>
      <point x="357.549" y="122"/>
      <point x="576" y="122" type="curve"/>
    </contour>
  </outline>
</glyph>
<glyph name="f" format="2">
  <advance width="1200"/>
  <unicode hex="0066"/>
  <anchor x="416" y="0" name="Anchor-2"/>
  <anchor x="990" y="1420" name="Anchor-0"/>
  <outline>
    <contour>
      <point x="968" y="1300" type="curve"/>
      <point x="983" y="1440" type="line"/>
      <point x="1170" y="1440"/>
      <point x="1290" y="1371"/>
      <point x="1353" y="1301" type="curve"/>
      <point x="1218" y="1190" type="line"/>
      <point x="1181" y="1220"/>
      <point x="1096" y="1300"/>
    </contour>
    <contour>
      <point x="323" y="-330" type="line"/>
      <point x="479" y="790" type="line"/>
      <point x="199" y="790" type="line"/>
      <point x="222" y="920" type="line"/>
      <point x="491" y="920" type="line"/>
      <point x="505" y="1000" type="line" smooth="yes"/>
      <point x="548" y="1246"/>
      <point x="676" y="1440"/>
      <point x="983" y="1440" type="curve"/>
      <point x="968" y="1300" type="line"/>
      <point x="770" y="1300"/>
      <point x="701.484" y="1151.34"/>
      <point x="675" y="1000" type="curve" smooth="yes"/>
      <point x="661" y="920" type="line"/>
      <point x="1112" y="920" type="line"/>
      <point x="1086" y="770" type="line"/>
      <point x="648" y="790" type="line"/>
      <point x="492" y="-330" type="line"/>
    </contour>
  </outline>
</glyph>
<glyph name="g" format="2">
  <advance width="1200"/>
  <unicode hex="0067"/>
  <anchor x="376" y="0" name="Anchor-2"/>
  <anchor x="618" y="920" name="Anchor-0"/>
  <outline>
    <contour>
      <point x="454" y="-20" type="curve" smooth="yes"/>
      <point x="228" y="-20"/>
      <point x="49" y="144"/>
      <point x="101" y="440" type="curve" smooth="yes"/>
      <point x="153" y="736"/>
      <point x="427" y="940"/>
      <point x="644" y="940" type="curve" smooth="yes"/>
      <point x="901" y="940"/>
      <point x="984" y="716"/>
      <point x="937" y="450" type="curve" smooth="yes"/>
      <point x="888" y="174"/>
      <point x="710" y="-20"/>
    </contour>
    <contour>
      <point x="650" y="805" type="curve" smooth="yes"/>
      <point x="482" y="805"/>
      <point x="309" y="653"/>
      <point x="271" y="440" type="curve" smooth="yes"/>
      <point x="235" y="237"/>
      <point x="343" y="130"/>
      <point x="511" y="130" type="curve" smooth="yes"/>
      <point x="679" y="130"/>
      <point x="844" y="237"/>
      <point x="883" y="460" type="curve" smooth="yes"/>
      <point x="921" y="673"/>
      <point x="828" y="805"/>
    </contour>
    <contour>
      <point x="439" y="-290" type="curve"/>
      <point x="440" y="-430" type="line"/>
      <point x="233" y="-430"/>
      <point x="91" y="-331"/>
      <point x="24" y="-241" type="curve"/>
      <point x="134" y="-142" type="line"/>
      <point x="187" y="-202"/>
      <point x="301" y="-290"/>
    </contour>
    <contour>
      <point x="833" y="73" type="curve" smooth="yes"/>
      <point x="930" y="720" type="line"/>
      <point x="995" y="920" type="line"/>
      <point x="1123" y="920" type="line"/>
      <point x="992" y="73" type="line" smooth="yes"/>
      <point x="935.654" y="-291.313"/>
      <point x="707" y="-430"/>
      <point x="440" y="-430" type="curve"/>
      <point x="439" y="-290" type="line"/>
      <point x="647" y="-290"/>
      <point x="792.003" y="-197.885"/>
    </contour>
  </outline>
</glyph>
<glyph name="h" format="2">
  <advance width="1200"/>
  <unicode hex="0068"/>
  <anchor x="538" y="0" name="Anchor-2"/>
  <anchor x="882" y="1030" name="Anchor-0"/>
  <outline>
    <contour>
      <point x="1069" y="570" type="curve" smooth="yes"/>
      <point x="968" y="0" type="line"/>
      <point x="799" y="0" type="line"/>
      <point x="901" y="580" type="line" smooth="yes"/>
      <point x="928" y="733"/>
      <point x="879" y="810"/>
      <point x="731" y="810" type="curve" smooth="yes"/>
      <point x="543" y="810"/>
      <point x="424" y="653"/>
      <point x="378" y="390" type="curve" smooth="yes"/>
      <point x="309" y="0" type="line"/>
      <point x="150" y="0" type="line"/>
      <point x="360" y="1190" type="line"/>
      <point x="140" y="1190" type="line"/>
      <point x="165" y="1330" type="line"/>
      <point x="544" y="1330" type="line"/>
      <point x="423" y="650" type="line"/>
      <point x="376" y="550" type="line"/>
      <point x="404" y="706"/>
      <point x="517" y="940"/>
      <point x="794" y="940" type="curve" smooth="yes"/>
      <point x="1021" y="940"/>
      <point x="1111" y="806"/>
    </contour>
  </outline>
</glyph>
<glyph name="i" format="2">
  <advance width="1200"/>
  <unicode hex="0069"/>
  <anchor x="660" y="10" name="Anchor-3"/>
  <anchor x="515" y="0" name="Anchor-2"/>
  <outline>
    <contour>
      <point x="588" y="800" type="line"/>
      <point x="188" y="780" type="line"/>
      <point x="212" y="920" type="line"/>
      <point x="761" y="920" type="line"/>
      <point x="608" y="265" type="line" smooth="yes"/>
      <point x="585.996" y="170.802"/>
      <point x="584.385" y="120"/>
      <point x="637" y="120" type="curve" smooth="yes"/>
      <point x="747" y="120"/>
      <point x="898" y="221"/>
      <point x="1027" y="333" type="curve"/>
      <point x="1103" y="242" type="line"/>
      <point x="951" y="102"/>
      <point x="746" y="-25"/>
      <point x="606" y="-25" type="curve" smooth="yes"/>
      <point x="476" y="-25"/>
      <point x="388.759" y="43.1338"/>
      <point x="435" y="240" type="curve" smooth="yes"/>
      <point x="574.58" y="833.158" type="line"/>
    </contour>
    <contour>
      <point x="601" y="1255" type="curve" smooth="yes"/>
      <point x="601" y="1328"/>
      <point x="652" y="1380"/>
      <point x="725" y="1380" type="curve" smooth="yes"/>
      <point x="798" y="1380"/>
      <point x="850" y="1328"/>
      <point x="850" y="1255" type="curve" smooth="yes"/>
      <point x="850" y="1182"/>
      <point x="803" y="1130"/>
      <point x="730" y="1130" type="curve" smooth="yes"/>
      <point x="657" y="1130"/>
      <point x="601" y="1182"/>
    </contour>
  </outline>
</glyph>
<glyph name="j" format="2">
  <advance width="1200"/>
  <unicode hex="006A"/>
  <anchor x="375" y="-400" name="Anchor-2"/>
  <outline>
    <contour>
      <point x="841" y="1255" type="curve" smooth="yes"/>
      <point x="841" y="1328"/>
      <point x="892" y="1380"/>
      <point x="965" y="1380" type="curve" smooth="yes"/>
      <point x="1038" y="1380"/>
      <point x="1090" y="1328"/>
      <point x="1090" y="1255" type="curve" smooth="yes"/>
      <point x="1090" y="1182"/>
      <point x="1043" y="1130"/>
      <point x="970" y="1130" type="curve" smooth="yes"/>
      <point x="897" y="1130"/>
      <point x="841" y="1182"/>
    </contour>
    <contour>
      <point x="399" y="-290" type="curve"/>
      <point x="394" y="-430" type="line"/>
      <point x="207" y="-430"/>
      <point x="81" y="-331"/>
      <point x="24" y="-231" type="curve"/>
      <point x="150" y="-140" type="line"/>
      <point x="183" y="-190"/>
      <point x="271" y="-290"/>
    </contour>
    <contour>
      <point x="991" y="920" type="line"/>
      <point x="862" y="10" type="line" smooth="yes"/>
      <point x="820.058" y="-285.871"/>
      <point x="681" y="-430"/>
      <point x="394" y="-430" type="curve"/>
      <point x="399" y="-290" type="line"/>
      <point x="597" y="-290"/>
      <point x="666.778" y="-173.219"/>
      <point x="692" y="10" type="curve" smooth="yes"/>
      <point x="798" y="780" type="line"/>
      <point x="378" y="780" type="line"/>
      <point x="402" y="920" type="line"/>
    </contour>
  </outline>
</glyph>
<glyph name="k" format="2">
  <advance width="1200"/>
  <unicode hex="006B"/>
  <anchor x="516" y="0" name="Anchor-2"/>
  <anchor x="798" y="920" name="Anchor-0"/>
  <outline>
    <contour>
      <point x="300" y="0" type="line"/>
      <point x="140" y="0" type="line"/>
      <point x="350" y="1190" type="line"/>
      <point x="160" y="1190" type="line"/>
      <point x="185" y="1330" type="line"/>
      <point x="535" y="1330" type="line"/>
    </contour>
    <contour>
      <point x="894" y="654" type="curve" smooth="yes"/>
      <point x="932.761" y="752.506"/>
      <point x="874" y="795"/>
      <point x="796" y="795" type="curve" smooth="yes"/>
      <point x="708" y="795"/>
      <point x="526" y="743"/>
      <point x="390" y="520" type="curve"/>
      <point x="379" y="610" type="line"/>
      <point x="529" y="856"/>
      <point x="683" y="940"/>
      <point x="870" y="940" type="curve" smooth="yes"/>
      <point x="1026" y="940"/>
      <point x="1124.61" y="845.522"/>
      <point x="1064" y="670" type="curve" smooth="yes"/>
      <point x="990.405" y="456.892"/>
      <point x="755" y="281"/>
      <point x="470" y="281" type="curve" smooth="yes"/>
      <point x="392" y="281"/>
      <point x="314" y="324"/>
      <point x="275" y="370" type="curve"/>
      <point x="274" y="471" type="line"/>
      <point x="314" y="424"/>
      <point x="382" y="391"/>
      <point x="479" y="391" type="curve" smooth="yes"/>
      <point x="679" y="391"/>
      <point x="851.022" y="544.778"/>
    </contour>
    <contour>
      <point x="492.58" y="363.158" type="line"/>
      <point x="641" y="380" type="line"/>
      <point x="688" y="256" type="line" smooth="yes"/>
      <point x="719.026" y="174.143"/>
      <point x="733.385" y="126"/>
      <point x="786" y="126" type="curve" smooth="yes"/>
      <point x="866" y="126"/>
      <point x="998" y="208"/>
      <point x="1087" y="290" type="curve"/>
      <point x="1166" y="213" type="line"/>
      <point x="1014" y="63"/>
      <point x="896" y="-25"/>
      <point x="756" y="-25" type="curve" smooth="yes"/>
      <point x="626" y="-25"/>
      <point x="591.369" y="53.0547"/>
      <point x="535" y="230" type="curve" smooth="yes"/>
    </contour>
  </outline>
</glyph>
<glyph name="l" format="2">
  <advance width="1200"/>
  <unicode hex="006C"/>
  <anchor x="490" y="0" name="Anchor-3"/>
  <anchor x="484" y="0" name="Anchor-2"/>
  <anchor x="635" y="920" name="Anchor-1"/>
  <anchor x="693" y="1330" name="Anchor-0"/>
  <outline>
    <contour>
      <point x="598" y="1210" type="line"/>
      <point x="198" y="1190" type="line"/>
      <point x="222" y="1330" type="line"/>
      <point x="771" y="1330" type="line"/>
      <point x="538" y="265" type="line" smooth="yes"/>
      <point x="517.282" y="170.302"/>
      <point x="514.385" y="120"/>
      <point x="567" y="120" type="curve" smooth="yes"/>
      <point x="677" y="120"/>
      <point x="828" y="221"/>
      <point x="957" y="333" type="curve"/>
      <point x="1033" y="242" type="line"/>
      <point x="881" y="102"/>
      <point x="676" y="-25"/>
      <point x="536" y="-25" type="curve" smooth="yes"/>
      <point x="406" y="-25"/>
      <point x="321.719" y="42.2666"/>
      <point x="365" y="240" type="curve" smooth="yes"/>
      <point x="584.58" y="1243.16" type="line"/>
    </contour>
  </outline>
</glyph>
<glyph name="m" format="2">
  <advance width="1200"/>
  <unicode hex="006D"/>
  <anchor x="535" y="0" name="Anchor-2"/>
  <anchor x="718" y="920" name="Anchor-0"/>
  <outline>
    <contour>
      <point x="178" y="780" type="line"/>
      <point x="58" y="780" type="line"/>
      <point x="82" y="920" type="line"/>
      <point x="202" y="920" type="line"/>
    </contour>
    <contour>
      <point x="724" y="600" type="curve" smooth="yes"/>
      <point x="618" y="0" type="line"/>
      <point x="459" y="0" type="line"/>
      <point x="574" y="650" type="line" smooth="yes"/>
      <point x="592" y="753"/>
      <point x="564" y="810"/>
      <point x="496" y="810" type="curve" smooth="yes"/>
      <point x="378" y="810"/>
      <point x="315" y="653"/>
      <point x="277" y="440" type="curve" smooth="yes"/>
      <point x="199" y="0" type="line"/>
      <point x="40" y="0" type="line"/>
      <point x="202" y="920" type="line"/>
      <point x="298" y="920" type="line"/>
      <point x="298" y="710" type="line"/>
      <point x="236" y="550" type="line"/>
      <point x="264" y="706"/>
      <point x="372" y="940"/>
      <point x="569" y="940" type="curve" smooth="yes"/>
      <point x="716" y="940"/>
      <point x="760" y="806"/>
    </contour>
    <contour>
      <point x="1143" y="600" type="curve" smooth="yes"/>
      <point x="1037" y="0" type="line"/>
      <point x="878" y="0" type="line"/>
      <point x="993" y="650" type="line" smooth="yes"/>
      <point x="1011" y="753"/>
      <point x="993" y="810"/>
      <point x="925" y="810" type="curve" smooth="yes"/>
      <point x="797" y="810"/>
      <point x="734" y="653"/>
      <point x="696" y="440" type="curve"/>
      <point x="645" y="550" type="line"/>
      <point x="673" y="706"/>
      <point x="791" y="940"/>
      <point x="988" y="940" type="curve" smooth="yes"/>
      <point x="1155" y="940"/>
      <point x="1179" y="806"/>
    </contour>
  </outline>
</glyph>
<glyph name="n" format="2">
  <advance width="1200"/>
  <unicode hex="006E"/>
  <anchor x="546" y="0" name="Anchor-2"/>
  <anchor x="718" y="920" name="Anchor-0"/>
  <outline>
    <contour>
      <point x="268" y="780" type="line"/>
      <point x="98" y="780" type="line"/>
      <point x="122" y="920" type="line"/>
      <point x="292" y="920" type="line"/>
    </contour>
    <contour>
      <point x="1059" y="570" type="curve" smooth="yes"/>
      <point x="958" y="0" type="line"/>
      <point x="794" y="0" type="line"/>
      <point x="896" y="580" type="line" smooth="yes"/>
      <point x="923" y="733"/>
      <point x="874" y="810"/>
      <point x="746" y="810" type="curve" smooth="yes"/>
      <point x="578" y="810"/>
      <point x="410" y="653"/>
      <point x="372" y="440" type="curve" smooth="yes"/>
      <point x="294" y="0" type="line"/>
      <point x="130" y="0" type="line"/>
      <point x="292" y="920" type="line"/>
      <point x="393" y="920" type="line"/>
      <point x="393" y="670" type="line"/>
      <point x="341" y="550" type="line"/>
      <point x="369" y="706"/>
      <point x="522" y="940"/>
      <point x="789" y="940" type="curve" smooth="yes"/>
      <point x="1011" y="940"/>
      <point x="1101" y="806"/>
    </contour>
  </outline>
</glyph>
<glyph name="o" format="2">
  <advance width="1200"/>
  <unicode hex="006F"/>
  <anchor x="513" y="0" name="Anchor-2"/>
  <anchor x="676" y="920" name="Anchor-0"/>
  <outline>
    <contour>
      <point x="510" y="-20" type="curve" smooth="yes"/>
      <point x="234" y="-20"/>
      <point x="71" y="144"/>
      <point x="127" y="460" type="curve" smooth="yes"/>
      <point x="181" y="766"/>
      <point x="423" y="940"/>
      <point x="680" y="940" type="curve" smooth="yes"/>
      <point x="937" y="940"/>
      <point x="1129" y="766"/>
      <point x="1075" y="460" type="curve" smooth="yes"/>
      <point x="1019" y="144"/>
      <point x="786" y="-20"/>
    </contour>
    <contour>
      <point x="656" y="805" type="curve" smooth="yes"/>
      <point x="488" y="805"/>
      <point x="339" y="673"/>
      <point x="301" y="460" type="curve" smooth="yes"/>
      <point x="262" y="237"/>
      <point x="346" y="115"/>
      <point x="534" y="115" type="curve" smooth="yes"/>
      <point x="722" y="115"/>
      <point x="862" y="237"/>
      <point x="901" y="460" type="curve" smooth="yes"/>
      <point x="939" y="673"/>
      <point x="824" y="805"/>
    </contour>
  </outline>
</glyph>
<glyph name="p" format="2">
  <advance width="1200"/>
  <unicode hex="0070"/>
  <anchor x="696" y="0" name="Anchor-2"/>
  <anchor x="808" y="920" name="Anchor-0"/>
  <outline>
    <contour>
      <point x="594" y="115" type="curve" smooth="yes"/>
      <point x="732" y="115"/>
      <point x="899" y="227"/>
      <point x="940" y="460" type="curve" smooth="yes"/>
      <point x="983" y="703"/>
      <point x="871" y="790"/>
      <point x="713" y="790" type="curve" smooth="yes"/>
      <point x="535" y="790"/>
      <point x="412" y="653"/>
      <point x="378" y="460" type="curve" smooth="yes"/>
      <point x="346" y="277"/>
      <point x="436" y="115"/>
    </contour>
    <contour>
      <point x="800" y="940" type="curve" smooth="yes"/>
      <point x="996" y="940"/>
      <point x="1157" y="786"/>
      <point x="1100" y="460" type="curve" smooth="yes"/>
      <point x="1044" y="144"/>
      <point x="807" y="-20"/>
      <point x="610" y="-20" type="curve" smooth="yes"/>
      <point x="383" y="-20"/>
      <point x="276" y="204"/>
      <point x="332" y="520" type="curve" smooth="yes"/>
      <point x="382" y="806"/>
      <point x="594" y="940"/>
    </contour>
    <contour>
      <point x="411" y="920" type="line"/>
      <point x="411" y="682" type="line"/>
      <point x="254" y="-330" type="line"/>
      <point x="95" y="-330" type="line"/>
      <point x="270" y="780" type="line"/>
      <point x="100" y="780" type="line"/>
      <point x="124" y="920" type="line"/>
    </contour>
  </outline>
</glyph>
<glyph name="q" format="2">
  <advance width="1200"/>
  <unicode hex="0071"/>
  <anchor x="376" y="0" name="Anchor-2"/>
  <anchor x="618" y="920" name="Anchor-0"/>
  <outline>
    <contour>
      <point x="650" y="805" type="curve" smooth="yes"/>
      <point x="482" y="805"/>
      <point x="309" y="653"/>
      <point x="271" y="440" type="curve" smooth="yes"/>
      <point x="235" y="237"/>
      <point x="343" y="130"/>
      <point x="511" y="130" type="curve" smooth="yes"/>
      <point x="679" y="130"/>
      <point x="844" y="237"/>
      <point x="883" y="460" type="curve" smooth="yes"/>
      <point x="921" y="673"/>
      <point x="828" y="805"/>
    </contour>
    <contour>
      <point x="454" y="-20" type="curve" smooth="yes"/>
      <point x="228" y="-20"/>
      <point x="49" y="144"/>
      <point x="101" y="440" type="curve" smooth="yes"/>
      <point x="153" y="736"/>
      <point x="407" y="940"/>
      <point x="634" y="940" type="curve" smooth="yes"/>
      <point x="871" y="940"/>
      <point x="994" y="706"/>
      <point x="947" y="440" type="curve" smooth="yes"/>
      <point x="898" y="164"/>
      <point x="680" y="-20"/>
    </contour>
    <contour>
      <point x="1123" y="920" type="line"/>
      <point x="924" y="-330" type="line"/>
      <point x="765" y="-330" type="line"/>
      <point x="927" y="710" type="line"/>
      <point x="995" y="920" type="line"/>
    </contour>
  </outline>
</glyph>
<glyph name="r" format="2">
  <advance width="1200"/>
  <unicode hex="0072"/>
  <anchor x="628" y="920" name="Anchor-0"/>
  <anchor x="296" y="0" name="Anchor-2"/>
  <outline>
    <contour>
      <point x="882" y="790" type="curve"/>
      <point x="924" y="940" type="line"/>
      <point x="1094" y="940"/>
      <point x="1153" y="844"/>
      <point x="1127" y="697" type="curve" smooth="yes"/>
      <point x="1113" y="619"/>
      <point x="1097" y="560"/>
      <point x="1092" y="540" type="curve"/>
      <point x="949" y="560" type="line"/>
      <point x="955" y="581"/>
      <point x="958.536" y="601.08"/>
      <point x="964" y="631" type="curve" smooth="yes"/>
      <point x="985" y="746"/>
      <point x="973" y="790"/>
    </contour>
    <contour>
      <point x="882" y="790" type="line"/>
      <point x="754" y="790"/>
      <point x="503" y="703"/>
      <point x="458" y="450" type="curve" smooth="yes"/>
      <point x="380" y="0" type="line"/>
      <point x="211" y="0" type="line"/>
      <point x="349" y="790" type="line"/>
      <point x="109" y="790" type="line"/>
      <point x="132" y="920" type="line"/>
      <point x="491" y="920" type="line"/>
      <point x="491" y="670" type="line"/>
      <point x="414" y="520" type="line"/>
      <point x="447" y="706"/>
      <point x="697" y="940"/>
      <point x="924" y="940" type="curve"/>
    </contour>
  </outline>
</glyph>
<glyph name="s" format="2">
  <advance width="1200"/>
  <unicode hex="0073"/>
  <anchor x="550" y="0" name="Anchor-3"/>
  <anchor x="546" y="0" name="Anchor-2"/>
  <anchor x="696" y="920" name="Anchor-0"/>
  <outline>
    <contour>
      <point x="1043" y="779" type="curve"/>
      <point x="932" y="670" type="line"/>
      <point x="852" y="753"/>
      <point x="786" y="794"/>
      <point x="638" y="794" type="curve" smooth="yes"/>
      <point x="477" y="794"/>
      <point x="387" y="732"/>
      <point x="387" y="668" type="curve" smooth="yes"/>
      <point x="387" y="584"/>
      <point x="505.008" y="569.036"/>
      <point x="644" y="539" type="curve" smooth="yes"/>
      <point x="880" y="488"/>
      <point x="1009" y="434"/>
      <point x="1009" y="266" type="curve" smooth="yes"/>
      <point x="1009" y="66"/>
      <point x="782" y="-29"/>
      <point x="560" y="-29" type="curve" smooth="yes"/>
      <point x="363" y="-29"/>
      <point x="180" y="67"/>
      <point x="90" y="211" type="curve"/>
      <point x="195" y="307" type="line"/>
      <point x="295" y="200"/>
      <point x="393" y="116"/>
      <point x="555" y="116" type="curve" smooth="yes"/>
      <point x="707" y="116"/>
      <point x="842" y="157"/>
      <point x="842" y="256" type="curve" smooth="yes"/>
      <point x="842" y="342"/>
      <point x="759" y="344"/>
      <point x="582" y="391" type="curve" smooth="yes"/>
      <point x="403" y="439"/>
      <point x="219" y="474"/>
      <point x="229" y="660" type="curve" smooth="yes"/>
      <point x="236.892" y="806.788"/>
      <point x="397" y="940"/>
      <point x="653" y="940" type="curve" smooth="yes"/>
      <point x="849" y="940"/>
      <point x="971" y="869"/>
    </contour>
  </outline>
</glyph>
<glyph name="t" format="2">
  <advance width="1200"/>
  <unicode hex="0074"/>
  <anchor x="476" y="-6" name="Anchor-3"/>
  <anchor x="626" y="0" name="Anchor-2"/>
  <anchor x="824" y="1020" name="Anchor-1"/>
  <anchor x="595" y="1130" name="Anchor-0"/>
  <outline>
    <contour>
      <point x="466" y="920" type="line"/>
      <point x="1101" y="920" type="line"/>
      <point x="1075" y="770" type="line"/>
      <point x="467" y="794" type="line"/>
    </contour>
    <contour>
      <point x="207" y="779" type="line"/>
      <point x="232" y="920" type="line"/>
      <point x="495" y="920" type="line"/>
      <point x="495" y="779" type="line"/>
    </contour>
    <contour>
      <point x="564" y="140" type="line"/>
      <point x="752" y="140"/>
      <point x="887" y="230"/>
      <point x="966" y="300" type="curve"/>
      <point x="1043" y="208" type="line"/>
      <point x="906" y="98"/>
      <point x="734" y="-10"/>
      <point x="537" y="-10" type="curve"/>
    </contour>
    <contour>
      <point x="695" y="1170" type="line"/>
      <point x="514" y="430" type="line" smooth="yes"/>
      <point x="461.735" y="216.321"/>
      <point x="446" y="140"/>
      <point x="564" y="140" type="curve"/>
      <point x="537" y="-10" type="line"/>
      <point x="280" y="-10"/>
      <point x="280.708" y="155.565"/>
      <point x="339" y="390" type="curve" smooth="yes"/>
      <point x="523" y="1130" type="line"/>
    </contour>
  </outline>
</glyph>
<glyph name="u" format="2">
  <advance width="1200"/>
  <unicode hex="0075"/>
  <anchor x="946" y="10" name="Anchor-3"/>
  <anchor x="466" y="0" name="Anchor-2"/>
  <anchor x="648" y="920" name="Anchor-0"/>
  <outline>
    <contour>
      <point x="1055" y="920" type="line"/>
      <point x="896" y="195" type="line" smooth="yes"/>
      <point x="885.063" y="147.072"/>
      <point x="882.384" y="110"/>
      <point x="925" y="110" type="curve" smooth="yes"/>
      <point x="985" y="110"/>
      <point x="1040" y="154"/>
      <point x="1099" y="213" type="curve"/>
      <point x="1177" y="133" type="line"/>
      <point x="1075" y="33"/>
      <point x="988" y="-35"/>
      <point x="878" y="-35" type="curve" smooth="yes"/>
      <point x="768" y="-35"/>
      <point x="703.46" y="42.3729"/>
      <point x="737" y="190" type="curve" smooth="yes"/>
      <point x="896" y="920" type="line"/>
    </contour>
    <contour>
      <point x="266" y="920" type="line"/>
      <point x="425" y="920" type="line"/>
      <point x="295" y="358" type="line" smooth="yes"/>
      <point x="255.843" y="188.723"/>
      <point x="295" y="125"/>
      <point x="403" y="125" type="curve" smooth="yes"/>
      <point x="511" y="125"/>
      <point x="650" y="177"/>
      <point x="786" y="400" type="curve"/>
      <point x="810" y="310" type="line"/>
      <point x="660" y="84"/>
      <point x="516" y="-20"/>
      <point x="349" y="-20" type="curve" smooth="yes"/>
      <point x="153" y="-20"/>
      <point x="81.1509" y="120.883"/>
      <point x="136" y="358" type="curve" smooth="yes"/>
    </contour>
  </outline>
</glyph>
<glyph name="v" format="2">
  <advance width="1200"/>
  <unicode hex="0076"/>
  <anchor x="517" y="0" name="Anchor-2"/>
  <anchor x="678" y="920" name="Anchor-0"/>
  <outline>
    <contour>
      <point x="78" y="780" type="line"/>
      <point x="102" y="920" type="line"/>
      <point x="438" y="920" type="line"/>
      <point x="438" y="780" type="line"/>
    </contour>
    <contour>
      <point x="235" y="320" type="curve" smooth="yes"/>
      <point x="341" y="920" type="line"/>
      <point x="490" y="920" type="line"/>
      <point x="375" y="270" type="line" smooth="yes"/>
      <point x="359.246" y="180.956"/>
      <point x="376.085" y="110"/>
      <point x="473" y="110" type="curve" smooth="yes"/>
      <point x="727" y="110"/>
      <point x="902.758" y="400.613"/>
      <point x="919" y="647" type="curve" smooth="yes"/>
      <point x="925.966" y="752.667"/>
      <point x="899" y="822"/>
      <point x="866" y="897" type="curve"/>
      <point x="1000" y="947" type="line"/>
      <point x="1047" y="866"/>
      <point x="1069.54" y="787.795"/>
      <point x="1064" y="647" type="curve" smooth="yes"/>
      <point x="1051.08" y="318.549"/>
      <point x="815" y="-20"/>
      <point x="460" y="-20" type="curve" smooth="yes"/>
      <point x="296" y="-20"/>
      <point x="222" y="38"/>
      <point x="222" y="196" type="curve" smooth="yes"/>
      <point x="222" y="222"/>
      <point x="230" y="290"/>
    </contour>
  </outline>
</glyph>
<glyph name="w" format="2">
  <advance width="1200"/>
  <unicode hex="0077"/>
  <anchor x="658" y="920" name="Anchor-0"/>
  <anchor x="477" y="0" name="Anchor-2"/>
  <outline>
    <contour>
      <point x="46" y="320" type="curve" smooth="yes"/>
      <point x="172" y="920" type="line"/>
      <point x="331" y="920" type="line"/>
      <point x="196" y="270" type="line" smooth="yes"/>
      <point x="192" y="245"/>
      <point x="189" y="223"/>
      <point x="189" y="204" type="curve" smooth="yes"/>
      <point x="189" y="143"/>
      <point x="212" y="110"/>
      <point x="264" y="110" type="curve" smooth="yes"/>
      <point x="392" y="110"/>
      <point x="475" y="267"/>
      <point x="513" y="480" type="curve"/>
      <point x="564" y="370" type="line"/>
      <point x="536" y="214"/>
      <point x="408" y="-20"/>
      <point x="211" y="-20" type="curve" smooth="yes"/>
      <point x="83" y="-20"/>
      <point x="33" y="59"/>
      <point x="33" y="189" type="curve" smooth="yes"/>
      <point x="33" y="228"/>
      <point x="38" y="272"/>
    </contour>
    <contour>
      <point x="465" y="320" type="curve" smooth="yes"/>
      <point x="591" y="920" type="line"/>
      <point x="750" y="920" type="line"/>
      <point x="615" y="270" type="line" smooth="yes"/>
      <point x="611" y="250"/>
      <point x="610" y="231"/>
      <point x="610" y="214" type="curve" smooth="yes"/>
      <point x="610" y="146"/>
      <point x="638" y="110"/>
      <point x="693" y="110" type="curve" smooth="yes"/>
      <point x="887" y="110"/>
      <point x="982.758" y="370.613"/>
      <point x="999" y="547" type="curve" smooth="yes"/>
      <point x="1008.71" y="652.45"/>
      <point x="989" y="822"/>
      <point x="956" y="897" type="curve"/>
      <point x="1080" y="947" type="line"/>
      <point x="1131" y="867"/>
      <point x="1146.03" y="697.728"/>
      <point x="1139" y="557" type="curve" smooth="yes"/>
      <point x="1126.08" y="298.549"/>
      <point x="985" y="-20"/>
      <point x="690" y="-20" type="curve" smooth="yes"/>
      <point x="556" y="-20"/>
      <point x="457" y="78"/>
      <point x="457" y="236" type="curve" smooth="yes"/>
      <point x="457" y="262"/>
      <point x="460" y="290"/>
    </contour>
  </outline>
</glyph>
<glyph name="x" format="2">
  <advance width="1200"/>
  <unicode hex="0078"/>
  <anchor x="698" y="920" name="Anchor-0"/>
  <anchor x="537" y="0" name="Anchor-2"/>
  <outline>
    <contour>
      <point x="58" y="-20" type="curve"/>
      <point x="28" y="123" type="line"/>
      <point x="235.764" y="153.57"/>
      <point x="394.835" y="309.223"/>
      <point x="558" y="493" type="curve"/>
      <point x="608" y="410" type="line"/>
      <point x="458.985" y="197.518"/>
      <point x="318" y="-20"/>
    </contour>
    <contour>
      <point x="1139" y="939" type="curve"/>
      <point x="1149" y="806" type="line"/>
      <point x="1001.24" y="775.43"/>
      <point x="842.165" y="609.777"/>
      <point x="679" y="426" type="curve"/>
      <point x="629" y="509" type="line"/>
      <point x="778.015" y="721.482"/>
      <point x="919" y="939"/>
    </contour>
    <contour>
      <point x="689" y="430" type="line" smooth="yes"/>
      <point x="690.663" y="215.405"/>
      <point x="706" y="120"/>
      <point x="814" y="120" type="curve" smooth="yes"/>
      <point x="902" y="120"/>
      <point x="999" y="190"/>
      <point x="1048" y="290" type="curve"/>
      <point x="1143" y="231" type="line"/>
      <point x="1056" y="61"/>
      <point x="934" y="-30"/>
      <point x="797" y="-30" type="curve" smooth="yes"/>
      <point x="560" y="-30"/>
      <point x="554" y="153.874"/>
      <point x="554" y="390" type="curve" smooth="yes"/>
      <point x="554" y="437" type="line"/>
      <point x="534" y="445" type="line"/>
      <point x="534" y="499" type="line" smooth="yes"/>
      <point x="534" y="714.471"/>
      <point x="527" y="789"/>
      <point x="449" y="789" type="curve" smooth="yes"/>
      <point x="371" y="789"/>
      <point x="284" y="709"/>
      <point x="225" y="639" type="curve"/>
      <point x="130" y="728" type="line"/>
      <point x="237" y="858"/>
      <point x="349" y="939"/>
      <point x="466" y="939" type="curve" smooth="yes"/>
      <point x="653" y="939"/>
      <point x="676.166" y="775.542"/>
      <point x="658" y="539" type="curve"/>
      <point x="658.264" y="505" type="line"/>
      <point x="688.496" y="495" type="line"/>
    </contour>
  </outline>
</glyph>
<glyph name="y" format="2">
  <advance width="1200"/>
  <unicode hex="0079"/>
  <anchor x="155" y="-400" name="Anchor-2"/>
  <anchor x="678" y="920" name="Anchor-0"/>
  <outline>
    <contour>
      <point x="463" y="-20" type="line"/>
      <point x="88" y="-20"/>
      <point x="124.917" y="408.549"/>
      <point x="184" y="617" type="curve" smooth="yes"/>
      <point x="222.424" y="752.564"/>
      <point x="311" y="896"/>
      <point x="358" y="947" type="curve"/>
      <point x="482" y="867" type="line"/>
      <point x="429" y="792"/>
      <point x="365.777" y="675.893"/>
      <point x="342" y="592" type="curve" smooth="yes"/>
      <point x="288.282" y="402.469"/>
      <point x="267" y="110"/>
      <point x="491" y="110" type="curve"/>
    </contour>
    <contour>
      <point x="365" y="-290" type="curve"/>
      <point x="366" y="-430" type="line"/>
      <point x="159" y="-430"/>
      <point x="67" y="-291"/>
      <point x="20" y="-171" type="curve"/>
      <point x="140" y="-112" type="line"/>
      <point x="183" y="-202"/>
      <point x="227" y="-290"/>
    </contour>
    <contour>
      <point x="491" y="110" type="line"/>
      <point x="649.061" y="110"/>
      <point x="847.722" y="261.585"/>
      <point x="881.664" y="484.444" type="curve" smooth="yes"/>
      <point x="948" y="920" type="line"/>
      <point x="1109" y="920" type="line"/>
      <point x="988" y="173" type="line" smooth="yes"/>
      <point x="921.164" y="-239.614"/>
      <point x="643" y="-430"/>
      <point x="366" y="-430" type="curve"/>
      <point x="365" y="-290" type="line"/>
      <point x="603" y="-290"/>
      <point x="799.501" y="-127.064"/>
      <point x="839" y="173" type="curve" smooth="yes"/>
      <point x="864.88" y="369.601" type="line"/>
      <point x="901" y="390" type="line"/>
      <point x="873" y="184"/>
      <point x="670" y="-20"/>
      <point x="463" y="-20" type="curve"/>
    </contour>
  </outline>
</glyph>
<glyph name="z" format="2">
  <advance width="1200"/>
  <unicode hex="007A"/>
  <anchor x="678" y="920" name="Anchor-0"/>
  <anchor x="517" y="0" name="Anchor-2"/>
  <outline>
    <contour>
      <point x="188" y="570" type="line"/>
      <point x="218" y="808"/>
      <point x="287" y="948"/>
      <point x="469" y="948" type="curve" smooth="yes"/>
      <point x="625" y="948"/>
      <point x="654" y="834"/>
      <point x="801" y="834" type="curve" smooth="yes"/>
      <point x="899" y="834"/>
      <point x="962" y="879"/>
      <point x="1032" y="982" type="curve"/>
      <point x="1149" y="887" type="line"/>
      <point x="307" y="120" type="line"/>
      <point x="277" y="90" type="line"/>
      <point x="277" y="140"/>
      <point x="393" y="181"/>
      <point x="469" y="181" type="curve" smooth="yes"/>
      <point x="579" y="181"/>
      <point x="595" y="122"/>
      <point x="706" y="122" type="curve" smooth="yes"/>
      <point x="794" y="122"/>
      <point x="867" y="147"/>
      <point x="917" y="410" type="curve"/>
      <point x="1067" y="410" type="line"/>
      <point x="1007" y="72"/>
      <point x="878" y="-28"/>
      <point x="696" y="-28" type="curve" smooth="yes"/>
      <point x="540" y="-28"/>
      <point x="491" y="86"/>
      <point x="364" y="86" type="curve" smooth="yes"/>
      <point x="266" y="86"/>
      <point x="203" y="41"/>
      <point x="133" y="-62" type="curve"/>
      <point x="16" y="33" type="line"/>
      <point x="858" y="800" type="line"/>
      <point x="871" y="804" type="line"/>
      <point x="871" y="774"/>
      <point x="779" y="729"/>
      <point x="713" y="729" type="curve" smooth="yes"/>
      <point x="604" y="729"/>
      <point x="550" y="798"/>
      <point x="459" y="798" type="curve" smooth="yes"/>
      <point x="371" y="798"/>
      <point x="358" y="733"/>
      <point x="338" y="570" type="curve"/>
    </contour>
  </outline>
</glyph>
<glyph name="braceleft" format="2">
  <advance width="1200"/>
  <unicode hex="007B"/>
  <outline>
    <contour>
      <point x="706" y="1110" type="curve" smooth="yes"/>
      <point x="712" y="974" type="line" smooth="yes"/>
      <point x="720" y="804"/>
      <point x="598" y="714"/>
      <point x="421" y="664" type="curve"/>
      <point x="425" y="684" type="line"/>
      <point x="574" y="634"/>
      <point x="664" y="558"/>
      <point x="608" y="384" type="curve" smooth="yes"/>
      <point x="542" y="179" type="line" smooth="yes"/>
      <point x="526" y="128"/>
      <point x="540" y="79"/>
      <point x="650" y="79" type="curve" smooth="yes"/>
      <point x="900" y="79" type="line"/>
      <point x="877" y="-51" type="line"/>
      <point x="637" y="-51" type="line" smooth="yes"/>
      <point x="459" y="-51"/>
      <point x="312" y="-16"/>
      <point x="372" y="179" type="curve" smooth="yes"/>
      <point x="441" y="404" type="line" smooth="yes"/>
      <point x="487" y="553"/>
      <point x="390" y="600"/>
      <point x="330" y="600" type="curve" smooth="yes"/>
      <point x="260" y="600" type="line"/>
      <point x="286" y="750" type="line"/>
      <point x="356" y="750" type="line" smooth="yes"/>
      <point x="416" y="750"/>
      <point x="537" y="797"/>
      <point x="536" y="944" type="curve" smooth="yes"/>
      <point x="536" y="1110" type="line" smooth="yes"/>
      <point x="535" y="1302"/>
      <point x="706" y="1350"/>
      <point x="884" y="1350" type="curve" smooth="yes"/>
      <point x="1124" y="1350" type="line"/>
      <point x="1101" y="1220" type="line"/>
      <point x="851" y="1220" type="line" smooth="yes"/>
      <point x="741" y="1220"/>
      <point x="704" y="1160"/>
    </contour>
  </outline>
</glyph>
<glyph name="bar" format="2">
  <advance width="1200"/>
  <unicode hex="007C"/>
  <outline>
    <contour>
      <point x="665" y="1300" type="line"/>
      <point x="833" y="1300" type="line"/>
      <point x="546" y="-330" type="line"/>
      <point x="378" y="-330" type="line"/>
    </contour>
  </outline>
</glyph>
<glyph name="braceright" format="2">
  <advance width="1200"/>
  <unicode hex="007D"/>
  <outline>
    <contour>
      <point x="563" y="189" type="curve" smooth="yes"/>
      <point x="566" y="376" type="line" smooth="yes"/>
      <point x="569" y="550"/>
      <point x="680" y="636"/>
      <point x="857" y="686" type="curve"/>
      <point x="853" y="666" type="line"/>
      <point x="704" y="716"/>
      <point x="606" y="794"/>
      <point x="670" y="966" type="curve" smooth="yes"/>
      <point x="727" y="1120" type="line" smooth="yes"/>
      <point x="746" y="1170"/>
      <point x="729" y="1220"/>
      <point x="619" y="1220" type="curve" smooth="yes"/>
      <point x="369" y="1220" type="line"/>
      <point x="392" y="1350" type="line"/>
      <point x="632" y="1350" type="line" smooth="yes"/>
      <point x="810" y="1350"/>
      <point x="964" y="1312"/>
      <point x="897" y="1120" type="curve" smooth="yes"/>
      <point x="837" y="946" type="line" smooth="yes"/>
      <point x="785" y="798"/>
      <point x="888" y="750"/>
      <point x="948" y="750" type="curve" smooth="yes"/>
      <point x="1018" y="750" type="line"/>
      <point x="992" y="600" type="line"/>
      <point x="922" y="600" type="line" smooth="yes"/>
      <point x="862" y="600"/>
      <point x="748" y="555"/>
      <point x="742" y="406" type="curve" smooth="yes"/>
      <point x="733" y="189" type="line" smooth="yes"/>
      <point x="726" y="-5"/>
      <point x="563" y="-51"/>
      <point x="385" y="-51" type="curve" smooth="yes"/>
      <point x="145" y="-51" type="line"/>
      <point x="168" y="79" type="line"/>
      <point x="418" y="79" type="line" smooth="yes"/>
      <point x="528" y="79"/>
      <point x="562" y="138"/>
    </contour>
  </outline>
</glyph>
<glyph name="asciitilde" format="2">
  <advance width="1200"/>
  <unicode hex="007E"/>
  <outline>
    <contour>
      <point x="173" y="539" type="line"/>
      <point x="206" y="727"/>
      <point x="315" y="837"/>
      <point x="457" y="837" type="curve" smooth="yes"/>
      <point x="594" y="837"/>
      <point x="639" y="772"/>
      <point x="689" y="725" type="curve" smooth="yes"/>
      <point x="739" y="676"/>
      <point x="778" y="643"/>
      <point x="834" y="643" type="curve" smooth="yes"/>
      <point x="902" y="643"/>
      <point x="955" y="698"/>
      <point x="975" y="811" type="curve"/>
      <point x="1105" y="811" type="line"/>
      <point x="1072" y="622"/>
      <point x="963" y="513"/>
      <point x="821" y="513" type="curve" smooth="yes"/>
      <point x="684" y="513"/>
      <point x="639" y="578"/>
      <point x="589" y="625" type="curve" smooth="yes"/>
      <point x="539" y="674"/>
      <point x="500" y="707"/>
      <point x="444" y="707" type="curve" smooth="yes"/>
      <point x="376" y="707"/>
      <point x="323" y="652"/>
      <point x="303" y="539" type="curve"/>
    </contour>
  </outline>
</glyph>
<glyph name="cent" format="2">
  <advance width="1200"/>
  <unicode hex="00A2"/>
  <outline>
    <contour>
      <point x="1099" y="797" type="curve"/>
      <point x="1003" y="680" type="line"/>
      <point x="962" y="733"/>
      <point x="838" y="800"/>
      <point x="711" y="800" type="curve"/>
      <point x="746" y="940" type="line"/>
      <point x="902" y="940"/>
      <point x="1034" y="880"/>
    </contour>
    <contour>
      <point x="617" y="40" type="line"/>
      <point x="604" y="-260" type="line"/>
      <point x="424" y="-260" type="line"/>
      <point x="517" y="40" type="line"/>
    </contour>
    <contour>
      <point x="665" y="880" type="line"/>
      <point x="678" y="1180" type="line"/>
      <point x="858" y="1180" type="line"/>
      <point x="765" y="880" type="line"/>
    </contour>
    <contour>
      <point x="711" y="800" type="line"/>
      <point x="518" y="800"/>
      <point x="345" y="671"/>
      <point x="306" y="448" type="curve" smooth="yes"/>
      <point x="267" y="225"/>
      <point x="378" y="125"/>
      <point x="596" y="125" type="curve"/>
      <point x="560" y="-20" type="line"/>
      <point x="229" y="-20"/>
      <point x="84" y="164"/>
      <point x="131" y="430" type="curve" smooth="yes"/>
      <point x="185" y="736"/>
      <point x="434" y="940"/>
      <point x="746" y="940" type="curve"/>
    </contour>
    <contour>
      <point x="980" y="103" type="line"/>
      <point x="887" y="30"/>
      <point x="696" y="-20"/>
      <point x="560" y="-20" type="curve"/>
      <point x="596" y="125" type="line"/>
      <point x="703" y="125"/>
      <point x="868" y="177"/>
      <point x="926" y="220" type="curve"/>
    </contour>
  </outline>
</glyph>
<glyph name="sterling" format="2">
  <advance width="1200"/>
  <unicode hex="00A3"/>
  <outline>
    <contour>
      <point x="141" y="690" type="line"/>
      <point x="793" y="690" type="line"/>
      <point x="770" y="560" type="line"/>
      <point x="118" y="560" type="line"/>
    </contour>
    <contour>
      <point x="1158" y="950" type="curve"/>
      <point x="998" y="950" type="line"/>
      <point x="1001" y="1083"/>
      <point x="931" y="1176"/>
      <point x="793" y="1176" type="curve" smooth="yes"/>
      <point x="645" y="1176"/>
      <point x="522" y="1082"/>
      <point x="484" y="870" type="curve"/>
      <point x="440" y="620"/>
      <point x="467" y="380"/>
      <point x="303" y="130" type="curve"/>
      <point x="1022" y="130" type="line"/>
      <point x="999" y="0" type="line"/>
      <point x="30" y="0" type="line"/>
      <point x="53" y="130" type="line"/>
      <point x="143" y="130" type="line"/>
      <point x="307" y="380"/>
      <point x="280" y="620"/>
      <point x="324" y="870" type="curve"/>
      <point x="369" y="1125"/>
      <point x="548" y="1320"/>
      <point x="814" y="1320" type="curve" smooth="yes"/>
      <point x="1060" y="1320"/>
      <point x="1184" y="1156"/>
    </contour>
  </outline>
</glyph>
<glyph name="currency" format="2">
  <advance width="1200"/>
  <unicode hex="00A4"/>
  <outline>
    <contour>
      <point x="848" y="243" type="line"/>
      <point x="1056" y="59" type="line"/>
      <point x="906" y="-69" type="line"/>
      <point x="764" y="172" type="line"/>
    </contour>
    <contour>
      <point x="342" y="677" type="line"/>
      <point x="134" y="861" type="line"/>
      <point x="284" y="989" type="line"/>
      <point x="426" y="748" type="line"/>
    </contour>
    <contour>
      <point x="866" y="749" type="line"/>
      <point x="1092" y="989" type="line"/>
      <point x="1198" y="862" type="line"/>
      <point x="925" y="678" type="line"/>
    </contour>
    <contour>
      <point x="324" y="172" type="line"/>
      <point x="98" y="-69" type="line"/>
      <point x="-7" y="59" type="line"/>
      <point x="266" y="243" type="line"/>
    </contour>
    <contour>
      <point x="518" y="20" type="curve" smooth="yes"/>
      <point x="252" y="20"/>
      <point x="117" y="174"/>
      <point x="167" y="460" type="curve" smooth="yes"/>
      <point x="216" y="736"/>
      <point x="426" y="900"/>
      <point x="673" y="900" type="curve" smooth="yes"/>
      <point x="920" y="900"/>
      <point x="1084" y="736"/>
      <point x="1035" y="460" type="curve" smooth="yes"/>
      <point x="985" y="174"/>
      <point x="794" y="20"/>
    </contour>
    <contour>
      <point x="649" y="765" type="curve" smooth="yes"/>
      <point x="491" y="765"/>
      <point x="373" y="643"/>
      <point x="341" y="460" type="curve" smooth="yes"/>
      <point x="307" y="267"/>
      <point x="363" y="155"/>
      <point x="541" y="155" type="curve" smooth="yes"/>
      <point x="719" y="155"/>
      <point x="827" y="267"/>
      <point x="861" y="460" type="curve" smooth="yes"/>
      <point x="893" y="643"/>
      <point x="807" y="765"/>
    </contour>
  </outline>
</glyph>
<glyph name="yen" format="2">
  <advance width="1200"/>
  <unicode hex="00A5"/>
  <outline>
    <contour>
      <point x="179" y="1300" type="line"/>
      <point x="657" y="1300" type="line"/>
      <point x="634" y="1170" type="line"/>
      <point x="156" y="1170" type="line"/>
    </contour>
    <contour>
      <point x="859" y="1300" type="line"/>
      <point x="1319" y="1300" type="line"/>
      <point x="1296" y="1170" type="line"/>
      <point x="836" y="1170" type="line"/>
    </contour>
    <contour>
      <point x="430" y="0" type="line"/>
      <point x="529" y="560" type="line"/>
      <point x="236" y="1300" type="line"/>
      <point x="403" y="1300" type="line"/>
      <point x="650" y="630" type="line"/>
      <point x="601" y="630" type="line"/>
      <point x="1097" y="1300" type="line"/>
      <point x="1264" y="1300" type="line"/>
      <point x="698" y="560" type="line"/>
      <point x="599" y="0" type="line"/>
    </contour>
    <contour>
      <point x="523" y="530" type="line"/>
      <point x="222" y="520" type="line"/>
      <point x="248" y="670" type="line"/>
      <point x="541" y="630" type="line"/>
    </contour>
    <contour>
      <point x="472" y="240" type="line"/>
      <point x="165" y="200" type="line"/>
      <point x="192" y="350" type="line"/>
      <point x="490" y="340" type="line"/>
    </contour>
    <contour>
      <point x="659" y="340" type="line"/>
      <point x="961" y="350" type="line"/>
      <point x="934" y="200" type="line"/>
      <point x="641" y="240" type="line"/>
    </contour>
    <contour>
      <point x="710" y="630" type="line"/>
      <point x="1017" y="670" type="line"/>
      <point x="991" y="520" type="line"/>
      <point x="692" y="530" type="line"/>
    </contour>
  </outline>
</glyph>
<glyph name="brokenbar" format="2">
  <advance width="1200"/>
  <unicode hex="00A6"/>
  <outline>
    <contour>
      <point x="498" y="350" type="line"/>
      <point x="666" y="350" type="line"/>
      <point x="546" y="-330" type="line"/>
      <point x="378" y="-330" type="line"/>
    </contour>
    <contour>
      <point x="665" y="1300" type="line"/>
      <point x="833" y="1300" type="line"/>
      <point x="713" y="620" type="line"/>
      <point x="545" y="620" type="line"/>
    </contour>
  </outline>
</glyph>
<glyph name="section" format="2">
  <advance width="1200"/>
  <unicode hex="00A7"/>
  <outline>
    <contour>
      <point x="1113" y="1159" type="curve"/>
      <point x="983" y="1050" type="line"/>
      <point x="916" y="1123"/>
      <point x="827" y="1164"/>
      <point x="699" y="1164" type="curve" smooth="yes"/>
      <point x="548" y="1164"/>
      <point x="467" y="1102"/>
      <point x="454" y="1028" type="curve" smooth="yes"/>
      <point x="436" y="924"/>
      <point x="563" y="850"/>
      <point x="693" y="809" type="curve" smooth="yes"/>
      <point x="916" y="738"/>
      <point x="1066" y="684"/>
      <point x="1031" y="486" type="curve" smooth="yes"/>
      <point x="994" y="276"/>
      <point x="778" y="171"/>
      <point x="556" y="171" type="curve"/>
      <point x="572" y="261" type="line"/>
      <point x="724" y="261"/>
      <point x="844" y="347"/>
      <point x="863" y="456" type="curve" smooth="yes"/>
      <point x="885" y="582"/>
      <point x="774" y="614"/>
      <point x="605" y="661" type="curve" smooth="yes"/>
      <point x="434" y="709"/>
      <point x="245" y="794"/>
      <point x="283" y="1010" type="curve" smooth="yes"/>
      <point x="309" y="1156"/>
      <point x="464" y="1310"/>
      <point x="740" y="1310" type="curve" smooth="yes"/>
      <point x="936" y="1310"/>
      <point x="1053" y="1229"/>
    </contour>
    <contour>
      <point x="611" y="664" type="line"/>
      <point x="430" y="664"/>
      <point x="350" y="552"/>
      <point x="339" y="488" type="curve" smooth="yes"/>
      <point x="314" y="344"/>
      <point x="463" y="299"/>
      <point x="597" y="269" type="curve" smooth="yes"/>
      <point x="824" y="218"/>
      <point x="969" y="134"/>
      <point x="932" y="-74" type="curve" smooth="yes"/>
      <point x="895" y="-284"/>
      <point x="678" y="-399"/>
      <point x="456" y="-399" type="curve" smooth="yes"/>
      <point x="239" y="-399"/>
      <point x="69" y="-323"/>
      <point x="-13" y="-219" type="curve"/>
      <point x="102" y="-108" type="line"/>
      <point x="178" y="-185"/>
      <point x="308" y="-259"/>
      <point x="480" y="-259" type="curve" smooth="yes"/>
      <point x="632" y="-259"/>
      <point x="749" y="-193"/>
      <point x="768" y="-84" type="curve" smooth="yes"/>
      <point x="788" y="32"/>
      <point x="678" y="74"/>
      <point x="509" y="121" type="curve" smooth="yes"/>
      <point x="338" y="169"/>
      <point x="140" y="254"/>
      <point x="178" y="470" type="curve" smooth="yes"/>
      <point x="202" y="606"/>
      <point x="364" y="745"/>
      <point x="640" y="745" type="curve"/>
    </contour>
  </outline>
</glyph>
<glyph name="dieresis" format="2">
  <advance width="1200"/>
  <unicode hex="00A8"/>
  <outline>
    <contour>
      <point x="848" y="1240" type="curve" smooth="yes"/>
      <point x="848" y="1306"/>
      <point x="894" y="1352"/>
      <point x="960" y="1352" type="curve" smooth="yes"/>
      <point x="1026" y="1352"/>
      <point x="1072" y="1306"/>
      <point x="1072" y="1240" type="curve" smooth="yes"/>
      <point x="1072" y="1174"/>
      <point x="1030" y="1128"/>
      <point x="964" y="1128" type="curve" smooth="yes"/>
      <point x="898" y="1128"/>
      <point x="848" y="1174"/>
    </contour>
    <contour>
      <point x="408" y="1240" type="curve" smooth="yes"/>
      <point x="408" y="1306"/>
      <point x="454" y="1352"/>
      <point x="520" y="1352" type="curve" smooth="yes"/>
      <point x="586" y="1352"/>
      <point x="632" y="1306"/>
      <point x="632" y="1240" type="curve" smooth="yes"/>
      <point x="632" y="1174"/>
      <point x="590" y="1128"/>
      <point x="524" y="1128" type="curve" smooth="yes"/>
      <point x="458" y="1128"/>
      <point x="408" y="1174"/>
    </contour>
  </outline>
</glyph>
<glyph name="copyright" format="2">
  <advance width="1200"/>
  <unicode hex="00A9"/>
  <outline>
    <contour>
      <point x="875" y="576" type="curve"/>
      <point x="770" y="524" type="line"/>
      <point x="759" y="601"/>
      <point x="715" y="648"/>
      <point x="646" y="648" type="curve"/>
      <point x="671" y="746" type="line"/>
      <point x="790" y="746"/>
      <point x="871" y="644"/>
    </contour>
    <contour>
      <point x="646" y="648" type="line"/>
      <point x="541" y="648"/>
      <point x="464" y="588"/>
      <point x="444" y="472" type="curve" smooth="yes"/>
      <point x="424" y="356"/>
      <point x="481" y="286"/>
      <point x="584" y="286" type="curve"/>
      <point x="559" y="184" type="line"/>
      <point x="367" y="184"/>
      <point x="296" y="313"/>
      <point x="322" y="459" type="curve" smooth="yes"/>
      <point x="353" y="633"/>
      <point x="483" y="746"/>
      <point x="671" y="746" type="curve"/>
    </contour>
    <contour>
      <point x="844" y="330" type="line"/>
      <point x="787" y="269"/>
      <point x="684" y="184"/>
      <point x="559" y="184" type="curve"/>
      <point x="584" y="286" type="line"/>
      <point x="669" y="286"/>
      <point x="740" y="352"/>
      <point x="772" y="392" type="curve"/>
    </contour>
    <contour>
      <point x="530" y="-20" type="curve" smooth="yes"/>
      <point x="254" y="-20"/>
      <point x="41" y="144"/>
      <point x="97" y="460" type="curve" smooth="yes"/>
      <point x="151" y="766"/>
      <point x="403" y="940"/>
      <point x="660" y="940" type="curve" smooth="yes"/>
      <point x="917" y="940"/>
      <point x="1159" y="766"/>
      <point x="1105" y="460" type="curve" smooth="yes"/>
      <point x="1049" y="144"/>
      <point x="806" y="-20"/>
    </contour>
    <contour>
      <point x="661" y="835" type="curve" smooth="yes"/>
      <point x="453" y="835"/>
      <point x="256" y="713"/>
      <point x="211" y="460" type="curve" smooth="yes"/>
      <point x="165" y="197"/>
      <point x="301" y="85"/>
      <point x="529" y="85" type="curve" smooth="yes"/>
      <point x="757" y="85"/>
      <point x="945" y="197"/>
      <point x="991" y="460" type="curve" smooth="yes"/>
      <point x="1036" y="713"/>
      <point x="869" y="835"/>
    </contour>
  </outline>
</glyph>
<glyph name="ordfeminine" format="2">
  <advance width="1200"/>
  <unicode hex="00AA"/>
  <outline>
    <contour>
      <point x="998" y="1104" type="curve" smooth="yes"/>
      <point x="919" y="656" type="line"/>
      <point x="769" y="656" type="line"/>
      <point x="848" y="1104" type="line" smooth="yes"/>
      <point x="859" y="1169"/>
      <point x="849" y="1203"/>
      <point x="772" y="1203" type="curve" smooth="yes"/>
      <point x="699" y="1203"/>
      <point x="593" y="1157"/>
      <point x="507" y="1103" type="curve"/>
      <point x="444" y="1202" type="line"/>
      <point x="540" y="1269"/>
      <point x="676" y="1321"/>
      <point x="793" y="1321" type="curve" smooth="yes"/>
      <point x="959" y="1321"/>
      <point x="1017" y="1214"/>
    </contour>
    <contour>
      <point x="481" y="831" type="curve" smooth="yes"/>
      <point x="473" y="785"/>
      <point x="514" y="764"/>
      <point x="556" y="764" type="curve" smooth="yes"/>
      <point x="633" y="764"/>
      <point x="769" y="818"/>
      <point x="850" y="883" type="curve"/>
      <point x="881" y="820" type="line"/>
      <point x="776" y="739"/>
      <point x="659" y="649"/>
      <point x="498" y="649" type="curve" smooth="yes"/>
      <point x="388" y="649"/>
      <point x="311" y="715"/>
      <point x="329" y="817" type="curve" smooth="yes"/>
      <point x="360" y="994"/>
      <point x="600" y="1033"/>
      <point x="864" y="1090" type="curve"/>
      <point x="875" y="992" type="line"/>
      <point x="631" y="939"/>
      <point x="494" y="902"/>
    </contour>
  </outline>
</glyph>
<glyph name="guillemotleft" format="2">
  <advance width="1200"/>
  <unicode hex="00AB"/>
  <outline>
    <contour>
      <point x="602" y="525" type="line"/>
      <point x="1003" y="920" type="line"/>
      <point x="1084" y="835" type="line"/>
      <point x="777" y="510" type="line"/>
      <point x="958" y="200" type="line"/>
      <point x="864" y="130" type="line"/>
    </contour>
    <contour>
      <point x="202" y="525" type="line"/>
      <point x="603" y="920" type="line"/>
      <point x="684" y="835" type="line"/>
      <point x="377" y="510" type="line"/>
      <point x="558" y="200" type="line"/>
      <point x="464" y="130" type="line"/>
    </contour>
  </outline>
</glyph>
<glyph name="logicalnot" format="2">
  <advance width="1200"/>
  <unicode hex="00AC"/>
  <outline>
    <contour>
      <point x="319" y="740" type="line"/>
      <point x="981" y="740" type="line"/>
      <point x="927" y="430" type="line"/>
      <point x="787" y="430" type="line"/>
      <point x="819" y="610" type="line"/>
      <point x="297" y="610" type="line"/>
    </contour>
  </outline>
</glyph>
<glyph name="registered" format="2">
  <advance width="1200"/>
  <unicode hex="00AE"/>
  <outline>
    <contour>
      <point x="677" y="406" type="line"/>
      <point x="777" y="236" type="line"/>
      <point x="655" y="186" type="line"/>
      <point x="564" y="406" type="line"/>
    </contour>
    <contour>
      <point x="347" y="196" type="line"/>
      <point x="438" y="714" type="line"/>
      <point x="643" y="714" type="line" smooth="yes"/>
      <point x="783" y="714"/>
      <point x="857" y="671"/>
      <point x="834" y="542" type="curve" smooth="yes"/>
      <point x="812" y="420"/>
      <point x="710" y="376"/>
      <point x="583" y="376" type="curve" smooth="yes"/>
      <point x="489" y="376" type="line"/>
      <point x="458" y="196" type="line"/>
    </contour>
    <contour>
      <point x="505" y="467" type="line"/>
      <point x="599" y="467" type="line" smooth="yes"/>
      <point x="672" y="467"/>
      <point x="712" y="486"/>
      <point x="722" y="542" type="curve" smooth="yes"/>
      <point x="733" y="605"/>
      <point x="704" y="624"/>
      <point x="627" y="624" type="curve" smooth="yes"/>
      <point x="533" y="624" type="line"/>
    </contour>
    <contour>
      <point x="530" y="-20" type="curve" smooth="yes"/>
      <point x="254" y="-20"/>
      <point x="41" y="144"/>
      <point x="97" y="460" type="curve" smooth="yes"/>
      <point x="151" y="766"/>
      <point x="403" y="940"/>
      <point x="660" y="940" type="curve" smooth="yes"/>
      <point x="917" y="940"/>
      <point x="1159" y="766"/>
      <point x="1105" y="460" type="curve" smooth="yes"/>
      <point x="1049" y="144"/>
      <point x="806" y="-20"/>
    </contour>
    <contour>
      <point x="661" y="835" type="curve" smooth="yes"/>
      <point x="453" y="835"/>
      <point x="256" y="713"/>
      <point x="211" y="460" type="curve" smooth="yes"/>
      <point x="165" y="197"/>
      <point x="301" y="85"/>
      <point x="529" y="85" type="curve" smooth="yes"/>
      <point x="757" y="85"/>
      <point x="945" y="197"/>
      <point x="991" y="460" type="curve" smooth="yes"/>
      <point x="1036" y="713"/>
      <point x="869" y="835"/>
    </contour>
  </outline>
</glyph>
<glyph name="degree" format="2">
  <advance width="1200"/>
  <unicode hex="00B0"/>
  <outline>
    <contour>
      <point x="676" y="848" type="curve" smooth="yes"/>
      <point x="523" y="848"/>
      <point x="434" y="943"/>
      <point x="459" y="1084" type="curve" smooth="yes"/>
      <point x="483" y="1218"/>
      <point x="599" y="1320"/>
      <point x="739" y="1320" type="curve" smooth="yes"/>
      <point x="869" y="1320"/>
      <point x="977" y="1218"/>
      <point x="953" y="1084" type="curve" smooth="yes"/>
      <point x="928" y="943"/>
      <point x="819" y="848"/>
    </contour>
    <contour>
      <point x="730" y="1216" type="curve" smooth="yes"/>
      <point x="652" y="1216"/>
      <point x="595" y="1163"/>
      <point x="581" y="1084" type="curve" smooth="yes"/>
      <point x="566" y="998"/>
      <point x="602" y="952"/>
      <point x="684" y="952" type="curve" smooth="yes"/>
      <point x="766" y="952"/>
      <point x="816" y="998"/>
      <point x="831" y="1084" type="curve" smooth="yes"/>
      <point x="845" y="1163"/>
      <point x="808" y="1216"/>
    </contour>
  </outline>
</glyph>
<glyph name="plusminus" format="2">
  <advance width="1200"/>
  <unicode hex="00B1"/>
  <outline>
    <contour>
      <point x="172" y="130" type="line"/>
      <point x="914" y="130" type="line"/>
      <point x="891" y="0" type="line"/>
      <point x="149" y="0" type="line"/>
    </contour>
    <contour>
      <point x="641" y="1030" type="line"/>
      <point x="763" y="1030" type="line"/>
      <point x="637" y="320" type="line"/>
      <point x="515" y="320" type="line"/>
    </contour>
    <contour>
      <point x="278" y="730" type="line"/>
      <point x="1020" y="730" type="line"/>
      <point x="1000" y="620" type="line"/>
      <point x="258" y="620" type="line"/>
    </contour>
  </outline>
</glyph>
<glyph name="acute" format="2">
  <advance width="1200"/>
  <unicode hex="00B4"/>
  <outline>
    <contour>
      <point x="555.078" y="1095" type="line"/>
      <point x="773.271" y="1391" type="line"/>
      <point x="927.638" y="1291" type="line"/>
      <point x="642.735" y="1025" type="line"/>
    </contour>
  </outline>
</glyph>
<glyph name="mu" format="2">
  <advance width="1200"/>
  <unicode hex="00B5"/>
  <outline>
    <contour>
      <point x="234" y="920" type="line"/>
      <point x="398" y="920" type="line"/>
      <point x="165" y="-400" type="line"/>
      <point x="1" y="-400" type="line"/>
    </contour>
    <contour>
      <point x="923" y="130" type="line"/>
      <point x="1083" y="130" type="line"/>
      <point x="1060" y="0" type="line"/>
      <point x="900" y="0" type="line"/>
    </contour>
    <contour>
      <point x="184" y="350" type="curve" smooth="yes"/>
      <point x="284" y="920" type="line"/>
      <point x="398" y="920" type="line"/>
      <point x="296" y="340" type="line" smooth="yes"/>
      <point x="269" y="187"/>
      <point x="323" y="110"/>
      <point x="451" y="110" type="curve" smooth="yes"/>
      <point x="619" y="110"/>
      <point x="783" y="267"/>
      <point x="829" y="530" type="curve" smooth="yes"/>
      <point x="898" y="920" type="line"/>
      <point x="1062" y="920" type="line"/>
      <point x="900" y="0" type="line"/>
      <point x="776" y="0" type="line"/>
      <point x="770" y="190" type="line"/>
      <point x="881" y="370" type="line"/>
      <point x="853" y="214"/>
      <point x="690" y="-20"/>
      <point x="423" y="-20" type="curve" smooth="yes"/>
      <point x="231" y="-20"/>
      <point x="142" y="114"/>
    </contour>
  </outline>
</glyph>
<glyph name="paragraph" format="2">
  <advance width="1200"/>
  <unicode hex="00B6"/>
  <outline>
    <contour>
      <point x="695" y="-210" type="line"/>
      <point x="942" y="1190" type="line"/>
      <point x="1081" y="1190" type="line"/>
      <point x="834" y="-210" type="line"/>
    </contour>
    <contour>
      <point x="415" y="-210" type="line"/>
      <point x="545" y="530" type="line"/>
      <point x="472" y="530" type="line" smooth="yes"/>
      <point x="305" y="530"/>
      <point x="137" y="664"/>
      <point x="180" y="910" type="curve" smooth="yes"/>
      <point x="225" y="1166"/>
      <point x="422" y="1300"/>
      <point x="708" y="1300" type="curve" smooth="yes"/>
      <point x="1270" y="1300" type="line"/>
      <point x="1246" y="1160" type="line"/>
      <point x="801" y="1190" type="line"/>
      <point x="554" y="-210" type="line"/>
    </contour>
  </outline>
</glyph>
<glyph name="periodcentered" format="2">
  <advance width="1200"/>
  <unicode hex="00B7"/>
  <outline>
    <contour>
      <point x="528" y="676" type="curve" smooth="yes"/>
      <point x="528" y="742"/>
      <point x="574" y="788"/>
      <point x="640" y="788" type="curve" smooth="yes"/>
      <point x="706" y="788"/>
      <point x="752" y="742"/>
      <point x="752" y="676" type="curve" smooth="yes"/>
      <point x="752" y="610"/>
      <point x="710" y="564"/>
      <point x="644" y="564" type="curve" smooth="yes"/>
      <point x="578" y="564"/>
      <point x="528" y="610"/>
    </contour>
  </outline>
</glyph>
<glyph name="cedilla" format="2">
  <advance width="1200"/>
  <unicode hex="00B8"/>
  <outline>
    <contour>
      <point x="421" y="-490" type="curve" smooth="yes"/>
      <point x="337" y="-490"/>
      <point x="251" y="-474"/>
      <point x="202" y="-434" type="curve"/>
      <point x="266" y="-334" type="line"/>
      <point x="316" y="-366"/>
      <point x="359" y="-372"/>
      <point x="411" y="-372" type="curve" smooth="yes"/>
      <point x="505" y="-372"/>
      <point x="555" y="-354"/>
      <point x="564" y="-302" type="curve" smooth="yes"/>
      <point x="572" y="-254"/>
      <point x="514" y="-230"/>
      <point x="376" y="-230" type="curve"/>
      <point x="362" y="-176" type="line"/>
      <point x="575" y="70" type="line"/>
      <point x="707" y="70" type="line"/>
      <point x="471" y="-194" type="line"/>
      <point x="418" y="-224" type="line"/>
      <point x="445" y="-184"/>
      <point x="508" y="-154"/>
      <point x="558" y="-154" type="curve" smooth="yes"/>
      <point x="644" y="-154"/>
      <point x="726" y="-202"/>
      <point x="708" y="-302" type="curve" smooth="yes"/>
      <point x="685" y="-430"/>
      <point x="575" y="-490"/>
    </contour>
  </outline>
</glyph>
<glyph name="ordmasculine" format="2">
  <advance width="1200"/>
  <unicode hex="00BA"/>
  <outline>
    <contour>
      <point x="630" y="648" type="curve" smooth="yes"/>
      <point x="437" y="648"/>
      <point x="323" y="763"/>
      <point x="362" y="984" type="curve" smooth="yes"/>
      <point x="400" y="1198"/>
      <point x="569" y="1320"/>
      <point x="749" y="1320" type="curve" smooth="yes"/>
      <point x="929" y="1320"/>
      <point x="1064" y="1198"/>
      <point x="1026" y="984" type="curve" smooth="yes"/>
      <point x="987" y="763"/>
      <point x="823" y="648"/>
    </contour>
    <contour>
      <point x="729" y="1206" type="curve" smooth="yes"/>
      <point x="631" y="1206"/>
      <point x="530" y="1133"/>
      <point x="504" y="984" type="curve" smooth="yes"/>
      <point x="476" y="828"/>
      <point x="538" y="762"/>
      <point x="650" y="762" type="curve" smooth="yes"/>
      <point x="762" y="762"/>
      <point x="856" y="828"/>
      <point x="884" y="984" type="curve" smooth="yes"/>
      <point x="910" y="1133"/>
      <point x="827" y="1206"/>
    </contour>
  </outline>
</glyph>
<glyph name="onequarter" format="2">
  <advance width="1200"/>
  <unicode hex="00BC"/>
  <outline>
    <contour>
      <point x="99" y="680" type="line"/>
      <point x="1101" y="680" type="line"/>
      <point x="1101" y="570" type="line"/>
      <point x="99" y="570" type="line"/>
    </contour>
    <component base="uni2071" xOffset="30" yOffset="300"/>
    <component base="uni2074" xOffset="-190" yOffset="-1010"/>
  </outline>
</glyph>
<glyph name="onehalf" format="2">
  <advance width="1200"/>
  <unicode hex="00BD"/>
  <outline>
    <contour>
      <point x="99" y="680" type="line"/>
      <point x="1101" y="680" type="line"/>
      <point x="1101" y="570" type="line"/>
      <point x="99" y="570" type="line"/>
    </contour>
    <component base="uni2071" xOffset="30" yOffset="300"/>
    <component base="uni2072" xOffset="-190" yOffset="-1010"/>
  </outline>
</glyph>
<glyph name="AE" format="2">
  <advance width="1200"/>
  <unicode hex="00C6"/>
  <outline>
    <contour>
      <point x="280" y="1300" type="line"/>
      <point x="629" y="1300" type="line"/>
      <point x="610" y="1190" type="line"/>
      <point x="257" y="1170" type="line"/>
    </contour>
    <contour>
      <point x="55" y="-20" type="line"/>
      <point x="-117" y="-20" type="line"/>
      <point x="629" y="1300" type="line"/>
      <point x="829" y="1300" type="line"/>
      <point x="737" y="1230" type="line"/>
    </contour>
    <contour>
      <point x="227" y="500" type="line"/>
      <point x="740" y="500" type="line"/>
      <point x="717" y="370" type="line"/>
      <point x="204" y="370" type="line"/>
    </contour>
    <contour>
      <point x="1061" y="740" type="line"/>
      <point x="1038" y="605" type="line"/>
      <point x="787" y="615" type="line"/>
      <point x="702" y="130" type="line"/>
      <point x="931" y="130" type="line"/>
      <point x="1020" y="450" type="line"/>
      <point x="1139" y="450" type="line"/>
      <point x="1060" y="0" type="line"/>
      <point x="370" y="0" type="line"/>
      <point x="393" y="130" type="line"/>
      <point x="533" y="130" type="line"/>
      <point x="739" y="1300" type="line"/>
      <point x="1249" y="1300" type="line"/>
      <point x="1219" y="900" type="line"/>
      <point x="1100" y="900" type="line"/>
      <point x="1077" y="1170" type="line"/>
      <point x="885" y="1170" type="line"/>
      <point x="808" y="730" type="line"/>
    </contour>
  </outline>
</glyph>
<glyph name="multiply" format="2">
  <advance width="1200"/>
  <unicode hex="00D7"/>
  <outline>
    <contour>
      <point x="310" y="887" type="line"/>
      <point x="388" y="965" type="line"/>
      <point x="890" y="463" type="line"/>
      <point x="812" y="385" type="line"/>
    </contour>
    <contour>
      <point x="299" y="452" type="line"/>
      <point x="823" y="976" type="line"/>
      <point x="901" y="898" type="line"/>
      <point x="377" y="374" type="line"/>
    </contour>
  </outline>
</glyph>
<glyph name="Oslash" format="2">
  <advance width="1200"/>
  <unicode hex="00D8"/>
  <outline>
    <contour>
      <point x="969.5" y="1415" type="line"/>
      <point x="1101.5" y="1355" type="line"/>
      <point x="331.5" y="-105" type="line"/>
      <point x="199.5" y="-45" type="line"/>
    </contour>
    <component base="O" xOffset="0.5"/>
  </outline>
</glyph>
<glyph name="Thorn" format="2">
  <advance width="1200"/>
  <unicode hex="00DE"/>
  <outline>
    <contour>
      <point x="20" y="0" type="line"/>
      <point x="43" y="130" type="line"/>
      <point x="213" y="130" type="line"/>
      <point x="396" y="1170" type="line"/>
      <point x="226" y="1170" type="line"/>
      <point x="249" y="1300" type="line"/>
      <point x="578" y="1300" type="line"/>
      <point x="534" y="1050" type="line"/>
      <point x="787" y="1050" type="line" smooth="yes"/>
      <point x="1073" y="1050"/>
      <point x="1205" y="926"/>
      <point x="1163" y="690" type="curve" smooth="yes"/>
      <point x="1123" y="464"/>
      <point x="929" y="340"/>
      <point x="662" y="340" type="curve" smooth="yes"/>
      <point x="409" y="340" type="line"/>
      <point x="372" y="130" type="line"/>
      <point x="612" y="130" type="line"/>
      <point x="589" y="0" type="line"/>
    </contour>
    <contour>
      <point x="432" y="470" type="line"/>
      <point x="685" y="470" type="line" smooth="yes"/>
      <point x="883" y="470"/>
      <point x="981" y="567"/>
      <point x="1003" y="690" type="curve" smooth="yes"/>
      <point x="1026" y="823"/>
      <point x="982" y="920"/>
      <point x="764" y="920" type="curve" smooth="yes"/>
      <point x="511" y="920" type="line"/>
    </contour>
  </outline>
</glyph>
<glyph name="germandbls" format="2">
  <advance width="1200"/>
  <unicode hex="00DF"/>
  <anchor x="1010" y="1420" name="Anchor-0"/>
  <anchor x="436" y="0" name="Anchor-2"/>
  <outline>
    <contour>
      <point x="63" y="-330" type="line"/>
      <point x="295" y="1000" type="line" smooth="yes"/>
      <point x="338" y="1246"/>
      <point x="456" y="1440"/>
      <point x="763" y="1440" type="curve"/>
      <point x="758" y="1300" type="line"/>
      <point x="570" y="1300"/>
      <point x="482" y="1153"/>
      <point x="455" y="1000" type="curve" smooth="yes"/>
      <point x="222" y="-330" type="line"/>
    </contour>
    <contour>
      <point x="763" y="1440" type="line"/>
      <point x="981" y="1440"/>
      <point x="1082" y="1321"/>
      <point x="1057" y="1179" type="curve" smooth="yes"/>
      <point x="1033" y="1042"/>
      <point x="953" y="1000"/>
      <point x="892" y="947" type="curve" smooth="yes"/>
      <point x="834" y="898"/>
      <point x="787" y="873"/>
      <point x="777" y="817" type="curve" smooth="yes"/>
      <point x="765" y="749"/>
      <point x="837.494" y="749.979"/>
      <point x="924" y="696" type="curve" smooth="yes"/>
      <point x="1049" y="618"/>
      <point x="1114.98" y="554.585"/>
      <point x="1100" y="346" type="curve" smooth="yes"/>
      <point x="1086" y="151"/>
      <point x="929" y="1"/>
      <point x="711" y="1" type="curve" smooth="yes"/>
      <point x="657" y="1"/>
      <point x="568" y="11"/>
      <point x="508" y="43" type="curve"/>
      <point x="581" y="178" type="line"/>
      <point x="627" y="152"/>
      <point x="671" y="145"/>
      <point x="709" y="145" type="curve" smooth="yes"/>
      <point x="839" y="145"/>
      <point x="929" y="243"/>
      <point x="929" y="354" type="curve" smooth="yes"/>
      <point x="929" y="488.974"/>
      <point x="890" y="529"/>
      <point x="793" y="576" type="curve" smooth="yes"/>
      <point x="693.108" y="624.401"/>
      <point x="590" y="675"/>
      <point x="602" y="797" type="curve" smooth="yes"/>
      <point x="614.617" y="925.272"/>
      <point x="741" y="981"/>
      <point x="798" y="1039" type="curve" smooth="yes"/>
      <point x="857" y="1098"/>
      <point x="887" y="1133"/>
      <point x="897" y="1189" type="curve" smooth="yes"/>
      <point x="909" y="1257"/>
      <point x="851" y="1300"/>
      <point x="758" y="1300" type="curve"/>
    </contour>
  </outline>
</glyph>
<glyph name="ae" format="2">
  <advance width="1200"/>
  <unicode hex="00E6"/>
  <outline>
    <contour>
      <point x="727" y="630" type="curve" smooth="yes"/>
      <point x="573" y="155" type="line"/>
      <point x="478" y="120" type="line"/>
      <point x="565" y="610" type="line" smooth="yes"/>
      <point x="581" y="703"/>
      <point x="580" y="800"/>
      <point x="492" y="800" type="curve" smooth="yes"/>
      <point x="424" y="800"/>
      <point x="363" y="750"/>
      <point x="273" y="667" type="curve"/>
      <point x="192" y="770" type="line"/>
      <point x="324" y="896"/>
      <point x="425" y="940"/>
      <point x="532" y="940" type="curve" smooth="yes"/>
      <point x="719" y="940"/>
      <point x="755" y="787"/>
    </contour>
    <contour>
      <point x="206" y="216" type="curve" smooth="yes"/>
      <point x="194" y="150"/>
      <point x="229" y="115"/>
      <point x="277" y="115" type="curve" smooth="yes"/>
      <point x="365" y="115"/>
      <point x="448" y="177"/>
      <point x="560" y="300" type="curve"/>
      <point x="614" y="210" type="line"/>
      <point x="520" y="74"/>
      <point x="380" y="-20"/>
      <point x="233" y="-20" type="curve" smooth="yes"/>
      <point x="77" y="-20"/>
      <point x="11" y="74"/>
      <point x="33" y="200" type="curve" smooth="yes"/>
      <point x="72" y="423"/>
      <point x="292" y="508"/>
      <point x="565" y="619" type="curve"/>
      <point x="589" y="528" type="line"/>
      <point x="344" y="423"/>
      <point x="223" y="310"/>
    </contour>
    <contour>
      <point x="1055" y="79" type="line"/>
      <point x="985" y="23"/>
      <point x="906" y="-20"/>
      <point x="810" y="-20" type="curve"/>
      <point x="816" y="122" type="line"/>
      <point x="873" y="122"/>
      <point x="941" y="154"/>
      <point x="997" y="192" type="curve"/>
    </contour>
    <contour>
      <point x="810" y="-20" type="line"/>
      <point x="554" y="-20"/>
      <point x="532" y="194"/>
      <point x="582" y="480" type="curve" smooth="yes"/>
      <point x="631" y="756"/>
      <point x="758" y="940"/>
      <point x="975" y="940" type="curve" smooth="yes"/>
      <point x="1122" y="940"/>
      <point x="1153.98" y="803.642"/>
      <point x="1135" y="682" type="curve" smooth="yes"/>
      <point x="1105.8" y="494.821"/>
      <point x="898.512" y="423.921"/>
      <point x="665" y="407" type="curve"/>
      <point x="684" y="517" type="line"/>
      <point x="684" y="517"/>
      <point x="877" y="511"/>
      <point x="948" y="597" type="curve" smooth="yes"/>
      <point x="1011" y="673"/>
      <point x="1001" y="805"/>
      <point x="921" y="805" type="curve" smooth="yes"/>
      <point x="793" y="805"/>
      <point x="728" y="653"/>
      <point x="694" y="460" type="curve" smooth="yes"/>
      <point x="651" y="217"/>
      <point x="668" y="122"/>
      <point x="816" y="122" type="curve"/>
    </contour>
  </outline>
</glyph>
<glyph name="eth" format="2">
  <advance width="1200"/>
  <unicode hex="00F0"/>
  <outline>
    <contour>
      <point x="506" y="-20" type="curve" smooth="yes"/>
      <point x="218" y="-20"/>
      <point x="66" y="180"/>
      <point x="115" y="460" type="curve" smooth="yes"/>
      <point x="161" y="722"/>
      <point x="384" y="940"/>
      <point x="634" y="940" type="curve" smooth="yes"/>
      <point x="804" y="940"/>
      <point x="881" y="866"/>
      <point x="963" y="742" type="curve"/>
      <point x="876" y="772" type="line"/>
      <point x="821" y="958"/>
      <point x="700" y="1142"/>
      <point x="508" y="1348" type="curve"/>
      <point x="632" y="1450" type="line"/>
      <point x="985" y="1022"/>
      <point x="1114" y="728"/>
      <point x="1067" y="460" type="curve" smooth="yes"/>
      <point x="1018" y="180"/>
      <point x="794" y="-20"/>
    </contour>
    <contour>
      <point x="534" y="134" type="curve" smooth="yes"/>
      <point x="718" y="134"/>
      <point x="872" y="272"/>
      <point x="905" y="460" type="curve" smooth="yes"/>
      <point x="939" y="650"/>
      <point x="834" y="816"/>
      <point x="654" y="816" type="curve" smooth="yes"/>
      <point x="474" y="816"/>
      <point x="311" y="650"/>
      <point x="277" y="460" type="curve" smooth="yes"/>
      <point x="244" y="272"/>
      <point x="350" y="134"/>
    </contour>
    <contour>
      <point x="479" y="1006" type="line"/>
      <point x="460" y="1100" type="line"/>
      <point x="1058" y="1314" type="line"/>
      <point x="1077" y="1220" type="line"/>
    </contour>
  </outline>
</glyph>
<glyph name="oslash" format="2">
  <advance width="1200"/>
  <unicode hex="00F8"/>
  <outline>
    <contour>
      <point x="969.5" y="1005" type="line"/>
      <point x="1081.5" y="925" type="line"/>
      <point x="251.5" y="-115" type="line"/>
      <point x="139.5" y="-35" type="line"/>
    </contour>
    <component base="o"/>
  </outline>
</glyph>
<glyph name="thorn" format="2">
  <advance width="1200"/>
  <unicode hex="00FE"/>
  <outline>
    <contour>
      <point x="594" y="115" type="curve" smooth="yes"/>
      <point x="732" y="115"/>
      <point x="899" y="227"/>
      <point x="940" y="460" type="curve" smooth="yes"/>
      <point x="983" y="703"/>
      <point x="871" y="790"/>
      <point x="713" y="790" type="curve" smooth="yes"/>
      <point x="535" y="790"/>
      <point x="409" y="653"/>
      <point x="375" y="460" type="curve" smooth="yes"/>
      <point x="343" y="277"/>
      <point x="436" y="115"/>
    </contour>
    <contour>
      <point x="780" y="940" type="curve" smooth="yes"/>
      <point x="996" y="940"/>
      <point x="1157" y="786"/>
      <point x="1100" y="460" type="curve" smooth="yes"/>
      <point x="1044" y="144"/>
      <point x="807" y="-20"/>
      <point x="610" y="-20" type="curve" smooth="yes"/>
      <point x="383" y="-20"/>
      <point x="253" y="164"/>
      <point x="309" y="480" type="curve" smooth="yes"/>
      <point x="359" y="766"/>
      <point x="544" y="940"/>
    </contour>
    <contour>
      <point x="526" y="1330" type="line"/>
      <point x="233" y="-330" type="line"/>
      <point x="74" y="-330" type="line"/>
      <point x="342" y="1190" type="line"/>
      <point x="172" y="1190" type="line"/>
      <point x="197" y="1330" type="line"/>
    </contour>
  </outline>
</glyph>
<glyph name="dcroat" format="2">
  <advance width="1200"/>
  <unicode hex="0111"/>
  <outline>
    <contour>
      <point x="769" y="1160" type="line"/>
      <point x="1271" y="1160" type="line"/>
      <point x="1271" y="1030" type="line"/>
      <point x="769" y="1030" type="line"/>
    </contour>
    <contour>
      <point x="275" y="436" type="curve" smooth="yes"/>
      <point x="239.733" y="236.407"/>
      <point x="305" y="125"/>
      <point x="413" y="125" type="curve" smooth="yes"/>
      <point x="501" y="125"/>
      <point x="650" y="177"/>
      <point x="786" y="400" type="curve"/>
      <point x="830" y="310" type="line"/>
      <point x="680" y="84"/>
      <point x="546" y="-20"/>
      <point x="359" y="-20" type="curve" smooth="yes"/>
      <point x="153" y="-20"/>
      <point x="47.3047" y="143.597"/>
      <point x="105" y="420" type="curve" smooth="yes"/>
      <point x="167.898" y="721.332"/>
      <point x="394" y="939"/>
      <point x="629" y="939" type="curve" smooth="yes"/>
      <point x="747" y="939"/>
      <point x="845" y="876"/>
      <point x="884" y="790" type="curve"/>
      <point x="885" y="669" type="line"/>
      <point x="845" y="756"/>
      <point x="747" y="819"/>
      <point x="650" y="819" type="curve" smooth="yes"/>
      <point x="450" y="819"/>
      <point x="309.749" y="632.667"/>
    </contour>
    <contour>
      <point x="1155" y="1330" type="line"/>
      <point x="896" y="195" type="line" smooth="yes"/>
      <point x="885.063" y="147.072"/>
      <point x="882.384" y="110"/>
      <point x="925" y="110" type="curve" smooth="yes"/>
      <point x="985" y="110"/>
      <point x="1050" y="214"/>
      <point x="1089" y="263" type="curve"/>
      <point x="1187" y="193" type="line"/>
      <point x="1085" y="53"/>
      <point x="998" y="-35"/>
      <point x="878" y="-35" type="curve" smooth="yes"/>
      <point x="768" y="-35"/>
      <point x="703.46" y="42.3729"/>
      <point x="737" y="190" type="curve" smooth="yes"/>
      <point x="996" y="1330" type="line"/>
    </contour>
  </outline>
</glyph>
<glyph name="Hbar" format="2">
  <advance width="1200"/>
  <unicode hex="0126"/>
  <outline>
    <contour>
      <point x="879" y="610" type="line"/>
      <point x="377" y="610" type="line"/>
      <point x="292" y="130" type="line"/>
      <point x="451" y="130" type="line"/>
      <point x="428" y="0" type="line"/>
      <point x="-40" y="0" type="line"/>
      <point x="-17" y="130" type="line"/>
      <point x="133" y="130" type="line"/>
      <point x="316" y="1170" type="line"/>
      <point x="166" y="1170" type="line"/>
      <point x="189" y="1300" type="line"/>
      <point x="657" y="1300" type="line"/>
      <point x="634" y="1170" type="line"/>
      <point x="475" y="1170" type="line"/>
      <point x="399" y="740" type="line"/>
      <point x="901" y="740" type="line"/>
      <point x="977" y="1170" type="line"/>
      <point x="818" y="1170" type="line"/>
      <point x="841" y="1300" type="line"/>
      <point x="1309" y="1300" type="line"/>
      <point x="1286" y="1170" type="line"/>
      <point x="1136" y="1170" type="line"/>
      <point x="953" y="130" type="line"/>
      <point x="1103" y="130" type="line"/>
      <point x="1080" y="0" type="line"/>
      <point x="612" y="0" type="line"/>
      <point x="635" y="130" type="line"/>
      <point x="794" y="130" type="line"/>
    </contour>
    <contour>
      <point x="139" y="1020" type="line"/>
      <point x="1261" y="1020" type="line"/>
      <point x="1238" y="890" type="line"/>
      <point x="116" y="890" type="line"/>
    </contour>
  </outline>
</glyph>
<glyph name="hbar" format="2">
  <advance width="1200"/>
  <unicode hex="0127"/>
  <outline>
    <contour>
      <point x="179" y="1160" type="line"/>
      <point x="681" y="1160" type="line"/>
      <point x="681" y="1030" type="line"/>
      <point x="179" y="1030" type="line"/>
    </contour>
    <component base="h.alt"/>
  </outline>
</glyph>
<glyph name="dotlessi" format="2">
  <advance width="1200"/>
  <unicode hex="0131"/>
  <anchor x="597" y="0" name="Anchor-2"/>
  <anchor x="676" y="920" name="Anchor-0"/>
  <outline>
    <contour>
      <point x="618" y="780" type="line"/>
      <point x="318" y="780" type="line"/>
      <point x="342" y="920" type="line"/>
      <point x="821" y="920" type="line"/>
      <point x="668" y="265" type="line" smooth="yes"/>
      <point x="645.996" y="170.801"/>
      <point x="644.385" y="130"/>
      <point x="697" y="130" type="curve" smooth="yes"/>
      <point x="767" y="130"/>
      <point x="848" y="214"/>
      <point x="927" y="333" type="curve"/>
      <point x="1046" y="273" type="line"/>
      <point x="924" y="93"/>
      <point x="806" y="-25"/>
      <point x="666" y="-25" type="curve" smooth="yes"/>
      <point x="536" y="-25"/>
      <point x="448.759" y="43.1339"/>
      <point x="495" y="240" type="curve" smooth="yes"/>
      <point x="622.58" y="783.158" type="line"/>
    </contour>
  </outline>
</glyph>
<glyph name="IJ" format="2">
  <advance width="1200"/>
  <unicode hex="0132"/>
  <outline>
    <contour>
      <point x="10" y="0" type="line"/>
      <point x="33" y="130" type="line"/>
      <point x="188" y="130" type="line"/>
      <point x="371" y="1170" type="line"/>
      <point x="226" y="1170" type="line"/>
      <point x="249" y="1300" type="line"/>
      <point x="709" y="1300" type="line"/>
      <point x="686" y="1170" type="line"/>
      <point x="541" y="1170" type="line"/>
      <point x="358" y="130" type="line"/>
      <point x="513" y="130" type="line"/>
      <point x="490" y="0" type="line"/>
    </contour>
    <contour>
      <point x="626" y="124" type="line"/>
      <point x="774" y="124"/>
      <point x="907" y="217"/>
      <point x="945" y="430" type="curve" smooth="yes"/>
      <point x="1076" y="1170" type="line"/>
      <point x="807" y="1170" type="line"/>
      <point x="830" y="1300" type="line"/>
      <point x="1259" y="1300" type="line"/>
      <point x="1105" y="430" type="line" smooth="yes"/>
      <point x="1060" y="174"/>
      <point x="871" y="-20"/>
      <point x="605" y="-20" type="curve"/>
    </contour>
  </outline>
</glyph>
<glyph name="ij" format="2">
  <advance width="1200"/>
  <unicode hex="0133"/>
  <outline>
    <contour>
      <point x="390" y="1255" type="curve" smooth="yes"/>
      <point x="390" y="1328"/>
      <point x="441" y="1380"/>
      <point x="514" y="1380" type="curve" smooth="yes"/>
      <point x="587" y="1380"/>
      <point x="639" y="1328"/>
      <point x="639" y="1255" type="curve" smooth="yes"/>
      <point x="639" y="1182"/>
      <point x="592" y="1130"/>
      <point x="519" y="1130" type="curve" smooth="yes"/>
      <point x="446" y="1130"/>
      <point x="390" y="1182"/>
    </contour>
    <contour>
      <point x="940" y="1255" type="curve" smooth="yes"/>
      <point x="940" y="1328"/>
      <point x="991" y="1380"/>
      <point x="1064" y="1380" type="curve" smooth="yes"/>
      <point x="1137" y="1380"/>
      <point x="1189" y="1328"/>
      <point x="1189" y="1255" type="curve" smooth="yes"/>
      <point x="1189" y="1182"/>
      <point x="1142" y="1130"/>
      <point x="1069" y="1130" type="curve" smooth="yes"/>
      <point x="996" y="1130"/>
      <point x="940" y="1182"/>
    </contour>
    <contour>
      <point x="388" y="800" type="line"/>
      <point x="148" y="780" type="line"/>
      <point x="172" y="920" type="line"/>
      <point x="561" y="920" type="line"/>
      <point x="408" y="265" type="line" smooth="yes"/>
      <point x="385.996" y="170.802"/>
      <point x="384.385" y="120"/>
      <point x="437" y="120" type="curve" smooth="yes"/>
      <point x="507" y="120"/>
      <point x="568" y="171"/>
      <point x="627" y="223" type="curve"/>
      <point x="703" y="132" type="line"/>
      <point x="621" y="62"/>
      <point x="546" y="-25"/>
      <point x="406" y="-25" type="curve" smooth="yes"/>
      <point x="276" y="-25"/>
      <point x="188.759" y="43.1338"/>
      <point x="235" y="240" type="curve" smooth="yes"/>
      <point x="374.58" y="833.158" type="line"/>
    </contour>
    <contour>
      <point x="469" y="-290" type="curve"/>
      <point x="474" y="-430" type="line"/>
      <point x="287" y="-430"/>
      <point x="151" y="-331"/>
      <point x="94" y="-231" type="curve"/>
      <point x="235" y="-150" type="line"/>
      <point x="268" y="-200"/>
      <point x="341" y="-290"/>
    </contour>
    <contour>
      <point x="1091" y="920" type="line"/>
      <point x="932" y="10" type="line" smooth="yes"/>
      <point x="889" y="-236"/>
      <point x="781" y="-430"/>
      <point x="474" y="-430" type="curve"/>
      <point x="469" y="-290" type="line"/>
      <point x="697" y="-290"/>
      <point x="735" y="-143"/>
      <point x="762" y="10" type="curve" smooth="yes"/>
      <point x="898" y="780" type="line"/>
      <point x="708" y="780" type="line"/>
      <point x="732" y="920" type="line"/>
    </contour>
  </outline>
</glyph>
<glyph name="kgreenlandic" format="2">
  <advance width="1200"/>
  <unicode hex="0138"/>
  <anchor x="798" y="920" name="Anchor-0"/>
  <anchor x="516" y="0" name="Anchor-2"/>
  <outline>
    <contour>
      <point x="300" y="0" type="line"/>
      <point x="140" y="0" type="line"/>
      <point x="277" y="780" type="line"/>
      <point x="87" y="780" type="line"/>
      <point x="112" y="920" type="line"/>
      <point x="462" y="920" type="line"/>
    </contour>
    <contour>
      <point x="894" y="654" type="curve" smooth="yes"/>
      <point x="932.761" y="752.506"/>
      <point x="874" y="795"/>
      <point x="796" y="795" type="curve" smooth="yes"/>
      <point x="708" y="795"/>
      <point x="526" y="743"/>
      <point x="390" y="520" type="curve"/>
      <point x="349" y="610" type="line"/>
      <point x="499" y="836"/>
      <point x="663" y="940"/>
      <point x="850" y="940" type="curve" smooth="yes"/>
      <point x="1026" y="940"/>
      <point x="1124.61" y="845.522"/>
      <point x="1064" y="670" type="curve" smooth="yes"/>
      <point x="990.405" y="456.892"/>
      <point x="755" y="271"/>
      <point x="470" y="271" type="curve" smooth="yes"/>
      <point x="392" y="271"/>
      <point x="314" y="304"/>
      <point x="275" y="350" type="curve"/>
      <point x="274" y="471" type="line"/>
      <point x="314" y="424"/>
      <point x="382" y="391"/>
      <point x="479" y="391" type="curve" smooth="yes"/>
      <point x="679" y="391"/>
      <point x="851.022" y="544.778"/>
    </contour>
    <contour>
      <point x="492.58" y="363.158" type="line"/>
      <point x="641" y="380" type="line"/>
      <point x="688" y="256" type="line" smooth="yes"/>
      <point x="719.026" y="174.143"/>
      <point x="764.385" y="131"/>
      <point x="817" y="131" type="curve" smooth="yes"/>
      <point x="887" y="131"/>
      <point x="968" y="214"/>
      <point x="1047" y="333" type="curve"/>
      <point x="1166" y="273" type="line"/>
      <point x="1044" y="93"/>
      <point x="926" y="-25"/>
      <point x="786" y="-25" type="curve" smooth="yes"/>
      <point x="656" y="-25"/>
      <point x="591.369" y="53.0547"/>
      <point x="535" y="230" type="curve" smooth="yes"/>
    </contour>
  </outline>
</glyph>
<glyph name="Lslash" format="2">
  <advance width="1200"/>
  <unicode hex="0141"/>
  <outline>
    <contour>
      <point x="135" y="620" type="line"/>
      <point x="95" y="735" type="line"/>
      <point x="655" y="975" type="line"/>
      <point x="695" y="860" type="line"/>
    </contour>
    <component base="L"/>
  </outline>
</glyph>
<glyph name="lslash" format="2">
  <advance width="1200"/>
  <unicode hex="0142"/>
  <outline>
    <contour>
      <point x="245" y="620" type="line"/>
      <point x="205" y="735" type="line"/>
      <point x="765" y="975" type="line"/>
      <point x="805" y="860" type="line"/>
    </contour>
    <component base="l"/>
  </outline>
</glyph>
<glyph name="Eng" format="2">
  <advance width="1200"/>
  <unicode hex="014A"/>
  <outline>
    <contour>
      <point x="958" y="0" type="line"/>
      <point x="915" y="-246"/>
      <point x="783" y="-440"/>
      <point x="476" y="-440" type="curve"/>
      <point x="501" y="-300" type="line"/>
      <point x="729" y="-300"/>
      <point x="767" y="-153"/>
      <point x="794" y="0" type="curve"/>
    </contour>
    <contour>
      <point x="335" y="1160" type="line"/>
      <point x="165" y="1160" type="line"/>
      <point x="189" y="1300" type="line"/>
      <point x="359" y="1300" type="line"/>
    </contour>
    <contour>
      <point x="1126" y="950" type="curve" smooth="yes"/>
      <point x="958" y="0" type="line"/>
      <point x="794" y="0" type="line"/>
      <point x="963" y="960" type="line" smooth="yes"/>
      <point x="990" y="1113"/>
      <point x="941" y="1190"/>
      <point x="813" y="1190" type="curve" smooth="yes"/>
      <point x="645" y="1190"/>
      <point x="477" y="1033"/>
      <point x="439" y="820" type="curve" smooth="yes"/>
      <point x="294" y="0" type="line"/>
      <point x="130" y="0" type="line"/>
      <point x="359" y="1300" type="line"/>
      <point x="483" y="1300" type="line"/>
      <point x="490" y="1110" type="line"/>
      <point x="378" y="930" type="line"/>
      <point x="406" y="1086"/>
      <point x="599" y="1320"/>
      <point x="866" y="1320" type="curve" smooth="yes"/>
      <point x="1078" y="1320"/>
      <point x="1168" y="1186"/>
    </contour>
  </outline>
</glyph>
<glyph name="eng" format="2">
  <advance width="1200"/>
  <unicode hex="014B"/>
  <outline>
    <contour>
      <point x="958" y="0" type="line"/>
      <point x="915" y="-246"/>
      <point x="783" y="-440"/>
      <point x="476" y="-440" type="curve"/>
      <point x="501" y="-300" type="line"/>
      <point x="729" y="-300"/>
      <point x="767" y="-153"/>
      <point x="794" y="0" type="curve"/>
    </contour>
    <contour>
      <point x="268" y="780" type="line"/>
      <point x="98" y="780" type="line"/>
      <point x="122" y="920" type="line"/>
      <point x="292" y="920" type="line"/>
    </contour>
    <contour>
      <point x="1059" y="570" type="curve" smooth="yes"/>
      <point x="958" y="0" type="line"/>
      <point x="794" y="0" type="line"/>
      <point x="896" y="580" type="line" smooth="yes"/>
      <point x="923" y="733"/>
      <point x="874" y="810"/>
      <point x="746" y="810" type="curve" smooth="yes"/>
      <point x="578" y="810"/>
      <point x="410" y="653"/>
      <point x="372" y="440" type="curve" smooth="yes"/>
      <point x="294" y="0" type="line"/>
      <point x="130" y="0" type="line"/>
      <point x="292" y="920" type="line"/>
      <point x="416" y="920" type="line"/>
      <point x="423" y="730" type="line"/>
      <point x="311" y="550" type="line"/>
      <point x="339" y="706"/>
      <point x="532" y="940"/>
      <point x="799" y="940" type="curve" smooth="yes"/>
      <point x="1011" y="940"/>
      <point x="1101" y="806"/>
    </contour>
  </outline>
</glyph>
<glyph name="OE" format="2">
  <advance width="1200"/>
  <unicode hex="0152"/>
  <outline>
    <contour>
      <point x="739" y="1300" type="curve"/>
      <point x="715" y="1160" type="line"/>
      <point x="527" y="1160"/>
      <point x="357" y="1003"/>
      <point x="295" y="650" type="curve" smooth="yes"/>
      <point x="231" y="287"/>
      <point x="327" y="140"/>
      <point x="535" y="140" type="curve"/>
      <point x="510" y="0" type="line"/>
      <point x="194" y="0"/>
      <point x="58" y="214"/>
      <point x="135" y="650" type="curve" smooth="yes"/>
      <point x="210" y="1076"/>
      <point x="442" y="1300"/>
    </contour>
    <contour>
      <point x="1061" y="740" type="line"/>
      <point x="1038" y="605" type="line"/>
      <point x="787" y="615" type="line"/>
      <point x="702" y="130" type="line"/>
      <point x="931" y="130" type="line"/>
      <point x="1020" y="450" type="line"/>
      <point x="1139" y="450" type="line"/>
      <point x="1060" y="0" type="line"/>
      <point x="510" y="0" type="line"/>
      <point x="739" y="1300" type="line"/>
      <point x="1249" y="1300" type="line"/>
      <point x="1219" y="900" type="line"/>
      <point x="1100" y="900" type="line"/>
      <point x="1077" y="1170" type="line"/>
      <point x="885" y="1170" type="line"/>
      <point x="808" y="730" type="line"/>
    </contour>
  </outline>
</glyph>
<glyph name="oe" format="2">
  <advance width="1200"/>
  <unicode hex="0153"/>
  <outline>
    <contour>
      <point x="810" y="-20" type="line"/>
      <point x="554" y="-20"/>
      <point x="532" y="194"/>
      <point x="582" y="480" type="curve" smooth="yes"/>
      <point x="631" y="756"/>
      <point x="758" y="940"/>
      <point x="975" y="940" type="curve" smooth="yes"/>
      <point x="1122" y="940"/>
      <point x="1153.98" y="803.642"/>
      <point x="1135" y="682" type="curve" smooth="yes"/>
      <point x="1105.8" y="494.821"/>
      <point x="898.512" y="423.921"/>
      <point x="665" y="407" type="curve"/>
      <point x="684" y="517" type="line"/>
      <point x="684" y="517"/>
      <point x="877" y="511"/>
      <point x="948" y="597" type="curve" smooth="yes"/>
      <point x="1011" y="673"/>
      <point x="1001" y="805"/>
      <point x="921" y="805" type="curve" smooth="yes"/>
      <point x="793" y="805"/>
      <point x="728" y="653"/>
      <point x="694" y="460" type="curve" smooth="yes"/>
      <point x="651" y="217"/>
      <point x="668" y="122"/>
      <point x="816" y="122" type="curve"/>
    </contour>
    <contour>
      <point x="295" y="-20" type="curve" smooth="yes"/>
      <point x="89" y="-20"/>
      <point x="36" y="144"/>
      <point x="92" y="460" type="curve" smooth="yes"/>
      <point x="146" y="766"/>
      <point x="278" y="940"/>
      <point x="465" y="940" type="curve" smooth="yes"/>
      <point x="682" y="940"/>
      <point x="704" y="766"/>
      <point x="650" y="460" type="curve" smooth="yes"/>
      <point x="594" y="144"/>
      <point x="531" y="-20"/>
    </contour>
    <contour>
      <point x="461" y="805" type="curve" smooth="yes"/>
      <point x="363" y="805"/>
      <point x="304" y="673"/>
      <point x="266" y="460" type="curve" smooth="yes"/>
      <point x="227" y="237"/>
      <point x="221" y="115"/>
      <point x="339" y="115" type="curve" smooth="yes"/>
      <point x="467" y="115"/>
      <point x="497" y="237"/>
      <point x="536" y="460" type="curve" smooth="yes"/>
      <point x="574" y="673"/>
      <point x="569" y="805"/>
    </contour>
    <contour>
      <point x="1055" y="79" type="line"/>
      <point x="985" y="23"/>
      <point x="906" y="-20"/>
      <point x="810" y="-20" type="curve"/>
      <point x="816" y="122" type="line"/>
      <point x="873" y="122"/>
      <point x="941" y="154"/>
      <point x="997" y="192" type="curve"/>
    </contour>
  </outline>
</glyph>
<glyph name="Tbar" format="2">
  <advance width="1200"/>
  <unicode hex="0166"/>
  <outline>
    <contour>
      <point x="337" y="670" type="line"/>
      <point x="939" y="670" type="line"/>
      <point x="916" y="540" type="line"/>
      <point x="314" y="540" type="line"/>
    </contour>
    <component base="T"/>
  </outline>
</glyph>
<glyph name="tbar" format="2">
  <advance width="1200"/>
  <unicode hex="0167"/>
  <outline>
    <contour>
      <point x="181" y="580" type="line"/>
      <point x="903" y="580" type="line"/>
      <point x="880" y="450" type="line"/>
      <point x="158" y="450" type="line"/>
    </contour>
    <component base="t"/>
  </outline>
</glyph>
<glyph name="longs" format="2">
  <advance width="1200"/>
  <unicode hex="017F"/>
  <outline>
    <contour>
      <point x="988" y="1300" type="curve"/>
      <point x="1003" y="1440" type="line"/>
      <point x="1190" y="1440"/>
      <point x="1310" y="1371"/>
      <point x="1373" y="1301" type="curve"/>
      <point x="1238" y="1190" type="line"/>
      <point x="1201" y="1220"/>
      <point x="1116" y="1300"/>
    </contour>
    <contour>
      <point x="363" y="-330" type="line"/>
      <point x="525" y="1000" type="line" smooth="yes"/>
      <point x="555" y="1248"/>
      <point x="696" y="1440"/>
      <point x="1003" y="1440" type="curve"/>
      <point x="988" y="1300" type="line"/>
      <point x="790" y="1300"/>
      <point x="714" y="1152"/>
      <point x="695" y="1000" type="curve" smooth="yes"/>
      <point x="532" y="-330" type="line"/>
    </contour>
  </outline>
</glyph>
<glyph name="florin" format="2">
  <advance width="1200"/>
  <unicode hex="0192"/>
  <outline>
    <contour>
      <point x="161" y="-280" type="curve"/>
      <point x="166" y="-420" type="line"/>
      <point x="-21" y="-420"/>
      <point x="-107" y="-321"/>
      <point x="-164" y="-221" type="curve"/>
      <point x="-24" y="-140" type="line"/>
      <point x="9" y="-190"/>
      <point x="33" y="-280"/>
    </contour>
    <contour>
      <point x="592" y="130" type="line"/>
      <point x="574" y="20" type="line" smooth="yes"/>
      <point x="531" y="-226"/>
      <point x="443" y="-420"/>
      <point x="166" y="-420" type="curve"/>
      <point x="161" y="-280" type="line"/>
      <point x="319" y="-280"/>
      <point x="377" y="-133"/>
      <point x="404" y="20" type="curve" smooth="yes"/>
      <point x="423" y="130" type="line"/>
    </contour>
    <contour>
      <point x="968" y="1300" type="curve"/>
      <point x="983" y="1440" type="line"/>
      <point x="1170" y="1440"/>
      <point x="1310" y="1371"/>
      <point x="1373" y="1301" type="curve"/>
      <point x="1238" y="1190" type="line"/>
      <point x="1201" y="1220"/>
      <point x="1096" y="1300"/>
    </contour>
    <contour>
      <point x="423" y="130" type="line"/>
      <point x="539" y="790" type="line"/>
      <point x="319" y="790" type="line"/>
      <point x="342" y="920" type="line"/>
      <point x="561" y="920" type="line"/>
      <point x="575" y="1000" type="line" smooth="yes"/>
      <point x="618" y="1246"/>
      <point x="676" y="1440"/>
      <point x="983" y="1440" type="curve"/>
      <point x="968" y="1300" type="line"/>
      <point x="810" y="1300"/>
      <point x="772" y="1153"/>
      <point x="745" y="1000" type="curve" smooth="yes"/>
      <point x="731" y="920" type="line"/>
      <point x="1132" y="920" type="line"/>
      <point x="1106" y="770" type="line"/>
      <point x="708" y="790" type="line"/>
      <point x="592" y="130" type="line"/>
    </contour>
  </outline>
</glyph>
<glyph name="uni0212" format="2">
  <advance width="1200"/>
  <unicode hex="0212"/>
  <outline>
    <contour>
      <point x="454" y="1690" type="curve"/>
      <point x="596" y="1670" type="line"/>
      <point x="586" y="1618"/>
      <point x="600" y="1540"/>
      <point x="720" y="1540" type="curve" smooth="yes"/>
      <point x="839" y="1540"/>
      <point x="854" y="1618"/>
      <point x="844" y="1670" type="curve"/>
      <point x="986" y="1690" type="line"/>
      <point x="996" y="1522"/>
      <point x="910" y="1410"/>
      <point x="720" y="1410" type="curve" smooth="yes"/>
      <point x="530" y="1410"/>
      <point x="444" y="1522"/>
    </contour>
    <component base="R"/>
  </outline>
</glyph>
<glyph name="uni0213" format="2">
  <advance width="1200"/>
  <unicode hex="0213"/>
  <outline>
    <contour>
      <point x="464" y="1310" type="curve"/>
      <point x="606" y="1290" type="line"/>
      <point x="596" y="1238"/>
      <point x="610" y="1160"/>
      <point x="730" y="1160" type="curve" smooth="yes"/>
      <point x="849" y="1160"/>
      <point x="864" y="1238"/>
      <point x="854" y="1290" type="curve"/>
      <point x="996" y="1310" type="line"/>
      <point x="1006" y="1142"/>
      <point x="920" y="1030"/>
      <point x="730" y="1030" type="curve" smooth="yes"/>
      <point x="540" y="1030"/>
      <point x="454" y="1142"/>
    </contour>
    <component base="r"/>
  </outline>
</glyph>
<glyph name="uni0237" format="2">
  <advance width="1200"/>
  <unicode hex="0237"/>
  <anchor x="706" y="920" name="Anchor-0"/>
  <outline>
    <contour>
      <point x="369" y="-290" type="curve"/>
      <point x="364" y="-430" type="line"/>
      <point x="177" y="-430"/>
      <point x="51" y="-331"/>
      <point x="-6" y="-231" type="curve"/>
      <point x="120" y="-150" type="line"/>
      <point x="153" y="-200"/>
      <point x="241" y="-290"/>
    </contour>
    <contour>
      <point x="991" y="920" type="line"/>
      <point x="832" y="10" type="line" smooth="yes"/>
      <point x="780.54" y="-284.522"/>
      <point x="651" y="-430"/>
      <point x="364" y="-430" type="curve"/>
      <point x="369" y="-290" type="line"/>
      <point x="567" y="-290"/>
      <point x="629.809" y="-172.26"/>
      <point x="662" y="10" type="curve" smooth="yes"/>
      <point x="798" y="780" type="line"/>
      <point x="378" y="780" type="line"/>
      <point x="402" y="920" type="line"/>
    </contour>
  </outline>
</glyph>
<glyph name="uni02BC" format="2">
  <advance width="1200"/>
  <unicode hex="02BC"/>
  <anchor x="206" y="920" name="_Anchor-1"/>
  <outline>
    <contour>
      <point x="518" y="726" type="line"/>
      <point x="666" y="1336" type="line"/>
      <point x="876" y="1336" type="line"/>
      <point x="638" y="726" type="line"/>
    </contour>
  </outline>
</glyph>
<glyph name="caron" format="2">
  <advance width="1200"/>
  <unicode hex="02C7"/>
  <outline>
    <contour>
      <point x="792" y="1370" type="line"/>
      <point x="884" y="1290" type="line"/>
      <point x="594" y="1011" type="line"/>
      <point x="316" y="1290" type="line"/>
      <point x="406" y="1370" type="line"/>
      <point x="624" y="1181" type="line"/>
      <point x="564" y="1181" type="line"/>
    </contour>
  </outline>
</glyph>
<glyph name="uni02C9" format="2">
  <advance width="1200"/>
  <unicode hex="02C9"/>
  <outline>
    <contour>
      <point x="349" y="1220" type="line"/>
      <point x="851" y="1220" type="line"/>
      <point x="851" y="1090" type="line"/>
      <point x="349" y="1090" type="line"/>
    </contour>
  </outline>
</glyph>
<glyph name="uni02CB" format="2">
  <advance width="1200"/>
  <unicode hex="02CB"/>
  <outline>
    <contour>
      <point x="729" y="1085" type="line"/>
      <point x="639" y="1025" type="line"/>
      <point x="391" y="1301" type="line"/>
      <point x="555" y="1391" type="line"/>
    </contour>
  </outline>
</glyph>
<glyph name="breve" format="2">
  <advance width="1200"/>
  <unicode hex="02D8"/>
  <outline>
    <contour>
      <point x="334" y="1310" type="curve"/>
      <point x="476" y="1290" type="line"/>
      <point x="466" y="1238"/>
      <point x="480" y="1160"/>
      <point x="600" y="1160" type="curve" smooth="yes"/>
      <point x="719" y="1160"/>
      <point x="734" y="1238"/>
      <point x="724" y="1290" type="curve"/>
      <point x="866" y="1310" type="line"/>
      <point x="876" y="1142"/>
      <point x="790" y="1030"/>
      <point x="600" y="1030" type="curve" smooth="yes"/>
      <point x="410" y="1030"/>
      <point x="324" y="1142"/>
    </contour>
  </outline>
</glyph>
<glyph name="dotaccent" format="2">
  <advance width="1200"/>
  <unicode hex="02D9"/>
  <outline>
    <contour>
      <point x="488" y="1240" type="curve" smooth="yes"/>
      <point x="488" y="1306"/>
      <point x="534" y="1352"/>
      <point x="600" y="1352" type="curve" smooth="yes"/>
      <point x="666" y="1352"/>
      <point x="712" y="1306"/>
      <point x="712" y="1240" type="curve" smooth="yes"/>
      <point x="712" y="1174"/>
      <point x="670" y="1128"/>
      <point x="604" y="1128" type="curve" smooth="yes"/>
      <point x="538" y="1128"/>
      <point x="488" y="1174"/>
    </contour>
  </outline>
</glyph>
<glyph name="ogonek" format="2">
  <advance width="1200"/>
  <unicode hex="02DB"/>
  <outline>
    <contour>
      <point x="765" y="-250" type="curve"/>
      <point x="841" y="-360" type="line"/>
      <point x="791" y="-400"/>
      <point x="721" y="-440"/>
      <point x="615" y="-440" type="curve" smooth="yes"/>
      <point x="477" y="-440"/>
      <point x="389" y="-358"/>
      <point x="389" y="-240" type="curve" smooth="yes"/>
      <point x="389" y="-122"/>
      <point x="513" y="-2"/>
      <point x="673" y="70" type="curve"/>
      <point x="735" y="0" type="line"/>
      <point x="631" y="-44"/>
      <point x="549" y="-126"/>
      <point x="549" y="-210" type="curve" smooth="yes"/>
      <point x="549" y="-272"/>
      <point x="585" y="-300"/>
      <point x="645" y="-300" type="curve" smooth="yes"/>
      <point x="697" y="-300"/>
      <point x="737" y="-276"/>
    </contour>
  </outline>
</glyph>
<glyph name="hungarumlaut" format="2">
  <advance width="1200"/>
  <unicode hex="02DD"/>
  <outline>
    <contour>
      <point x="681" y="1095" type="line"/>
      <point x="847" y="1391" type="line"/>
      <point x="1019" y="1291" type="line"/>
      <point x="781" y="1025" type="line"/>
    </contour>
    <contour>
      <point x="281" y="1095" type="line"/>
      <point x="447" y="1391" type="line"/>
      <point x="619" y="1291" type="line"/>
      <point x="381" y="1025" type="line"/>
    </contour>
  </outline>
</glyph>
<glyph name="gravecomb" format="2">
  <advance width="1200"/>
  <unicode hex="0300"/>
  <anchor x="-604" y="920" name="_Anchor-0"/>
  <outline>
    <contour>
      <point x="-432" y="1085" type="line"/>
      <point x="-522" y="1025" type="line"/>
      <point x="-770" y="1301" type="line"/>
      <point x="-606" y="1391" type="line"/>
    </contour>
  </outline>
</glyph>
<glyph name="uni0302" format="2">
  <advance width="1200"/>
  <unicode hex="0302"/>
  <anchor x="-604" y="920" name="_Anchor-0"/>
  <outline>
    <contour>
      <point x="-792" y="1021" type="line"/>
      <point x="-884" y="1101" type="line"/>
      <point x="-594" y="1380" type="line"/>
      <point x="-316" y="1101" type="line"/>
      <point x="-406" y="1021" type="line"/>
      <point x="-624" y="1210" type="line"/>
      <point x="-564" y="1210" type="line"/>
    </contour>
  </outline>
</glyph>
<glyph name="uni0304" format="2">
  <advance width="1200"/>
  <unicode hex="0304"/>
  <anchor x="-604" y="920" name="_Anchor-0"/>
  <outline>
    <contour>
      <point x="-838" y="1210" type="line"/>
      <point x="-336" y="1210" type="line"/>
      <point x="-359" y="1080" type="line"/>
      <point x="-861" y="1080" type="line"/>
    </contour>
  </outline>
</glyph>
<glyph name="uni0306" format="2">
  <advance width="1200"/>
  <unicode hex="0306"/>
  <anchor x="-604" y="920" name="_Anchor-0"/>
  <outline>
    <contour>
      <point x="-870" y="1340" type="curve"/>
      <point x="-728" y="1320" type="line"/>
      <point x="-738" y="1268"/>
      <point x="-724" y="1190"/>
      <point x="-604" y="1190" type="curve" smooth="yes"/>
      <point x="-485" y="1190"/>
      <point x="-470" y="1268"/>
      <point x="-480" y="1320" type="curve"/>
      <point x="-338" y="1340" type="line"/>
      <point x="-328" y="1172"/>
      <point x="-414" y="1060"/>
      <point x="-604" y="1060" type="curve" smooth="yes"/>
      <point x="-794" y="1060"/>
      <point x="-880" y="1172"/>
    </contour>
  </outline>
</glyph>
<glyph name="uni0308" format="2">
  <advance width="1200"/>
  <unicode hex="0308"/>
  <anchor x="-604" y="920" name="_Anchor-0"/>
  <outline>
    <contour>
      <point x="-492" y="1160" type="curve" smooth="yes"/>
      <point x="-492" y="1226"/>
      <point x="-446" y="1272"/>
      <point x="-380" y="1272" type="curve" smooth="yes"/>
      <point x="-314" y="1272"/>
      <point x="-268" y="1226"/>
      <point x="-268" y="1160" type="curve" smooth="yes"/>
      <point x="-268" y="1094"/>
      <point x="-310" y="1048"/>
      <point x="-376" y="1048" type="curve" smooth="yes"/>
      <point x="-442" y="1048"/>
      <point x="-492" y="1094"/>
    </contour>
    <contour>
      <point x="-932" y="1160" type="curve" smooth="yes"/>
      <point x="-932" y="1226"/>
      <point x="-886" y="1272"/>
      <point x="-820" y="1272" type="curve" smooth="yes"/>
      <point x="-754" y="1272"/>
      <point x="-708" y="1226"/>
      <point x="-708" y="1160" type="curve" smooth="yes"/>
      <point x="-708" y="1094"/>
      <point x="-750" y="1048"/>
      <point x="-816" y="1048" type="curve" smooth="yes"/>
      <point x="-882" y="1048"/>
      <point x="-932" y="1094"/>
    </contour>
  </outline>
</glyph>
<glyph name="uni030A" format="2">
  <advance width="1200"/>
  <unicode hex="030A"/>
  <anchor x="-604" y="920" name="_Anchor-0"/>
  <outline>
    <contour>
      <point x="-804" y="1250" type="curve" smooth="yes"/>
      <point x="-804" y="1370"/>
      <point x="-704" y="1450"/>
      <point x="-600" y="1450" type="curve" smooth="yes"/>
      <point x="-496" y="1450"/>
      <point x="-396" y="1370"/>
      <point x="-396" y="1250" type="curve" smooth="yes"/>
      <point x="-396" y="1130"/>
      <point x="-496" y="1050"/>
      <point x="-600" y="1050" type="curve" smooth="yes"/>
      <point x="-704" y="1050"/>
      <point x="-804" y="1130"/>
    </contour>
    <contour>
      <point x="-702" y="1250" type="curve" smooth="yes"/>
      <point x="-702" y="1184"/>
      <point x="-650" y="1144"/>
      <point x="-600" y="1144" type="curve" smooth="yes"/>
      <point x="-550" y="1144"/>
      <point x="-498" y="1184"/>
      <point x="-498" y="1250" type="curve" smooth="yes"/>
      <point x="-498" y="1316"/>
      <point x="-550" y="1356"/>
      <point x="-600" y="1356" type="curve" smooth="yes"/>
      <point x="-650" y="1356"/>
      <point x="-702" y="1316"/>
    </contour>
  </outline>
</glyph>
<glyph name="uni0312" format="2">
  <advance width="1200"/>
  <unicode hex="0312"/>
  <outline>
    <contour>
      <point x="-458" y="1264" type="line"/>
      <point x="-569" y="806" type="line"/>
      <point x="-727" y="806" type="line"/>
      <point x="-548" y="1264" type="line"/>
    </contour>
  </outline>
</glyph>
<glyph name="dotbelowcomb" format="2">
  <advance width="1200"/>
  <unicode hex="0323"/>
  <anchor x="-600" y="0" name="_Anchor-3"/>
  <outline>
    <contour>
      <point x="-712" y="-352" type="curve" smooth="yes"/>
      <point x="-712" y="-286"/>
      <point x="-666" y="-240"/>
      <point x="-600" y="-240" type="curve" smooth="yes"/>
      <point x="-534" y="-240"/>
      <point x="-488" y="-286"/>
      <point x="-488" y="-352" type="curve" smooth="yes"/>
      <point x="-488" y="-418"/>
      <point x="-530" y="-464"/>
      <point x="-596" y="-464" type="curve" smooth="yes"/>
      <point x="-662" y="-464"/>
      <point x="-712" y="-418"/>
    </contour>
  </outline>
</glyph>
<glyph name="uni0327" format="2">
  <advance width="1200"/>
  <unicode hex="0327"/>
  <anchor x="-600" y="0" name="_Anchor-3"/>
  <outline>
    <contour>
      <point x="-633" y="-500" type="curve" smooth="yes"/>
      <point x="-717" y="-500"/>
      <point x="-775" y="-484"/>
      <point x="-831" y="-444" type="curve"/>
      <point x="-785" y="-344" type="line"/>
      <point x="-729" y="-376"/>
      <point x="-685" y="-382"/>
      <point x="-633" y="-382" type="curve" smooth="yes"/>
      <point x="-539" y="-382"/>
      <point x="-493" y="-364"/>
      <point x="-493" y="-312" type="curve" smooth="yes"/>
      <point x="-493" y="-264"/>
      <point x="-555" y="-240"/>
      <point x="-693" y="-240" type="curve"/>
      <point x="-717" y="-186" type="line"/>
      <point x="-547" y="60" type="line"/>
      <point x="-405" y="60" type="line"/>
      <point x="-595" y="-204" type="line"/>
      <point x="-653" y="-234" type="line"/>
      <point x="-633" y="-194"/>
      <point x="-575" y="-164"/>
      <point x="-525" y="-164" type="curve" smooth="yes"/>
      <point x="-439" y="-164"/>
      <point x="-349" y="-212"/>
      <point x="-349" y="-312" type="curve" smooth="yes"/>
      <point x="-349" y="-440"/>
      <point x="-479" y="-500"/>
    </contour>
  </outline>
</glyph>
<glyph name="uni0394" format="2">
  <advance width="1200"/>
  <unicode hex="0394"/>
  <outline>
    <contour>
      <point x="159" y="0" type="line"/>
      <point x="-13" y="0" type="line"/>
      <point x="659" y="1300" type="line"/>
      <point x="859" y="1300" type="line"/>
      <point x="1053" y="0" type="line"/>
      <point x="881" y="0" type="line"/>
      <point x="727" y="1230" type="line"/>
      <point x="767" y="1230" type="line"/>
    </contour>
    <contour>
      <point x="148" y="130" type="line"/>
      <point x="945" y="130" type="line"/>
      <point x="922" y="0" type="line"/>
      <point x="125" y="0" type="line"/>
    </contour>
  </outline>
</glyph>
<glyph name="uni03A9" format="2">
  <advance width="1200"/>
  <unicode hex="03A9"/>
  <outline>
    <contour>
      <point x="399" y="0" type="line"/>
      <point x="-1" y="0" type="line"/>
      <point x="22" y="130" type="line"/>
      <point x="273" y="130" type="line"/>
      <point x="295" y="253" type="line"/>
      <point x="228" y="317"/>
      <point x="102" y="465"/>
      <point x="152" y="750" type="curve" smooth="yes"/>
      <point x="218" y="1126"/>
      <point x="455" y="1320"/>
      <point x="752" y="1320" type="curve" smooth="yes"/>
      <point x="1049" y="1320"/>
      <point x="1217" y="1126"/>
      <point x="1151" y="750" type="curve" smooth="yes"/>
      <point x="1101" y="465"/>
      <point x="922" y="316"/>
      <point x="832" y="252" type="curve"/>
      <point x="811" y="130" type="line"/>
      <point x="1062" y="130" type="line"/>
      <point x="1039" y="0" type="line"/>
      <point x="639" y="0" type="line"/>
      <point x="684" y="254" type="line"/>
      <point x="784" y="316"/>
      <point x="957" y="555"/>
      <point x="991" y="750" type="curve" smooth="yes"/>
      <point x="1044" y="1053"/>
      <point x="915" y="1180"/>
      <point x="727" y="1180" type="curve" smooth="yes"/>
      <point x="539" y="1180"/>
      <point x="365" y="1053"/>
      <point x="312" y="750" type="curve" smooth="yes"/>
      <point x="278" y="555"/>
      <point x="367" y="316"/>
      <point x="444" y="254" type="curve"/>
    </contour>
  </outline>
</glyph>
<glyph name="pi" format="2">
  <advance width="1200"/>
  <unicode hex="03C0"/>
  <outline>
    <contour>
      <point x="121" y="570" type="line"/>
      <point x="182" y="920" type="line"/>
      <point x="297" y="780" type="line"/>
      <point x="230" y="570" type="line"/>
    </contour>
    <contour>
      <point x="402" y="860" type="line"/>
      <point x="562" y="860" type="line"/>
      <point x="410" y="0" type="line"/>
      <point x="250" y="0" type="line"/>
    </contour>
    <contour>
      <point x="182" y="920" type="line"/>
      <point x="1152" y="920" type="line"/>
      <point x="1126" y="770" type="line"/>
      <point x="156" y="770" type="line"/>
    </contour>
    <contour>
      <point x="832" y="860" type="line"/>
      <point x="992" y="860" type="line"/>
      <point x="890" y="282" type="line" smooth="yes"/>
      <point x="867" y="150"/>
      <point x="911" y="142"/>
      <point x="971" y="142" type="curve"/>
      <point x="943" y="-18" type="line"/>
      <point x="775" y="-18"/>
      <point x="685" y="24"/>
      <point x="723" y="242" type="curve" smooth="yes"/>
    </contour>
  </outline>
</glyph>
<glyph name="uni1E9E" format="2">
  <advance width="1200"/>
  <unicode hex="1E9E"/>
  <outline>
    <contour>
      <point x="-10" y="0" type="line"/>
      <point x="13" y="130" type="line"/>
      <point x="143" y="130" type="line"/>
      <point x="274" y="880" type="line" smooth="yes"/>
      <point x="317" y="1126"/>
      <point x="465" y="1320"/>
      <point x="772" y="1320" type="curve"/>
      <point x="767" y="1180" type="line"/>
      <point x="579" y="1180"/>
      <point x="461" y="1033"/>
      <point x="434" y="880" type="curve" smooth="yes"/>
      <point x="302" y="130" type="line"/>
      <point x="443" y="130" type="line"/>
      <point x="420" y="0" type="line"/>
    </contour>
    <contour>
      <point x="772" y="1320" type="line"/>
      <point x="1000" y="1320"/>
      <point x="1140" y="1211"/>
      <point x="1197" y="1079" type="curve"/>
      <point x="822" y="717" type="line"/>
      <point x="950" y="693"/>
      <point x="1148" y="588"/>
      <point x="1100" y="316" type="curve" smooth="yes"/>
      <point x="1066" y="121"/>
      <point x="929" y="1"/>
      <point x="711" y="1" type="curve" smooth="yes"/>
      <point x="657" y="1"/>
      <point x="578" y="21"/>
      <point x="518" y="53" type="curve"/>
      <point x="581" y="178" type="line"/>
      <point x="627" y="152"/>
      <point x="671" y="145"/>
      <point x="709" y="145" type="curve" smooth="yes"/>
      <point x="839" y="145"/>
      <point x="909" y="243"/>
      <point x="929" y="354" type="curve" smooth="yes"/>
      <point x="967" y="571"/>
      <point x="737" y="599"/>
      <point x="602" y="677" type="curve"/>
      <point x="997" y="1089" type="line"/>
      <point x="957" y="1147"/>
      <point x="880" y="1180"/>
      <point x="767" y="1180" type="curve"/>
    </contour>
  </outline>
</glyph>
<glyph name="uni2011" format="2">
  <advance width="1200"/>
  <unicode hex="2011"/>
  <outline>
    <contour>
      <point x="319" y="740" type="line"/>
      <point x="981" y="740" type="line"/>
      <point x="959" y="610" type="line"/>
      <point x="297" y="610" type="line"/>
    </contour>
  </outline>
</glyph>
<glyph name="figuredash" format="2">
  <advance width="1200"/>
  <unicode hex="2012"/>
  <outline>
    <contour>
      <point x="239" y="740" type="line"/>
      <point x="1061" y="740" type="line"/>
      <point x="1039" y="610" type="line"/>
      <point x="217" y="610" type="line"/>
    </contour>
  </outline>
</glyph>
<glyph name="endash" format="2">
  <advance width="1200"/>
  <unicode hex="2013"/>
  <outline>
    <contour>
      <point x="159" y="740" type="line"/>
      <point x="1141" y="740" type="line"/>
      <point x="1119" y="610" type="line"/>
      <point x="137" y="610" type="line"/>
    </contour>
  </outline>
</glyph>
<glyph name="emdash" format="2">
  <advance width="1200"/>
  <unicode hex="2014"/>
  <outline>
    <contour>
      <point x="79" y="740" type="line"/>
      <point x="1221" y="740" type="line"/>
      <point x="1199" y="610" type="line"/>
      <point x="57" y="610" type="line"/>
    </contour>
  </outline>
</glyph>
<glyph name="quotereversed" format="2">
  <advance width="1200"/>
  <unicode hex="201B"/>
  <outline>
    <contour>
      <point x="782" y="690" type="line"/>
      <point x="662" y="690" type="line"/>
      <point x="639" y="1300" type="line"/>
      <point x="849" y="1300" type="line"/>
    </contour>
  </outline>
</glyph>
